M48
; DRILL file {KiCad 7.0.9} date Wed Oct 30 14:50:43 2024
; FORMAT={-:-/ absolute / inch / decimal}
; #@! TF.CreationDate,2024-10-30T14:50:43+01:00
; #@! TF.GenerationSoftware,Kicad,Pcbnew,7.0.9
; #@! TF.FileFunction,NonPlated,1,2,NPTH
FMAT,2
INCH
; #@! TA.AperFunction,NonPlated,NPTH,ComponentDrill
T1C0.0197
%
G90
G05
T1
X4.065Y-1.8406
X4.065Y-1.8701
X4.065Y-1.8996
X4.065Y-3.3169
X4.065Y-3.3465
X4.065Y-3.376
X4.065Y-4.7736
X4.065Y-4.8031
X4.065Y-4.8327
X4.124Y-1.8406
X4.124Y-1.8701
X4.124Y-1.8996
X4.124Y-3.3169
X4.124Y-3.3465
X4.124Y-3.376
X4.124Y-4.7736
X4.124Y-4.8031
X4.124Y-4.8327
X4.7933Y-1.1319
X4.7933Y-1.1909
X4.7933Y-2.5886
X4.7933Y-2.6476
X4.7933Y-4.0453
X4.7933Y-4.1043
X4.7933Y-5.502
X4.7933Y-5.561
X4.8228Y-1.1319
X4.8228Y-1.1909
X4.8228Y-2.5886
X4.8228Y-2.6476
X4.8228Y-4.0453
X4.8228Y-4.1043
X4.8228Y-5.502
X4.8228Y-5.561
X4.8524Y-1.1319
X4.8524Y-1.1909
X4.8524Y-2.5886
X4.8524Y-2.6476
X4.8524Y-4.0453
X4.8524Y-4.1043
X4.8524Y-5.502
X4.8524Y-5.561
X5.5216Y-1.8406
X5.5216Y-1.8701
X5.5216Y-1.8996
X5.5216Y-3.3169
X5.5216Y-3.3465
X5.5216Y-3.376
X5.5216Y-4.7736
X5.5216Y-4.8031
X5.5216Y-4.8327
X5.5807Y-1.8406
X5.5807Y-1.8701
X5.5807Y-1.8996
X5.5807Y-3.3169
X5.5807Y-3.3465
X5.5807Y-3.376
X5.5807Y-4.7736
X5.5807Y-4.8031
X5.5807Y-4.8327
X6.2303Y-4.0453
X6.2303Y-4.1043
X6.2303Y-5.502
X6.2303Y-5.561
X6.2598Y-4.0453
X6.2598Y-4.1043
X6.2598Y-5.502
X6.2598Y-5.561
X6.2697Y-1.1319
X6.2697Y-1.1909
X6.2697Y-2.5886
X6.2697Y-2.6476
X6.2894Y-4.0453
X6.2894Y-4.1043
X6.2894Y-5.502
X6.2894Y-5.561
X6.2992Y-1.1319
X6.2992Y-1.1909
X6.2992Y-2.5886
X6.2992Y-2.6476
X6.3287Y-1.1319
X6.3287Y-1.1909
X6.3287Y-2.5886
X6.3287Y-2.6476
X6.9783Y-1.8406
X6.9783Y-1.8701
X6.9783Y-1.8996
X6.9783Y-3.3169
X6.9783Y-3.3465
X6.9783Y-3.376
X6.9783Y-4.7736
X6.9783Y-4.8031
X6.9783Y-4.8327
X7.0374Y-1.8406
X7.0374Y-1.8701
X7.0374Y-1.8996
X7.0374Y-3.3169
X7.0374Y-3.3465
X7.0374Y-3.376
X7.0374Y-4.7736
X7.0374Y-4.8031
X7.0374Y-4.8327
X7.665Y-4.0453
X7.665Y-4.1043
X7.6673Y-5.502
X7.6673Y-5.561
X7.6946Y-4.0453
X7.6946Y-4.1043
X7.6968Y-5.502
X7.6968Y-5.561
X7.7067Y-1.1319
X7.7067Y-1.1909
X7.7067Y-2.5886
X7.7067Y-2.6476
X7.7241Y-4.0453
X7.7241Y-4.1043
X7.7264Y-5.502
X7.7264Y-5.561
X7.7362Y-1.1319
X7.7362Y-1.1909
X7.7362Y-2.5886
X7.7362Y-2.6476
X7.7657Y-1.1319
X7.7657Y-1.1909
X7.7657Y-2.5886
X7.7657Y-2.6476
X8.435Y-1.8406
X8.435Y-1.8701
X8.435Y-1.8996
X8.435Y-3.3169
X8.435Y-3.3465
X8.435Y-3.376
X8.435Y-4.7736
X8.435Y-4.8031
X8.435Y-4.8327
X8.4941Y-1.8406
X8.4941Y-1.8701
X8.4941Y-1.8996
X8.4941Y-3.3169
X8.4941Y-3.3465
X8.4941Y-3.376
X8.4941Y-4.7736
X8.4941Y-4.8031
X8.4941Y-4.8327
T0
M30
