%TF.GenerationSoftware,KiCad,Pcbnew,7.0.9*%
%TF.CreationDate,2024-10-30T14:50:37+01:00*%
%TF.ProjectId,panel,70616e65-6c2e-46b6-9963-61645f706362,rev?*%
%TF.SameCoordinates,Original*%
%TF.FileFunction,Copper,L1,Top*%
%TF.FilePolarity,Positive*%
%FSLAX46Y46*%
G04 Gerber Fmt 4.6, Leading zero omitted, Abs format (unit mm)*
G04 Created by KiCad (PCBNEW 7.0.9) date 2024-10-30 14:50:37*
%MOMM*%
%LPD*%
G01*
G04 APERTURE LIST*
G04 Aperture macros list*
%AMRoundRect*
0 Rectangle with rounded corners*
0 $1 Rounding radius*
0 $2 $3 $4 $5 $6 $7 $8 $9 X,Y pos of 4 corners*
0 Add a 4 corners polygon primitive as box body*
4,1,4,$2,$3,$4,$5,$6,$7,$8,$9,$2,$3,0*
0 Add four circle primitives for the rounded corners*
1,1,$1+$1,$2,$3*
1,1,$1+$1,$4,$5*
1,1,$1+$1,$6,$7*
1,1,$1+$1,$8,$9*
0 Add four rect primitives between the rounded corners*
20,1,$1+$1,$2,$3,$4,$5,0*
20,1,$1+$1,$4,$5,$6,$7,0*
20,1,$1+$1,$6,$7,$8,$9,0*
20,1,$1+$1,$8,$9,$2,$3,0*%
%AMHorizOval*
0 Thick line with rounded ends*
0 $1 width*
0 $2 $3 position (X,Y) of the first rounded end (center of the circle)*
0 $4 $5 position (X,Y) of the second rounded end (center of the circle)*
0 Add line between two ends*
20,1,$1,$2,$3,$4,$5,0*
0 Add two circle primitives to create the rounded ends*
1,1,$1,$2,$3*
1,1,$1,$4,$5*%
G04 Aperture macros list end*
%TA.AperFunction,SMDPad,CuDef*%
%ADD10C,1.500000*%
%TD*%
%TA.AperFunction,ComponentPad*%
%ADD11C,2.200000*%
%TD*%
%TA.AperFunction,SMDPad,CuDef*%
%ADD12RoundRect,0.250000X0.021592X-0.790275X0.491438X-0.619264X-0.021592X0.790275X-0.491438X0.619264X0*%
%TD*%
%TA.AperFunction,ComponentPad*%
%ADD13C,1.240000*%
%TD*%
%TA.AperFunction,ComponentPad*%
%ADD14HorizOval,2.000000X0.273616X0.751754X-0.273616X-0.751754X0*%
%TD*%
%TA.AperFunction,ComponentPad*%
%ADD15HorizOval,2.000000X-0.055805X0.798051X0.055805X-0.798051X0*%
%TD*%
%TA.AperFunction,ComponentPad*%
%ADD16HorizOval,2.000000X-0.375577X0.706358X0.375577X-0.706358X0*%
%TD*%
%TA.AperFunction,ComponentPad*%
%ADD17HorizOval,2.000000X-0.630409X0.492529X0.630409X-0.492529X0*%
%TD*%
%TA.AperFunction,ComponentPad*%
%ADD18HorizOval,2.000000X-0.776237X0.193538X0.776237X-0.193538X0*%
%TD*%
%TA.AperFunction,ComponentPad*%
%ADD19HorizOval,2.000000X-0.787846X-0.138919X0.787846X0.138919X0*%
%TD*%
%TA.AperFunction,ComponentPad*%
%ADD20HorizOval,2.000000X-0.663230X-0.447354X0.663230X0.447354X0*%
%TD*%
%TA.AperFunction,ComponentPad*%
%ADD21HorizOval,2.000000X-0.423935X-0.678438X0.423935X0.678438X0*%
%TD*%
%TA.AperFunction,ComponentPad*%
%ADD22HorizOval,2.000000X-0.111338X-0.792214X0.111338X0.792214X0*%
%TD*%
%TA.AperFunction,ComponentPad*%
%ADD23HorizOval,2.000000X0.220510X-0.769009X-0.220510X0.769009X0*%
%TD*%
%TA.AperFunction,ComponentPad*%
%ADD24HorizOval,2.000000X0.514230X-0.612836X-0.514230X0.612836X0*%
%TD*%
%TA.AperFunction,ComponentPad*%
%ADD25HorizOval,2.000000X0.719035X-0.350697X-0.719035X0.350697X0*%
%TD*%
%TA.AperFunction,ComponentPad*%
%ADD26HorizOval,2.000000X0.799513X-0.027920X-0.799513X0.027920X0*%
%TD*%
%TA.AperFunction,ComponentPad*%
%ADD27HorizOval,2.000000X0.741747X0.299685X-0.741747X-0.299685X0*%
%TD*%
%TA.AperFunction,ComponentPad*%
%ADD28C,3.700000*%
%TD*%
%TA.AperFunction,SMDPad,CuDef*%
%ADD29RoundRect,0.250000X0.536362X0.020994X0.286362X0.454006X-0.536362X-0.020994X-0.286362X-0.454006X0*%
%TD*%
%TA.AperFunction,SMDPad,CuDef*%
%ADD30RoundRect,0.250000X-0.536362X-0.020994X-0.286362X-0.454006X0.536362X0.020994X0.286362X0.454006X0*%
%TD*%
%TA.AperFunction,SMDPad,CuDef*%
%ADD31RoundRect,0.250000X0.145694X0.711968X-0.482158X0.543736X-0.145694X-0.711968X0.482158X-0.543736X0*%
%TD*%
%TA.AperFunction,SMDPad,CuDef*%
%ADD32RoundRect,0.250000X0.471166X-0.222281X0.425409X0.300721X-0.471166X0.222281X-0.425409X-0.300721X0*%
%TD*%
%TA.AperFunction,SMDPad,CuDef*%
%ADD33RoundRect,0.250000X0.531859X-0.072464X0.360849X0.397383X-0.531859X0.072464X-0.360849X-0.397383X0*%
%TD*%
%TA.AperFunction,SMDPad,CuDef*%
%ADD34RoundRect,0.250000X0.512642X-0.092760X0.333081X0.400578X-0.512642X0.092760X-0.333081X-0.400578X0*%
%TD*%
%TA.AperFunction,SMDPad,CuDef*%
%ADD35RoundRect,0.250000X0.258461X-0.452332X0.520961X0.002332X-0.258461X0.452332X-0.520961X-0.002332X0*%
%TD*%
%TA.AperFunction,SMDPad,CuDef*%
%ADD36RoundRect,0.250000X0.520961X-0.002332X0.258461X0.452332X-0.520961X0.002332X-0.258461X-0.452332X0*%
%TD*%
%TA.AperFunction,SMDPad,CuDef*%
%ADD37RoundRect,0.250000X1.075000X-0.312500X1.075000X0.312500X-1.075000X0.312500X-1.075000X-0.312500X0*%
%TD*%
%TA.AperFunction,SMDPad,CuDef*%
%ADD38RoundRect,0.250000X-0.520961X0.002332X-0.258461X-0.452332X0.520961X-0.002332X0.258461X0.452332X0*%
%TD*%
%TA.AperFunction,SMDPad,CuDef*%
%ADD39RoundRect,0.250000X-1.075000X0.312500X-1.075000X-0.312500X1.075000X-0.312500X1.075000X0.312500X0*%
%TD*%
%TA.AperFunction,SMDPad,CuDef*%
%ADD40RoundRect,0.250000X0.140090X0.684585X-0.463614X0.522823X-0.140090X-0.684585X0.463614X-0.522823X0*%
%TD*%
%TA.AperFunction,SMDPad,CuDef*%
%ADD41RoundRect,0.250000X0.494981X-0.207650X0.451404X0.290448X-0.494981X0.207650X-0.451404X-0.290448X0*%
%TD*%
%TA.AperFunction,SMDPad,CuDef*%
%ADD42RoundRect,0.250000X0.333081X-0.400578X0.512642X0.092760X-0.333081X0.400578X-0.512642X-0.092760X0*%
%TD*%
%TA.AperFunction,ViaPad*%
%ADD43C,0.800000*%
%TD*%
%TA.AperFunction,Conductor*%
%ADD44C,0.600000*%
%TD*%
%TA.AperFunction,Conductor*%
%ADD45C,0.750000*%
%TD*%
G04 APERTURE END LIST*
D10*
%TO.P,FD1,*%
%TO.N,*%
X101499775Y-143000000D03*
%TD*%
%TO.P,FD2,*%
%TO.N,*%
X217499775Y-27000000D03*
%TD*%
D11*
%TO.P,HV_GND,1*%
%TO.N,Board_0-GND*%
X200997975Y-106998200D03*
%TD*%
%TO.P,HV_GND,1*%
%TO.N,Board_0-GND*%
X163997975Y-106998200D03*
%TD*%
%TO.P,HV_GND,1*%
%TO.N,Board_0-GND*%
X126997975Y-107000000D03*
%TD*%
%TO.P,HV_GND,1*%
%TO.N,Board_0-GND*%
X200997975Y-69998200D03*
%TD*%
%TO.P,HV_GND,1*%
%TO.N,Board_0-GND*%
X163997975Y-69998200D03*
%TD*%
%TO.P,HV_GND,1*%
%TO.N,Board_0-GND*%
X126997975Y-70000000D03*
%TD*%
%TO.P,HV_GND,1*%
%TO.N,Board_0-GND*%
X200999775Y-32998200D03*
%TD*%
%TO.P,HV_GND,1*%
%TO.N,Board_0-GND*%
X163999775Y-32998200D03*
%TD*%
%TO.P,HV_GND,1*%
%TO.N,Board_0-GND*%
X126999775Y-33000000D03*
%TD*%
D12*
%TO.P,-HV,1*%
%TO.N,Board_2--HV*%
X189997975Y-108498200D03*
%TD*%
%TO.P,-HV,1*%
%TO.N,Board_2--HV*%
X152997975Y-108498200D03*
%TD*%
%TO.P,-HV,1*%
%TO.N,Board_2--HV*%
X115997975Y-108500000D03*
%TD*%
%TO.P,-HV,1*%
%TO.N,Board_1--HV*%
X189997975Y-71498200D03*
%TD*%
%TO.P,-HV,1*%
%TO.N,Board_1--HV*%
X152997975Y-71498200D03*
%TD*%
%TO.P,-HV,1*%
%TO.N,Board_1--HV*%
X115997975Y-71500000D03*
%TD*%
%TO.P,-HV,1*%
%TO.N,Board_0--HV*%
X189999775Y-34498200D03*
%TD*%
%TO.P,-HV,1*%
%TO.N,Board_0--HV*%
X152999775Y-34498200D03*
%TD*%
%TO.P,-HV,1*%
%TO.N,Board_0--HV*%
X115999775Y-34500000D03*
%TD*%
D13*
%TO.P,OUT,2*%
%TO.N,Board_0-GND*%
X144324975Y-134841400D03*
X144324975Y-137381400D03*
X146864975Y-134841400D03*
X146864975Y-137381400D03*
%TO.P,OUT,1*%
%TO.N,Board_7-Net-(J1-In)*%
X145594975Y-136111400D03*
%TD*%
%TO.P,OUT,2*%
%TO.N,Board_0-GND*%
X107324975Y-134843200D03*
X107324975Y-137383200D03*
X109864975Y-134843200D03*
X109864975Y-137383200D03*
%TO.P,OUT,1*%
%TO.N,Board_6-Net-(J1-In)*%
X108594975Y-136113200D03*
%TD*%
%TO.P,OUT,1*%
%TO.N,Board_8-Net-(J1-In)*%
X182594975Y-136111400D03*
%TO.P,OUT,2*%
%TO.N,Board_0-GND*%
X183864975Y-137381400D03*
X183864975Y-134841400D03*
X181324975Y-137381400D03*
X181324975Y-134841400D03*
%TD*%
%TO.P,OUT,2*%
%TO.N,Board_0-GND*%
X144324975Y-97841400D03*
X144324975Y-100381400D03*
X146864975Y-97841400D03*
X146864975Y-100381400D03*
%TO.P,OUT,1*%
%TO.N,Board_4-Net-(J1-In)*%
X145594975Y-99111400D03*
%TD*%
%TO.P,OUT,2*%
%TO.N,Board_0-GND*%
X107324975Y-97843200D03*
X107324975Y-100383200D03*
X109864975Y-97843200D03*
X109864975Y-100383200D03*
%TO.P,OUT,1*%
%TO.N,Board_3-Net-(J1-In)*%
X108594975Y-99113200D03*
%TD*%
%TO.P,OUT,1*%
%TO.N,Board_5-Net-(J1-In)*%
X182594975Y-99111400D03*
%TO.P,OUT,2*%
%TO.N,Board_0-GND*%
X183864975Y-100381400D03*
X183864975Y-97841400D03*
X181324975Y-100381400D03*
X181324975Y-97841400D03*
%TD*%
%TO.P,OUT,1*%
%TO.N,Board_2-Net-(J1-In)*%
X182596775Y-62111400D03*
%TO.P,OUT,2*%
%TO.N,Board_0-GND*%
X183866775Y-63381400D03*
X183866775Y-60841400D03*
X181326775Y-63381400D03*
X181326775Y-60841400D03*
%TD*%
%TO.P,OUT,2*%
%TO.N,Board_0-GND*%
X144326775Y-60841400D03*
X144326775Y-63381400D03*
X146866775Y-60841400D03*
X146866775Y-63381400D03*
%TO.P,OUT,1*%
%TO.N,Board_1-Net-(J1-In)*%
X145596775Y-62111400D03*
%TD*%
%TO.P,OUT,2*%
%TO.N,Board_0-GND*%
X107326775Y-60843200D03*
X107326775Y-63383200D03*
X109866775Y-60843200D03*
X109866775Y-63383200D03*
%TO.P,OUT,1*%
%TO.N,Board_0-Net-(J1-In)*%
X108596775Y-62113200D03*
%TD*%
D14*
%TO.P,U1x3,14,Dy2*%
%TO.N,Board_2-Net-(U1-Dy2)*%
X186650492Y-44221491D03*
D15*
%TO.P,U1x3,13,Dy4*%
%TO.N,Board_2-Net-(U1-Dy4)*%
X186011789Y-48546643D03*
D16*
%TO.P,U1x3,12,Dy6*%
%TO.N,Board_2-Net-(U1-Dy6)*%
X187187510Y-52757658D03*
D17*
%TO.P,U1x3,11,Dy8*%
%TO.N,Board_2-Net-(U1-Dy8)*%
X189974348Y-56126395D03*
D18*
%TO.P,U1x3,10,Dy10*%
%TO.N,Board_2-Net-(U1-Dy10)*%
X193890456Y-58070381D03*
D19*
%TO.P,U1x3,9*%
%TO.N,N/C*%
X198258681Y-58253482D03*
D20*
%TO.P,U1x3,8*%
X202323728Y-56644029D03*
D21*
%TO.P,U1x3,7,A*%
%TO.N,Board_2-Net-(J1-In)*%
X205382708Y-53520318D03*
D22*
%TO.P,U1x3,6,Dy9*%
%TO.N,Board_2-Net-(U1-Dy9)*%
X206906703Y-49422472D03*
D23*
%TO.P,U1x3,5,Dy7*%
%TO.N,Board_2-Net-(U1-Dy7)*%
X206632186Y-45059035D03*
D24*
%TO.P,U1x3,4,Dy5*%
%TO.N,Board_2-Net-(U1-Dy5)*%
X204606657Y-41184491D03*
D25*
%TO.P,U1x3,3,Dy3*%
%TO.N,Board_2-Net-(U1-Dy3)*%
X201180304Y-38468785D03*
D26*
%TO.P,U1x3,2,Dy1*%
%TO.N,Board_2-Net-(U1-Dy1)*%
X196945601Y-37381483D03*
D27*
%TO.P,U1x3,1,K*%
%TO.N,Board_0--HV*%
X192634757Y-38110592D03*
D28*
%TO.P,U1x3,*%
%TO.N,*%
X208852648Y-60384485D03*
X184062646Y-35494488D03*
%TD*%
D14*
%TO.P,U2x3,14,Dy2*%
%TO.N,Board_5-Net-(U1-Dy2)*%
X186648692Y-81221641D03*
D15*
%TO.P,U2x3,13,Dy4*%
%TO.N,Board_5-Net-(U1-Dy4)*%
X186009989Y-85546793D03*
D16*
%TO.P,U2x3,12,Dy6*%
%TO.N,Board_5-Net-(U1-Dy6)*%
X187185710Y-89757808D03*
D17*
%TO.P,U2x3,11,Dy8*%
%TO.N,Board_5-Net-(U1-Dy8)*%
X189972548Y-93126545D03*
D18*
%TO.P,U2x3,10,Dy10*%
%TO.N,Board_5-Net-(U1-Dy10)*%
X193888656Y-95070531D03*
D19*
%TO.P,U2x3,9*%
%TO.N,N/C*%
X198256881Y-95253632D03*
D20*
%TO.P,U2x3,8*%
X202321928Y-93644179D03*
D21*
%TO.P,U2x3,7,A*%
%TO.N,Board_5-Net-(J1-In)*%
X205380908Y-90520468D03*
D22*
%TO.P,U2x3,6,Dy9*%
%TO.N,Board_5-Net-(U1-Dy9)*%
X206904903Y-86422622D03*
D23*
%TO.P,U2x3,5,Dy7*%
%TO.N,Board_5-Net-(U1-Dy7)*%
X206630386Y-82059185D03*
D24*
%TO.P,U2x3,4,Dy5*%
%TO.N,Board_5-Net-(U1-Dy5)*%
X204604857Y-78184641D03*
D25*
%TO.P,U2x3,3,Dy3*%
%TO.N,Board_5-Net-(U1-Dy3)*%
X201178504Y-75468935D03*
D26*
%TO.P,U2x3,2,Dy1*%
%TO.N,Board_5-Net-(U1-Dy1)*%
X196943801Y-74381633D03*
D27*
%TO.P,U2x3,1,K*%
%TO.N,Board_1--HV*%
X192632957Y-75110742D03*
D28*
%TO.P,U2x3,*%
%TO.N,*%
X208850848Y-97384635D03*
X184060846Y-72494638D03*
%TD*%
D14*
%TO.P,U3x3,14,Dy2*%
%TO.N,Board_8-Net-(U1-Dy2)*%
X186648692Y-118221791D03*
D15*
%TO.P,U3x3,13,Dy4*%
%TO.N,Board_8-Net-(U1-Dy4)*%
X186009989Y-122546943D03*
D16*
%TO.P,U3x3,12,Dy6*%
%TO.N,Board_8-Net-(U1-Dy6)*%
X187185710Y-126757958D03*
D17*
%TO.P,U3x3,11,Dy8*%
%TO.N,Board_8-Net-(U1-Dy8)*%
X189972548Y-130126695D03*
D18*
%TO.P,U3x3,10,Dy10*%
%TO.N,Board_8-Net-(U1-Dy10)*%
X193888656Y-132070681D03*
D19*
%TO.P,U3x3,9*%
%TO.N,N/C*%
X198256881Y-132253782D03*
D20*
%TO.P,U3x3,8*%
X202321928Y-130644329D03*
D21*
%TO.P,U3x3,7,A*%
%TO.N,Board_8-Net-(J1-In)*%
X205380908Y-127520618D03*
D22*
%TO.P,U3x3,6,Dy9*%
%TO.N,Board_8-Net-(U1-Dy9)*%
X206904903Y-123422772D03*
D23*
%TO.P,U3x3,5,Dy7*%
%TO.N,Board_8-Net-(U1-Dy7)*%
X206630386Y-119059335D03*
D24*
%TO.P,U3x3,4,Dy5*%
%TO.N,Board_8-Net-(U1-Dy5)*%
X204604857Y-115184791D03*
D25*
%TO.P,U3x3,3,Dy3*%
%TO.N,Board_8-Net-(U1-Dy3)*%
X201178504Y-112469085D03*
D26*
%TO.P,U3x3,2,Dy1*%
%TO.N,Board_8-Net-(U1-Dy1)*%
X196943801Y-111381783D03*
D27*
%TO.P,U3x3,1,K*%
%TO.N,Board_2--HV*%
X192632957Y-112110892D03*
D28*
%TO.P,U3x3,*%
%TO.N,*%
X208850848Y-134384785D03*
X184060846Y-109494788D03*
%TD*%
D29*
%TO.P,C10,1*%
%TO.N,Board_0-Net-(U1-Dy9)*%
X122049925Y-53997726D03*
%TO.P,C10,2*%
%TO.N,Board_0-Net-(U1-Dy8)*%
X121099925Y-52352278D03*
%TD*%
D30*
%TO.P,C36,1*%
%TO.N,Board_3-Net-(U1-Dy8)*%
X124098125Y-84602428D03*
%TO.P,C36,2*%
%TO.N,Board_3-Net-(U1-Dy7)*%
X125048125Y-86247876D03*
%TD*%
D31*
%TO.P,C46,1*%
%TO.N,Board_4-Net-(U1-Dy1)*%
X157748016Y-69541594D03*
%TO.P,C46,2*%
%TO.N,Board_1--HV*%
X154898534Y-70305110D03*
%TD*%
D32*
%TO.P,R73,1*%
%TO.N,Board_6-Net-(U1-Dy3)*%
X117652655Y-117834330D03*
%TO.P,R73,2*%
%TO.N,Board_6-Net-(U1-Dy2)*%
X117493595Y-116016274D03*
%TD*%
D31*
%TO.P,C5,2*%
%TO.N,Board_0--HV*%
X191900484Y-33304960D03*
%TO.P,C5,1*%
%TO.N,Board_2-Net-(U1-Dy1)*%
X194749966Y-32541444D03*
%TD*%
D33*
%TO.P,C61,2*%
%TO.N,Board_5-Net-(U1-Dy6)*%
X202068508Y-82580728D03*
%TO.P,C61,1*%
%TO.N,Board_5-Net-(U1-Dy7)*%
X202718346Y-84366144D03*
%TD*%
D34*
%TO.P,R90,1*%
%TO.N,Board_7-Net-(U1-Dy7)*%
X167385368Y-120780972D03*
%TO.P,R90,2*%
%TO.N,Board_7-Net-(U1-Dy6)*%
X166761182Y-119066032D03*
%TD*%
D29*
%TO.P,C32,2*%
%TO.N,Board_2-Net-(U1-Dy9)*%
X201736816Y-50304191D03*
%TO.P,C32,1*%
%TO.N,Board_2-Net-(U1-Dy10)*%
X202686816Y-51949639D03*
%TD*%
D35*
%TO.P,R83,1*%
%TO.N,Board_0-GND*%
X153867025Y-135565113D03*
%TO.P,R83,2*%
%TO.N,Board_7-Net-(U1-Dy10)*%
X154779525Y-133984617D03*
%TD*%
D36*
%TO.P,R9,1*%
%TO.N,Board_0-Net-(U1-Dy10)*%
X127031175Y-52715250D03*
%TO.P,R9,2*%
%TO.N,Board_0-Net-(U1-Dy9)*%
X126118675Y-51134754D03*
%TD*%
%TO.P,R66,1*%
%TO.N,Board_4-Net-(U1-Dy9)*%
X157470567Y-91797053D03*
%TO.P,R66,2*%
%TO.N,Board_4-Net-(U1-Dy8)*%
X156558067Y-90216557D03*
%TD*%
%TO.P,R72,2*%
%TO.N,Board_8-Net-(U1-Dy1)*%
X196117175Y-113883254D03*
%TO.P,R72,1*%
%TO.N,Board_8-Net-(U1-Dy2)*%
X197029675Y-115463750D03*
%TD*%
D37*
%TO.P,RT6,2*%
%TO.N,Board_0-GND*%
X186871175Y-97589900D03*
%TO.P,RT6,1*%
%TO.N,Board_5-Net-(J1-In)*%
X186871175Y-100514900D03*
%TD*%
D38*
%TO.P,R39,1*%
%TO.N,Board_3-Net-(U1-Dy8)*%
X122562857Y-85602587D03*
%TO.P,R39,2*%
%TO.N,Board_3-Net-(U1-Dy7)*%
X123475357Y-87183083D03*
%TD*%
D36*
%TO.P,R64,1*%
%TO.N,Board_6-Net-(U1-Dy2)*%
X123029375Y-115465550D03*
%TO.P,R64,2*%
%TO.N,Board_6-Net-(U1-Dy1)*%
X122116875Y-113885054D03*
%TD*%
%TO.P,R45,1*%
%TO.N,Board_4-Net-(U1-Dy10)*%
X164029525Y-89713600D03*
%TO.P,R45,2*%
%TO.N,Board_4-Net-(U1-Dy9)*%
X163117025Y-88133104D03*
%TD*%
D29*
%TO.P,C21,1*%
%TO.N,Board_1-Net-(U1-Dy10)*%
X165686666Y-51949639D03*
%TO.P,C21,2*%
%TO.N,Board_1-Net-(U1-Dy9)*%
X164736666Y-50304191D03*
%TD*%
%TO.P,C66,1*%
%TO.N,Board_3-Net-(U1-Dy9)*%
X122048125Y-90997876D03*
%TO.P,C66,2*%
%TO.N,Board_3-Net-(U1-Dy8)*%
X121098125Y-89352428D03*
%TD*%
%TO.P,C22,1*%
%TO.N,Board_1-Net-(U1-Dy5)*%
X164744348Y-43275389D03*
%TO.P,C22,2*%
%TO.N,Board_1-Net-(U1-Dy4)*%
X163794348Y-41629941D03*
%TD*%
D36*
%TO.P,R30,2*%
%TO.N,Board_2-Net-(U1-Dy4)*%
X199118975Y-42632954D03*
%TO.P,R30,1*%
%TO.N,Board_2-Net-(U1-Dy5)*%
X200031475Y-44213450D03*
%TD*%
D29*
%TO.P,C73,2*%
%TO.N,Board_8-Net-(U1-Dy1)*%
X194597150Y-114784146D03*
%TO.P,C73,1*%
%TO.N,Board_8-Net-(U1-Dy2)*%
X195547150Y-116429594D03*
%TD*%
D28*
%TO.P,U2x2,*%
%TO.N,*%
X147060696Y-72494638D03*
X171850698Y-97384635D03*
D27*
%TO.P,U2x2,1,K*%
%TO.N,Board_1--HV*%
X155632807Y-75110742D03*
D26*
%TO.P,U2x2,2,Dy1*%
%TO.N,Board_4-Net-(U1-Dy1)*%
X159943651Y-74381633D03*
D25*
%TO.P,U2x2,3,Dy3*%
%TO.N,Board_4-Net-(U1-Dy3)*%
X164178354Y-75468935D03*
D24*
%TO.P,U2x2,4,Dy5*%
%TO.N,Board_4-Net-(U1-Dy5)*%
X167604707Y-78184641D03*
D23*
%TO.P,U2x2,5,Dy7*%
%TO.N,Board_4-Net-(U1-Dy7)*%
X169630236Y-82059185D03*
D22*
%TO.P,U2x2,6,Dy9*%
%TO.N,Board_4-Net-(U1-Dy9)*%
X169904753Y-86422622D03*
D21*
%TO.P,U2x2,7,A*%
%TO.N,Board_4-Net-(J1-In)*%
X168380758Y-90520468D03*
D20*
%TO.P,U2x2,8*%
%TO.N,N/C*%
X165321778Y-93644179D03*
D19*
%TO.P,U2x2,9*%
X161256731Y-95253632D03*
D18*
%TO.P,U2x2,10,Dy10*%
%TO.N,Board_4-Net-(U1-Dy10)*%
X156888506Y-95070531D03*
D17*
%TO.P,U2x2,11,Dy8*%
%TO.N,Board_4-Net-(U1-Dy8)*%
X152972398Y-93126545D03*
D16*
%TO.P,U2x2,12,Dy6*%
%TO.N,Board_4-Net-(U1-Dy6)*%
X150185560Y-89757808D03*
D15*
%TO.P,U2x2,13,Dy4*%
%TO.N,Board_4-Net-(U1-Dy4)*%
X149009839Y-85546793D03*
D14*
%TO.P,U2x2,14,Dy2*%
%TO.N,Board_4-Net-(U1-Dy2)*%
X149648542Y-81221641D03*
%TD*%
D36*
%TO.P,R36,1*%
%TO.N,Board_3-Net-(U1-Dy2)*%
X123029375Y-78465400D03*
%TO.P,R36,2*%
%TO.N,Board_3-Net-(U1-Dy1)*%
X122116875Y-76884904D03*
%TD*%
D34*
%TO.P,R32,2*%
%TO.N,Board_2-Net-(U1-Dy3)*%
X193513132Y-45315732D03*
%TO.P,R32,1*%
%TO.N,Board_2-Net-(U1-Dy4)*%
X194137318Y-47030672D03*
%TD*%
%TO.P,R12,1*%
%TO.N,Board_0-Net-(U1-Dy4)*%
X120137018Y-47032472D03*
%TO.P,R12,2*%
%TO.N,Board_0-Net-(U1-Dy3)*%
X119512832Y-45317532D03*
%TD*%
%TO.P,R81,1*%
%TO.N,Board_6-Net-(U1-Dy7)*%
X130385218Y-120782772D03*
%TO.P,R81,2*%
%TO.N,Board_6-Net-(U1-Dy6)*%
X129761032Y-119067832D03*
%TD*%
D36*
%TO.P,R68,1*%
%TO.N,Board_7-Net-(U1-Dy2)*%
X160029525Y-115463750D03*
%TO.P,R68,2*%
%TO.N,Board_7-Net-(U1-Dy1)*%
X159117025Y-113883254D03*
%TD*%
D34*
%TO.P,R22,1*%
%TO.N,Board_1-Net-(U1-Dy4)*%
X157137168Y-47030672D03*
%TO.P,R22,2*%
%TO.N,Board_1-Net-(U1-Dy3)*%
X156512982Y-45315732D03*
%TD*%
D36*
%TO.P,R13,1*%
%TO.N,Board_0-Net-(U1-Dy5)*%
X126031175Y-44215250D03*
%TO.P,R13,2*%
%TO.N,Board_0-Net-(U1-Dy4)*%
X125118675Y-42634754D03*
%TD*%
D39*
%TO.P,RT1,1*%
%TO.N,Board_0-GND*%
X112813175Y-60625300D03*
%TO.P,RT1,2*%
%TO.N,Board_0-Net-(J1-In)*%
X112813175Y-63550300D03*
%TD*%
D33*
%TO.P,C35,1*%
%TO.N,Board_3-Net-(U1-Dy7)*%
X128718046Y-84367944D03*
%TO.P,C35,2*%
%TO.N,Board_3-Net-(U1-Dy6)*%
X128068208Y-82582528D03*
%TD*%
D32*
%TO.P,R25,2*%
%TO.N,Board_2-Net-(U1-Dy2)*%
X191495695Y-42014174D03*
%TO.P,R25,1*%
%TO.N,Board_2-Net-(U1-Dy3)*%
X191654755Y-43832230D03*
%TD*%
D31*
%TO.P,C3,1*%
%TO.N,Board_1-Net-(U1-Dy1)*%
X157749816Y-32541444D03*
%TO.P,C3,2*%
%TO.N,Board_0--HV*%
X154900334Y-33304960D03*
%TD*%
D40*
%TO.P,R1,1*%
%TO.N,Board_0-Net-(U1-Dy1)*%
X121487592Y-34796479D03*
%TO.P,R1,2*%
%TO.N,Board_0--HV*%
X118662258Y-35553525D03*
%TD*%
D34*
%TO.P,R4,1*%
%TO.N,Board_0-Net-(U1-Dy7)*%
X130536868Y-46657470D03*
%TO.P,R4,2*%
%TO.N,Board_0-Net-(U1-Dy6)*%
X129912682Y-44942530D03*
%TD*%
%TO.P,R5,1*%
%TO.N,Board_0-Net-(U1-Dy6)*%
X118811868Y-51007470D03*
%TO.P,R5,2*%
%TO.N,Board_0-Net-(U1-Dy5)*%
X118187682Y-49292530D03*
%TD*%
%TO.P,R91,2*%
%TO.N,Board_8-Net-(U1-Dy5)*%
X192011332Y-123316032D03*
%TO.P,R91,1*%
%TO.N,Board_8-Net-(U1-Dy6)*%
X192635518Y-125030972D03*
%TD*%
D31*
%TO.P,C65,1*%
%TO.N,Board_6-Net-(U1-Dy1)*%
X120747866Y-106543544D03*
%TO.P,C65,2*%
%TO.N,Board_2--HV*%
X117898384Y-107307060D03*
%TD*%
D36*
%TO.P,R58,2*%
%TO.N,Board_5-Net-(U1-Dy9)*%
X200117175Y-88133104D03*
%TO.P,R58,1*%
%TO.N,Board_5-Net-(U1-Dy10)*%
X201029675Y-89713600D03*
%TD*%
%TO.P,R17,1*%
%TO.N,Board_1-Net-(U1-Dy2)*%
X160031325Y-41463450D03*
%TO.P,R17,2*%
%TO.N,Board_1-Net-(U1-Dy1)*%
X159118825Y-39882954D03*
%TD*%
D29*
%TO.P,C86,1*%
%TO.N,Board_7-Net-(U1-Dy9)*%
X159048275Y-127996226D03*
%TO.P,C86,2*%
%TO.N,Board_7-Net-(U1-Dy8)*%
X158098275Y-126350778D03*
%TD*%
%TO.P,C68,1*%
%TO.N,Board_4-Net-(U1-Dy9)*%
X159048275Y-90996076D03*
%TO.P,C68,2*%
%TO.N,Board_4-Net-(U1-Dy8)*%
X158098275Y-89350628D03*
%TD*%
D32*
%TO.P,R53,2*%
%TO.N,Board_5-Net-(U1-Dy2)*%
X191493895Y-79014324D03*
%TO.P,R53,1*%
%TO.N,Board_5-Net-(U1-Dy3)*%
X191652955Y-80832380D03*
%TD*%
D33*
%TO.P,C49,1*%
%TO.N,Board_4-Net-(U1-Dy6)*%
X153997338Y-88790399D03*
%TO.P,C49,2*%
%TO.N,Board_4-Net-(U1-Dy5)*%
X153347500Y-87004983D03*
%TD*%
D40*
%TO.P,R61,1*%
%TO.N,Board_6-Net-(U1-Dy1)*%
X121485792Y-108796779D03*
%TO.P,R61,2*%
%TO.N,Board_2--HV*%
X118660458Y-109553825D03*
%TD*%
%TO.P,R65,1*%
%TO.N,Board_7-Net-(U1-Dy1)*%
X158485942Y-108794979D03*
%TO.P,R65,2*%
%TO.N,Board_2--HV*%
X155660608Y-109552025D03*
%TD*%
D39*
%TO.P,RT4,1*%
%TO.N,Board_0-GND*%
X112862175Y-97617100D03*
%TO.P,RT4,2*%
%TO.N,Board_3-Net-(J1-In)*%
X112862175Y-100542100D03*
%TD*%
D41*
%TO.P,C37,1*%
%TO.N,Board_3-Net-(U1-Dy3)*%
X115840451Y-81000229D03*
%TO.P,C37,2*%
%TO.N,Board_3-Net-(U1-Dy2)*%
X115674855Y-79107459D03*
%TD*%
D32*
%TO.P,R38,1*%
%TO.N,Board_3-Net-(U1-Dy3)*%
X117652655Y-80834180D03*
%TO.P,R38,2*%
%TO.N,Board_3-Net-(U1-Dy2)*%
X117493595Y-79016124D03*
%TD*%
D42*
%TO.P,R67,1*%
%TO.N,Board_0-GND*%
X154190082Y-99173270D03*
%TO.P,R67,2*%
%TO.N,Board_4-Net-(U1-Dy10)*%
X154814268Y-97458330D03*
%TD*%
D40*
%TO.P,R48,1*%
%TO.N,Board_4-Net-(U1-Dy1)*%
X158485942Y-71794829D03*
%TO.P,R48,2*%
%TO.N,Board_1--HV*%
X155660608Y-72551875D03*
%TD*%
D29*
%TO.P,C74,2*%
%TO.N,Board_5-Net-(U1-Dy8)*%
X195098425Y-89350628D03*
%TO.P,C74,1*%
%TO.N,Board_5-Net-(U1-Dy9)*%
X196048425Y-90996076D03*
%TD*%
D38*
%TO.P,R29,2*%
%TO.N,Board_2-Net-(U1-Dy7)*%
X197477457Y-50181133D03*
%TO.P,R29,1*%
%TO.N,Board_2-Net-(U1-Dy8)*%
X196564957Y-48600637D03*
%TD*%
D36*
%TO.P,R49,1*%
%TO.N,Board_4-Net-(U1-Dy5)*%
X163029525Y-81213600D03*
%TO.P,R49,2*%
%TO.N,Board_4-Net-(U1-Dy4)*%
X162117025Y-79633104D03*
%TD*%
D33*
%TO.P,C43,1*%
%TO.N,Board_3-Net-(U1-Dy6)*%
X116997188Y-88792199D03*
%TO.P,C43,2*%
%TO.N,Board_3-Net-(U1-Dy5)*%
X116347350Y-87006783D03*
%TD*%
D36*
%TO.P,R89,1*%
%TO.N,Board_7-Net-(U1-Dy10)*%
X164029525Y-126713750D03*
%TO.P,R89,2*%
%TO.N,Board_7-Net-(U1-Dy9)*%
X163117025Y-125133254D03*
%TD*%
D29*
%TO.P,C70,1*%
%TO.N,Board_7-Net-(U1-Dy2)*%
X158547000Y-116429594D03*
%TO.P,C70,2*%
%TO.N,Board_7-Net-(U1-Dy1)*%
X157597000Y-114784146D03*
%TD*%
D36*
%TO.P,R31,2*%
%TO.N,Board_2-Net-(U1-Dy9)*%
X200118975Y-51132954D03*
%TO.P,R31,1*%
%TO.N,Board_2-Net-(U1-Dy10)*%
X201031475Y-52713450D03*
%TD*%
D30*
%TO.P,C82,1*%
%TO.N,Board_6-Net-(U1-Dy8)*%
X124098125Y-121602578D03*
%TO.P,C82,2*%
%TO.N,Board_6-Net-(U1-Dy7)*%
X125048125Y-123248026D03*
%TD*%
D36*
%TO.P,R19,1*%
%TO.N,Board_1-Net-(U1-Dy10)*%
X164031325Y-52713450D03*
%TO.P,R19,2*%
%TO.N,Board_1-Net-(U1-Dy9)*%
X163118825Y-51132954D03*
%TD*%
%TO.P,R8,1*%
%TO.N,Board_0-Net-(U1-Dy2)*%
X123156025Y-41315248D03*
%TO.P,R8,2*%
%TO.N,Board_0-Net-(U1-Dy1)*%
X122243525Y-39734752D03*
%TD*%
D28*
%TO.P,U2x1,*%
%TO.N,*%
X110060546Y-72496438D03*
X134850548Y-97386435D03*
D27*
%TO.P,U2x1,1,K*%
%TO.N,Board_1--HV*%
X118632657Y-75112542D03*
D26*
%TO.P,U2x1,2,Dy1*%
%TO.N,Board_3-Net-(U1-Dy1)*%
X122943501Y-74383433D03*
D25*
%TO.P,U2x1,3,Dy3*%
%TO.N,Board_3-Net-(U1-Dy3)*%
X127178204Y-75470735D03*
D24*
%TO.P,U2x1,4,Dy5*%
%TO.N,Board_3-Net-(U1-Dy5)*%
X130604557Y-78186441D03*
D23*
%TO.P,U2x1,5,Dy7*%
%TO.N,Board_3-Net-(U1-Dy7)*%
X132630086Y-82060985D03*
D22*
%TO.P,U2x1,6,Dy9*%
%TO.N,Board_3-Net-(U1-Dy9)*%
X132904603Y-86424422D03*
D21*
%TO.P,U2x1,7,A*%
%TO.N,Board_3-Net-(J1-In)*%
X131380608Y-90522268D03*
D20*
%TO.P,U2x1,8*%
%TO.N,N/C*%
X128321628Y-93645979D03*
D19*
%TO.P,U2x1,9*%
X124256581Y-95255432D03*
D18*
%TO.P,U2x1,10,Dy10*%
%TO.N,Board_3-Net-(U1-Dy10)*%
X119888356Y-95072331D03*
D17*
%TO.P,U2x1,11,Dy8*%
%TO.N,Board_3-Net-(U1-Dy8)*%
X115972248Y-93128345D03*
D16*
%TO.P,U2x1,12,Dy6*%
%TO.N,Board_3-Net-(U1-Dy6)*%
X113185410Y-89759608D03*
D15*
%TO.P,U2x1,13,Dy4*%
%TO.N,Board_3-Net-(U1-Dy4)*%
X112009689Y-85548593D03*
D14*
%TO.P,U2x1,14,Dy2*%
%TO.N,Board_3-Net-(U1-Dy2)*%
X112648392Y-81223441D03*
%TD*%
D39*
%TO.P,RT9,2*%
%TO.N,Board_8-Net-(J1-In)*%
X186820375Y-137557500D03*
%TO.P,RT9,1*%
%TO.N,Board_0-GND*%
X186820375Y-134632500D03*
%TD*%
D30*
%TO.P,C19,1*%
%TO.N,Board_1-Net-(U1-Dy8)*%
X161100075Y-47600478D03*
%TO.P,C19,2*%
%TO.N,Board_1-Net-(U1-Dy7)*%
X162050075Y-49245926D03*
%TD*%
D29*
%TO.P,C79,1*%
%TO.N,Board_6-Net-(U1-Dy9)*%
X122048125Y-127998026D03*
%TO.P,C79,2*%
%TO.N,Board_6-Net-(U1-Dy8)*%
X121098125Y-126352578D03*
%TD*%
%TO.P,C47,1*%
%TO.N,Board_4-Net-(U1-Dy10)*%
X165684866Y-88949789D03*
%TO.P,C47,2*%
%TO.N,Board_4-Net-(U1-Dy9)*%
X164734866Y-87304341D03*
%TD*%
D40*
%TO.P,R40,1*%
%TO.N,Board_3-Net-(U1-Dy1)*%
X121485792Y-71796629D03*
%TO.P,R40,2*%
%TO.N,Board_1--HV*%
X118660458Y-72553675D03*
%TD*%
D34*
%TO.P,R98,2*%
%TO.N,Board_8-Net-(U1-Dy6)*%
X203761332Y-119066032D03*
%TO.P,R98,1*%
%TO.N,Board_8-Net-(U1-Dy7)*%
X204385518Y-120780972D03*
%TD*%
D29*
%TO.P,C50,1*%
%TO.N,Board_4-Net-(U1-Dy5)*%
X164742548Y-80275539D03*
%TO.P,C50,2*%
%TO.N,Board_4-Net-(U1-Dy4)*%
X163792548Y-78630091D03*
%TD*%
%TO.P,C51,1*%
%TO.N,Board_4-Net-(U1-Dy2)*%
X158547000Y-79429444D03*
%TO.P,C51,2*%
%TO.N,Board_4-Net-(U1-Dy1)*%
X157597000Y-77783996D03*
%TD*%
D36*
%TO.P,R78,1*%
%TO.N,Board_6-Net-(U1-Dy5)*%
X126029375Y-118215550D03*
%TO.P,R78,2*%
%TO.N,Board_6-Net-(U1-Dy4)*%
X125116875Y-116635054D03*
%TD*%
%TO.P,R80,1*%
%TO.N,Board_6-Net-(U1-Dy9)*%
X120470417Y-128799003D03*
%TO.P,R80,2*%
%TO.N,Board_6-Net-(U1-Dy8)*%
X119557917Y-127218507D03*
%TD*%
D31*
%TO.P,C2,1*%
%TO.N,Board_0-Net-(U1-Dy1)*%
X120749666Y-32543244D03*
%TO.P,C2,2*%
%TO.N,Board_0--HV*%
X117900184Y-33306760D03*
%TD*%
D33*
%TO.P,C96,2*%
%TO.N,Board_8-Net-(U1-Dy3)*%
X195232688Y-118724096D03*
%TO.P,C96,1*%
%TO.N,Board_8-Net-(U1-Dy4)*%
X195882526Y-120509512D03*
%TD*%
D29*
%TO.P,C7,1*%
%TO.N,Board_0-Net-(U1-Dy5)*%
X127774775Y-43247724D03*
%TO.P,C7,2*%
%TO.N,Board_0-Net-(U1-Dy4)*%
X126824775Y-41602276D03*
%TD*%
D41*
%TO.P,C44,1*%
%TO.N,Board_4-Net-(U1-Dy3)*%
X152840601Y-80998429D03*
%TO.P,C44,2*%
%TO.N,Board_4-Net-(U1-Dy2)*%
X152675005Y-79105659D03*
%TD*%
D29*
%TO.P,C24,1*%
%TO.N,Board_1-Net-(U1-Dy9)*%
X159050075Y-53995926D03*
%TO.P,C24,2*%
%TO.N,Board_1-Net-(U1-Dy8)*%
X158100075Y-52350478D03*
%TD*%
D36*
%TO.P,R97,2*%
%TO.N,Board_8-Net-(U1-Dy4)*%
X199117175Y-116633254D03*
%TO.P,R97,1*%
%TO.N,Board_8-Net-(U1-Dy5)*%
X200029675Y-118213750D03*
%TD*%
D29*
%TO.P,C31,2*%
%TO.N,Board_2-Net-(U1-Dy8)*%
X195100225Y-52350478D03*
%TO.P,C31,1*%
%TO.N,Board_2-Net-(U1-Dy9)*%
X196050225Y-53995926D03*
%TD*%
D36*
%TO.P,R20,1*%
%TO.N,Board_1-Net-(U1-Dy5)*%
X163031325Y-44213450D03*
%TO.P,R20,2*%
%TO.N,Board_1-Net-(U1-Dy4)*%
X162118825Y-42632954D03*
%TD*%
D31*
%TO.P,C69,1*%
%TO.N,Board_7-Net-(U1-Dy1)*%
X157748016Y-106541744D03*
%TO.P,C69,2*%
%TO.N,Board_2--HV*%
X154898534Y-107305260D03*
%TD*%
D33*
%TO.P,C12,1*%
%TO.N,Board_0-Net-(U1-Dy6)*%
X116998988Y-51792049D03*
%TO.P,C12,2*%
%TO.N,Board_0-Net-(U1-Dy5)*%
X116349150Y-50006633D03*
%TD*%
D29*
%TO.P,C16,1*%
%TO.N,Board_1-Net-(U1-Dy2)*%
X158548800Y-42429294D03*
%TO.P,C16,2*%
%TO.N,Board_1-Net-(U1-Dy1)*%
X157598800Y-40783846D03*
%TD*%
%TO.P,C38,1*%
%TO.N,Board_3-Net-(U1-Dy10)*%
X128684716Y-88951589D03*
%TO.P,C38,2*%
%TO.N,Board_3-Net-(U1-Dy9)*%
X127734716Y-87306141D03*
%TD*%
D33*
%TO.P,C81,1*%
%TO.N,Board_6-Net-(U1-Dy4)*%
X121882226Y-120511312D03*
%TO.P,C81,2*%
%TO.N,Board_6-Net-(U1-Dy3)*%
X121232388Y-118725896D03*
%TD*%
D34*
%TO.P,R33,2*%
%TO.N,Board_2-Net-(U1-Dy6)*%
X203763132Y-45065732D03*
%TO.P,R33,1*%
%TO.N,Board_2-Net-(U1-Dy7)*%
X204387318Y-46780672D03*
%TD*%
D35*
%TO.P,R6,1*%
%TO.N,Board_0-GND*%
X116868675Y-61566613D03*
%TO.P,R6,2*%
%TO.N,Board_0-Net-(U1-Dy10)*%
X117781175Y-59986117D03*
%TD*%
D41*
%TO.P,C55,2*%
%TO.N,Board_5-Net-(U1-Dy2)*%
X189675155Y-79105659D03*
%TO.P,C55,1*%
%TO.N,Board_5-Net-(U1-Dy3)*%
X189840751Y-80998429D03*
%TD*%
D29*
%TO.P,C41,1*%
%TO.N,Board_3-Net-(U1-Dy2)*%
X121546850Y-79431244D03*
%TO.P,C41,2*%
%TO.N,Board_3-Net-(U1-Dy1)*%
X120596850Y-77785796D03*
%TD*%
D34*
%TO.P,R15,1*%
%TO.N,Board_1-Net-(U1-Dy6)*%
X155637168Y-51030672D03*
%TO.P,R15,2*%
%TO.N,Board_1-Net-(U1-Dy5)*%
X155012982Y-49315732D03*
%TD*%
D29*
%TO.P,C60,2*%
%TO.N,Board_5-Net-(U1-Dy4)*%
X200792698Y-78630091D03*
%TO.P,C60,1*%
%TO.N,Board_5-Net-(U1-Dy5)*%
X201742698Y-80275539D03*
%TD*%
D33*
%TO.P,C14,1*%
%TO.N,Board_0-Net-(U1-Dy7)*%
X128719846Y-47367794D03*
%TO.P,C14,2*%
%TO.N,Board_0-Net-(U1-Dy6)*%
X128070008Y-45582378D03*
%TD*%
%TO.P,C78,1*%
%TO.N,Board_6-Net-(U1-Dy6)*%
X116997188Y-125792349D03*
%TO.P,C78,2*%
%TO.N,Board_6-Net-(U1-Dy5)*%
X116347350Y-124006933D03*
%TD*%
D34*
%TO.P,R52,2*%
%TO.N,Board_5-Net-(U1-Dy5)*%
X192011332Y-86315882D03*
%TO.P,R52,1*%
%TO.N,Board_5-Net-(U1-Dy6)*%
X192635518Y-88030822D03*
%TD*%
D29*
%TO.P,C33,2*%
%TO.N,Board_2-Net-(U1-Dy1)*%
X194598950Y-40783846D03*
%TO.P,C33,1*%
%TO.N,Board_2-Net-(U1-Dy2)*%
X195548950Y-42429294D03*
%TD*%
D30*
%TO.P,C27,2*%
%TO.N,Board_2-Net-(U1-Dy7)*%
X199050225Y-49245926D03*
%TO.P,C27,1*%
%TO.N,Board_2-Net-(U1-Dy8)*%
X198100225Y-47600478D03*
%TD*%
D29*
%TO.P,C28,2*%
%TO.N,Board_2-Net-(U1-Dy4)*%
X200794498Y-41629941D03*
%TO.P,C28,1*%
%TO.N,Board_2-Net-(U1-Dy5)*%
X201744498Y-43275389D03*
%TD*%
D36*
%TO.P,R96,2*%
%TO.N,Board_8-Net-(U1-Dy8)*%
X193558217Y-127216707D03*
%TO.P,R96,1*%
%TO.N,Board_8-Net-(U1-Dy9)*%
X194470717Y-128797203D03*
%TD*%
%TO.P,R55,2*%
%TO.N,Board_5-Net-(U1-Dy1)*%
X196117175Y-76883104D03*
%TO.P,R55,1*%
%TO.N,Board_5-Net-(U1-Dy2)*%
X197029675Y-78463600D03*
%TD*%
D29*
%TO.P,C98,2*%
%TO.N,Board_8-Net-(U1-Dy9)*%
X201735016Y-124304491D03*
%TO.P,C98,1*%
%TO.N,Board_8-Net-(U1-Dy10)*%
X202685016Y-125949939D03*
%TD*%
%TO.P,C80,1*%
%TO.N,Board_6-Net-(U1-Dy5)*%
X127742398Y-117277489D03*
%TO.P,C80,2*%
%TO.N,Board_6-Net-(U1-Dy4)*%
X126792398Y-115632041D03*
%TD*%
%TO.P,C84,1*%
%TO.N,Board_7-Net-(U1-Dy10)*%
X165684866Y-125949939D03*
%TO.P,C84,2*%
%TO.N,Board_7-Net-(U1-Dy9)*%
X164734866Y-124304491D03*
%TD*%
D33*
%TO.P,C97,2*%
%TO.N,Board_8-Net-(U1-Dy6)*%
X202068508Y-119580878D03*
%TO.P,C97,1*%
%TO.N,Board_8-Net-(U1-Dy7)*%
X202718346Y-121366294D03*
%TD*%
D28*
%TO.P,U3x1,*%
%TO.N,*%
X110060546Y-109496588D03*
X134850548Y-134386585D03*
D27*
%TO.P,U3x1,1,K*%
%TO.N,Board_2--HV*%
X118632657Y-112112692D03*
D26*
%TO.P,U3x1,2,Dy1*%
%TO.N,Board_6-Net-(U1-Dy1)*%
X122943501Y-111383583D03*
D25*
%TO.P,U3x1,3,Dy3*%
%TO.N,Board_6-Net-(U1-Dy3)*%
X127178204Y-112470885D03*
D24*
%TO.P,U3x1,4,Dy5*%
%TO.N,Board_6-Net-(U1-Dy5)*%
X130604557Y-115186591D03*
D23*
%TO.P,U3x1,5,Dy7*%
%TO.N,Board_6-Net-(U1-Dy7)*%
X132630086Y-119061135D03*
D22*
%TO.P,U3x1,6,Dy9*%
%TO.N,Board_6-Net-(U1-Dy9)*%
X132904603Y-123424572D03*
D21*
%TO.P,U3x1,7,A*%
%TO.N,Board_6-Net-(J1-In)*%
X131380608Y-127522418D03*
D20*
%TO.P,U3x1,8*%
%TO.N,N/C*%
X128321628Y-130646129D03*
D19*
%TO.P,U3x1,9*%
X124256581Y-132255582D03*
D18*
%TO.P,U3x1,10,Dy10*%
%TO.N,Board_6-Net-(U1-Dy10)*%
X119888356Y-132072481D03*
D17*
%TO.P,U3x1,11,Dy8*%
%TO.N,Board_6-Net-(U1-Dy8)*%
X115972248Y-130128495D03*
D16*
%TO.P,U3x1,12,Dy6*%
%TO.N,Board_6-Net-(U1-Dy6)*%
X113185410Y-126759758D03*
D15*
%TO.P,U3x1,13,Dy4*%
%TO.N,Board_6-Net-(U1-Dy4)*%
X112009689Y-122548743D03*
D14*
%TO.P,U3x1,14,Dy2*%
%TO.N,Board_6-Net-(U1-Dy2)*%
X112648392Y-118223591D03*
%TD*%
D39*
%TO.P,RT2,1*%
%TO.N,Board_0-GND*%
X149855775Y-60699700D03*
%TO.P,RT2,2*%
%TO.N,Board_1-Net-(J1-In)*%
X149855775Y-63624700D03*
%TD*%
D33*
%TO.P,C91,1*%
%TO.N,Board_7-Net-(U1-Dy6)*%
X153997338Y-125790549D03*
%TO.P,C91,2*%
%TO.N,Board_7-Net-(U1-Dy5)*%
X153347500Y-124005133D03*
%TD*%
D32*
%TO.P,R16,1*%
%TO.N,Board_1-Net-(U1-Dy3)*%
X154654605Y-43832230D03*
%TO.P,R16,2*%
%TO.N,Board_1-Net-(U1-Dy2)*%
X154495545Y-42014174D03*
%TD*%
D29*
%TO.P,C11,1*%
%TO.N,Board_0-Net-(U1-Dy2)*%
X121548650Y-42431094D03*
%TO.P,C11,2*%
%TO.N,Board_0-Net-(U1-Dy1)*%
X120598650Y-40785646D03*
%TD*%
D28*
%TO.P,U1x1,*%
%TO.N,*%
X110062346Y-35496288D03*
X134852348Y-60386285D03*
D27*
%TO.P,U1x1,1,K*%
%TO.N,Board_0--HV*%
X118634457Y-38112392D03*
D26*
%TO.P,U1x1,2,Dy1*%
%TO.N,Board_0-Net-(U1-Dy1)*%
X122945301Y-37383283D03*
D25*
%TO.P,U1x1,3,Dy3*%
%TO.N,Board_0-Net-(U1-Dy3)*%
X127180004Y-38470585D03*
D24*
%TO.P,U1x1,4,Dy5*%
%TO.N,Board_0-Net-(U1-Dy5)*%
X130606357Y-41186291D03*
D23*
%TO.P,U1x1,5,Dy7*%
%TO.N,Board_0-Net-(U1-Dy7)*%
X132631886Y-45060835D03*
D22*
%TO.P,U1x1,6,Dy9*%
%TO.N,Board_0-Net-(U1-Dy9)*%
X132906403Y-49424272D03*
D21*
%TO.P,U1x1,7,A*%
%TO.N,Board_0-Net-(J1-In)*%
X131382408Y-53522118D03*
D20*
%TO.P,U1x1,8*%
%TO.N,N/C*%
X128323428Y-56645829D03*
D19*
%TO.P,U1x1,9*%
X124258381Y-58255282D03*
D18*
%TO.P,U1x1,10,Dy10*%
%TO.N,Board_0-Net-(U1-Dy10)*%
X119890156Y-58072181D03*
D17*
%TO.P,U1x1,11,Dy8*%
%TO.N,Board_0-Net-(U1-Dy8)*%
X115974048Y-56128195D03*
D16*
%TO.P,U1x1,12,Dy6*%
%TO.N,Board_0-Net-(U1-Dy6)*%
X113187210Y-52759458D03*
D15*
%TO.P,U1x1,13,Dy4*%
%TO.N,Board_0-Net-(U1-Dy4)*%
X112011489Y-48548443D03*
D14*
%TO.P,U1x1,14,Dy2*%
%TO.N,Board_0-Net-(U1-Dy2)*%
X112650192Y-44223291D03*
%TD*%
D33*
%TO.P,C39,1*%
%TO.N,Board_3-Net-(U1-Dy4)*%
X121882226Y-83511162D03*
%TO.P,C39,2*%
%TO.N,Board_3-Net-(U1-Dy3)*%
X121232388Y-81725746D03*
%TD*%
D41*
%TO.P,C77,1*%
%TO.N,Board_6-Net-(U1-Dy3)*%
X115840451Y-118000379D03*
%TO.P,C77,2*%
%TO.N,Board_6-Net-(U1-Dy2)*%
X115674855Y-116107609D03*
%TD*%
D29*
%TO.P,C95,2*%
%TO.N,Board_8-Net-(U1-Dy4)*%
X200792698Y-115630241D03*
%TO.P,C95,1*%
%TO.N,Board_8-Net-(U1-Dy5)*%
X201742698Y-117275689D03*
%TD*%
%TO.P,C76,1*%
%TO.N,Board_6-Net-(U1-Dy10)*%
X128684716Y-125951739D03*
%TO.P,C76,2*%
%TO.N,Board_6-Net-(U1-Dy9)*%
X127734716Y-124306291D03*
%TD*%
D41*
%TO.P,C93,2*%
%TO.N,Board_8-Net-(U1-Dy2)*%
X189675155Y-116105809D03*
%TO.P,C93,1*%
%TO.N,Board_8-Net-(U1-Dy3)*%
X189840751Y-117998579D03*
%TD*%
D33*
%TO.P,C52,1*%
%TO.N,Board_4-Net-(U1-Dy4)*%
X158882376Y-83509362D03*
%TO.P,C52,2*%
%TO.N,Board_4-Net-(U1-Dy3)*%
X158232538Y-81723946D03*
%TD*%
%TO.P,C53,1*%
%TO.N,Board_4-Net-(U1-Dy7)*%
X165718196Y-84366144D03*
%TO.P,C53,2*%
%TO.N,Board_4-Net-(U1-Dy6)*%
X165068358Y-82580728D03*
%TD*%
D30*
%TO.P,C63,2*%
%TO.N,Board_5-Net-(U1-Dy7)*%
X199048425Y-86246076D03*
%TO.P,C63,1*%
%TO.N,Board_5-Net-(U1-Dy8)*%
X198098425Y-84600628D03*
%TD*%
D34*
%TO.P,R59,2*%
%TO.N,Board_5-Net-(U1-Dy6)*%
X203761332Y-82065882D03*
%TO.P,R59,1*%
%TO.N,Board_5-Net-(U1-Dy7)*%
X204385518Y-83780822D03*
%TD*%
%TO.P,R95,2*%
%TO.N,Board_8-Net-(U1-Dy3)*%
X193511332Y-119316032D03*
%TO.P,R95,1*%
%TO.N,Board_8-Net-(U1-Dy4)*%
X194135518Y-121030972D03*
%TD*%
%TO.P,R34,1*%
%TO.N,Board_3-Net-(U1-Dy6)*%
X118635218Y-88032622D03*
%TO.P,R34,2*%
%TO.N,Board_3-Net-(U1-Dy5)*%
X118011032Y-86317682D03*
%TD*%
D33*
%TO.P,C92,2*%
%TO.N,Board_8-Net-(U1-Dy5)*%
X190347650Y-124005133D03*
%TO.P,C92,1*%
%TO.N,Board_8-Net-(U1-Dy6)*%
X190997488Y-125790549D03*
%TD*%
D32*
%TO.P,R87,1*%
%TO.N,Board_7-Net-(U1-Dy3)*%
X154652805Y-117832530D03*
%TO.P,R87,2*%
%TO.N,Board_7-Net-(U1-Dy2)*%
X154493745Y-116014474D03*
%TD*%
D36*
%TO.P,R27,2*%
%TO.N,Board_2-Net-(U1-Dy1)*%
X196118975Y-39882954D03*
%TO.P,R27,1*%
%TO.N,Board_2-Net-(U1-Dy2)*%
X197031475Y-41463450D03*
%TD*%
D28*
%TO.P,U1x2,*%
%TO.N,*%
X147062496Y-35494488D03*
X171852498Y-60384485D03*
D27*
%TO.P,U1x2,1,K*%
%TO.N,Board_0--HV*%
X155634607Y-38110592D03*
D26*
%TO.P,U1x2,2,Dy1*%
%TO.N,Board_1-Net-(U1-Dy1)*%
X159945451Y-37381483D03*
D25*
%TO.P,U1x2,3,Dy3*%
%TO.N,Board_1-Net-(U1-Dy3)*%
X164180154Y-38468785D03*
D24*
%TO.P,U1x2,4,Dy5*%
%TO.N,Board_1-Net-(U1-Dy5)*%
X167606507Y-41184491D03*
D23*
%TO.P,U1x2,5,Dy7*%
%TO.N,Board_1-Net-(U1-Dy7)*%
X169632036Y-45059035D03*
D22*
%TO.P,U1x2,6,Dy9*%
%TO.N,Board_1-Net-(U1-Dy9)*%
X169906553Y-49422472D03*
D21*
%TO.P,U1x2,7,A*%
%TO.N,Board_1-Net-(J1-In)*%
X168382558Y-53520318D03*
D20*
%TO.P,U1x2,8*%
%TO.N,N/C*%
X165323578Y-56644029D03*
D19*
%TO.P,U1x2,9*%
X161258531Y-58253482D03*
D18*
%TO.P,U1x2,10,Dy10*%
%TO.N,Board_1-Net-(U1-Dy10)*%
X156890306Y-58070381D03*
D17*
%TO.P,U1x2,11,Dy8*%
%TO.N,Board_1-Net-(U1-Dy8)*%
X152974198Y-56126395D03*
D16*
%TO.P,U1x2,12,Dy6*%
%TO.N,Board_1-Net-(U1-Dy6)*%
X150187360Y-52757658D03*
D15*
%TO.P,U1x2,13,Dy4*%
%TO.N,Board_1-Net-(U1-Dy4)*%
X149011639Y-48546643D03*
D14*
%TO.P,U1x2,14,Dy2*%
%TO.N,Board_1-Net-(U1-Dy2)*%
X149650342Y-44221491D03*
%TD*%
D29*
%TO.P,C67,1*%
%TO.N,Board_6-Net-(U1-Dy2)*%
X121546850Y-116431394D03*
%TO.P,C67,2*%
%TO.N,Board_6-Net-(U1-Dy1)*%
X120596850Y-114785946D03*
%TD*%
D34*
%TO.P,R77,1*%
%TO.N,Board_6-Net-(U1-Dy4)*%
X120135218Y-121032772D03*
%TO.P,R77,2*%
%TO.N,Board_6-Net-(U1-Dy3)*%
X119511032Y-119317832D03*
%TD*%
D29*
%TO.P,C40,1*%
%TO.N,Board_3-Net-(U1-Dy5)*%
X127742398Y-80277339D03*
%TO.P,C40,2*%
%TO.N,Board_3-Net-(U1-Dy4)*%
X126792398Y-78631891D03*
%TD*%
D34*
%TO.P,R24,2*%
%TO.N,Board_2-Net-(U1-Dy5)*%
X192013132Y-49315732D03*
%TO.P,R24,1*%
%TO.N,Board_2-Net-(U1-Dy6)*%
X192637318Y-51030672D03*
%TD*%
D31*
%TO.P,C59,2*%
%TO.N,Board_1--HV*%
X191898684Y-70305110D03*
%TO.P,C59,1*%
%TO.N,Board_5-Net-(U1-Dy1)*%
X194748166Y-69541594D03*
%TD*%
D38*
%TO.P,R86,1*%
%TO.N,Board_7-Net-(U1-Dy8)*%
X159563007Y-122600937D03*
%TO.P,R86,2*%
%TO.N,Board_7-Net-(U1-Dy7)*%
X160475507Y-124181433D03*
%TD*%
D35*
%TO.P,R74,1*%
%TO.N,Board_0-GND*%
X116866875Y-135566913D03*
%TO.P,R74,2*%
%TO.N,Board_6-Net-(U1-Dy10)*%
X117779375Y-133986417D03*
%TD*%
D38*
%TO.P,R7,1*%
%TO.N,Board_0-Net-(U1-Dy8)*%
X122468525Y-48684752D03*
%TO.P,R7,2*%
%TO.N,Board_0-Net-(U1-Dy7)*%
X123381025Y-50265248D03*
%TD*%
%TO.P,R94,2*%
%TO.N,Board_8-Net-(U1-Dy7)*%
X197475657Y-124181433D03*
%TO.P,R94,1*%
%TO.N,Board_8-Net-(U1-Dy8)*%
X196563157Y-122600937D03*
%TD*%
D29*
%TO.P,C58,2*%
%TO.N,Board_5-Net-(U1-Dy9)*%
X201735016Y-87304341D03*
%TO.P,C58,1*%
%TO.N,Board_5-Net-(U1-Dy10)*%
X202685016Y-88949789D03*
%TD*%
D34*
%TO.P,R84,1*%
%TO.N,Board_7-Net-(U1-Dy6)*%
X155635368Y-125030972D03*
%TO.P,R84,2*%
%TO.N,Board_7-Net-(U1-Dy5)*%
X155011182Y-123316032D03*
%TD*%
D36*
%TO.P,R85,1*%
%TO.N,Board_7-Net-(U1-Dy5)*%
X163029525Y-118213750D03*
%TO.P,R85,2*%
%TO.N,Board_7-Net-(U1-Dy4)*%
X162117025Y-116633254D03*
%TD*%
D34*
%TO.P,R79,1*%
%TO.N,Board_6-Net-(U1-Dy6)*%
X118635218Y-125032772D03*
%TO.P,R79,2*%
%TO.N,Board_6-Net-(U1-Dy5)*%
X118011032Y-123317832D03*
%TD*%
D35*
%TO.P,R23,2*%
%TO.N,Board_2-Net-(U1-Dy10)*%
X191317025Y-60254352D03*
%TO.P,R23,1*%
%TO.N,Board_0-GND*%
X190404525Y-61834848D03*
%TD*%
D38*
%TO.P,R54,2*%
%TO.N,Board_5-Net-(U1-Dy7)*%
X197475657Y-87181283D03*
%TO.P,R54,1*%
%TO.N,Board_5-Net-(U1-Dy8)*%
X196563157Y-85600787D03*
%TD*%
%TO.P,R14,1*%
%TO.N,Board_1-Net-(U1-Dy8)*%
X159564807Y-48600637D03*
%TO.P,R14,2*%
%TO.N,Board_1-Net-(U1-Dy7)*%
X160477307Y-50181133D03*
%TD*%
%TO.P,R76,1*%
%TO.N,Board_6-Net-(U1-Dy8)*%
X122562857Y-122602737D03*
%TO.P,R76,2*%
%TO.N,Board_6-Net-(U1-Dy7)*%
X123475357Y-124183233D03*
%TD*%
D35*
%TO.P,R21,1*%
%TO.N,Board_0-GND*%
X153565125Y-61911048D03*
%TO.P,R21,2*%
%TO.N,Board_1-Net-(U1-Dy10)*%
X154477625Y-60330552D03*
%TD*%
D34*
%TO.P,R44,1*%
%TO.N,Board_4-Net-(U1-Dy6)*%
X155635368Y-88030822D03*
%TO.P,R44,2*%
%TO.N,Board_4-Net-(U1-Dy5)*%
X155011182Y-86315882D03*
%TD*%
D30*
%TO.P,C94,2*%
%TO.N,Board_8-Net-(U1-Dy7)*%
X199048425Y-123246226D03*
%TO.P,C94,1*%
%TO.N,Board_8-Net-(U1-Dy8)*%
X198098425Y-121600778D03*
%TD*%
D40*
%TO.P,R2,1*%
%TO.N,Board_1-Net-(U1-Dy1)*%
X158487742Y-34794679D03*
%TO.P,R2,2*%
%TO.N,Board_0--HV*%
X155662408Y-35551725D03*
%TD*%
D30*
%TO.P,C9,1*%
%TO.N,Board_0-Net-(U1-Dy8)*%
X124099925Y-47602278D03*
%TO.P,C9,2*%
%TO.N,Board_0-Net-(U1-Dy7)*%
X125049925Y-49247726D03*
%TD*%
D34*
%TO.P,R37,1*%
%TO.N,Board_3-Net-(U1-Dy4)*%
X120135218Y-84032622D03*
%TO.P,R37,2*%
%TO.N,Board_3-Net-(U1-Dy3)*%
X119511032Y-82317682D03*
%TD*%
D42*
%TO.P,R69,2*%
%TO.N,Board_5-Net-(U1-Dy10)*%
X191907668Y-97026530D03*
%TO.P,R69,1*%
%TO.N,Board_0-GND*%
X191283482Y-98741470D03*
%TD*%
D29*
%TO.P,C8,1*%
%TO.N,Board_0-Net-(U1-Dy10)*%
X128799775Y-51822724D03*
%TO.P,C8,2*%
%TO.N,Board_0-Net-(U1-Dy9)*%
X127849775Y-50177276D03*
%TD*%
D41*
%TO.P,C25,2*%
%TO.N,Board_2-Net-(U1-Dy2)*%
X189676955Y-42105509D03*
%TO.P,C25,1*%
%TO.N,Board_2-Net-(U1-Dy3)*%
X189842551Y-43998279D03*
%TD*%
D38*
%TO.P,R43,1*%
%TO.N,Board_4-Net-(U1-Dy8)*%
X159563007Y-85600787D03*
%TO.P,R43,2*%
%TO.N,Board_4-Net-(U1-Dy7)*%
X160475507Y-87181283D03*
%TD*%
D39*
%TO.P,RT8,1*%
%TO.N,Board_0-GND*%
X149803175Y-134657900D03*
%TO.P,RT8,2*%
%TO.N,Board_7-Net-(J1-In)*%
X149803175Y-137582900D03*
%TD*%
D36*
%TO.P,R60,2*%
%TO.N,Board_5-Net-(U1-Dy4)*%
X199117175Y-79633104D03*
%TO.P,R60,1*%
%TO.N,Board_5-Net-(U1-Dy5)*%
X200029675Y-81213600D03*
%TD*%
D33*
%TO.P,C88,1*%
%TO.N,Board_7-Net-(U1-Dy4)*%
X158882376Y-120509512D03*
%TO.P,C88,2*%
%TO.N,Board_7-Net-(U1-Dy3)*%
X158232538Y-118724096D03*
%TD*%
D41*
%TO.P,C90,1*%
%TO.N,Board_7-Net-(U1-Dy3)*%
X152840601Y-117998579D03*
%TO.P,C90,2*%
%TO.N,Board_7-Net-(U1-Dy2)*%
X152675005Y-116105809D03*
%TD*%
D40*
%TO.P,R71,2*%
%TO.N,Board_2--HV*%
X192660758Y-109552025D03*
%TO.P,R71,1*%
%TO.N,Board_8-Net-(U1-Dy1)*%
X195486092Y-108794979D03*
%TD*%
D33*
%TO.P,C54,2*%
%TO.N,Board_5-Net-(U1-Dy5)*%
X190347650Y-87004983D03*
%TO.P,C54,1*%
%TO.N,Board_5-Net-(U1-Dy6)*%
X190997488Y-88790399D03*
%TD*%
%TO.P,C26,2*%
%TO.N,Board_2-Net-(U1-Dy5)*%
X190349450Y-50004833D03*
%TO.P,C26,1*%
%TO.N,Board_2-Net-(U1-Dy6)*%
X190999288Y-51790249D03*
%TD*%
D35*
%TO.P,R62,1*%
%TO.N,Board_0-GND*%
X116866875Y-98566763D03*
%TO.P,R62,2*%
%TO.N,Board_3-Net-(U1-Dy10)*%
X117779375Y-96986267D03*
%TD*%
D30*
%TO.P,C89,1*%
%TO.N,Board_7-Net-(U1-Dy8)*%
X161098275Y-121600778D03*
%TO.P,C89,2*%
%TO.N,Board_7-Net-(U1-Dy7)*%
X162048275Y-123246226D03*
%TD*%
D36*
%TO.P,R63,1*%
%TO.N,Board_3-Net-(U1-Dy9)*%
X120470417Y-91798853D03*
%TO.P,R63,2*%
%TO.N,Board_3-Net-(U1-Dy8)*%
X119557917Y-90218357D03*
%TD*%
%TO.P,R99,2*%
%TO.N,Board_8-Net-(U1-Dy9)*%
X200117175Y-125133254D03*
%TO.P,R99,1*%
%TO.N,Board_8-Net-(U1-Dy10)*%
X201029675Y-126713750D03*
%TD*%
D35*
%TO.P,R93,2*%
%TO.N,Board_8-Net-(U1-Dy10)*%
X191779675Y-133984617D03*
%TO.P,R93,1*%
%TO.N,Board_0-GND*%
X190867175Y-135565113D03*
%TD*%
D32*
%TO.P,R11,1*%
%TO.N,Board_0-Net-(U1-Dy3)*%
X117804305Y-43884028D03*
%TO.P,R11,2*%
%TO.N,Board_0-Net-(U1-Dy2)*%
X117645245Y-42065972D03*
%TD*%
D33*
%TO.P,C83,1*%
%TO.N,Board_6-Net-(U1-Dy7)*%
X128718046Y-121368094D03*
%TO.P,C83,2*%
%TO.N,Board_6-Net-(U1-Dy6)*%
X128068208Y-119582678D03*
%TD*%
D40*
%TO.P,R3,2*%
%TO.N,Board_0--HV*%
X192662558Y-35551725D03*
%TO.P,R3,1*%
%TO.N,Board_2-Net-(U1-Dy1)*%
X195487892Y-34794679D03*
%TD*%
D32*
%TO.P,R50,1*%
%TO.N,Board_4-Net-(U1-Dy3)*%
X154652805Y-80832380D03*
%TO.P,R50,2*%
%TO.N,Board_4-Net-(U1-Dy2)*%
X154493745Y-79014324D03*
%TD*%
D36*
%TO.P,R75,1*%
%TO.N,Board_6-Net-(U1-Dy10)*%
X127029375Y-126715550D03*
%TO.P,R75,2*%
%TO.N,Board_6-Net-(U1-Dy9)*%
X126116875Y-125135054D03*
%TD*%
%TO.P,R70,2*%
%TO.N,Board_5-Net-(U1-Dy8)*%
X193558217Y-90216557D03*
%TO.P,R70,1*%
%TO.N,Board_5-Net-(U1-Dy9)*%
X194470717Y-91797053D03*
%TD*%
D32*
%TO.P,R92,2*%
%TO.N,Board_8-Net-(U1-Dy2)*%
X191493895Y-116014474D03*
%TO.P,R92,1*%
%TO.N,Board_8-Net-(U1-Dy3)*%
X191652955Y-117832530D03*
%TD*%
D31*
%TO.P,C42,1*%
%TO.N,Board_3-Net-(U1-Dy1)*%
X120747866Y-69543394D03*
%TO.P,C42,2*%
%TO.N,Board_1--HV*%
X117898384Y-70306910D03*
%TD*%
D34*
%TO.P,R57,2*%
%TO.N,Board_5-Net-(U1-Dy3)*%
X193511332Y-82315882D03*
%TO.P,R57,1*%
%TO.N,Board_5-Net-(U1-Dy4)*%
X194135518Y-84030822D03*
%TD*%
D31*
%TO.P,C75,2*%
%TO.N,Board_2--HV*%
X191898684Y-107305260D03*
%TO.P,C75,1*%
%TO.N,Board_8-Net-(U1-Dy1)*%
X194748166Y-106541744D03*
%TD*%
D39*
%TO.P,RT5,1*%
%TO.N,Board_0-GND*%
X149879375Y-97691500D03*
%TO.P,RT5,2*%
%TO.N,Board_4-Net-(J1-In)*%
X149879375Y-100616500D03*
%TD*%
D33*
%TO.P,C18,1*%
%TO.N,Board_1-Net-(U1-Dy4)*%
X158884176Y-46509212D03*
%TO.P,C18,2*%
%TO.N,Board_1-Net-(U1-Dy3)*%
X158234338Y-44723796D03*
%TD*%
D29*
%TO.P,C85,1*%
%TO.N,Board_7-Net-(U1-Dy5)*%
X164742548Y-117275689D03*
%TO.P,C85,2*%
%TO.N,Board_7-Net-(U1-Dy4)*%
X163792548Y-115630241D03*
%TD*%
D33*
%TO.P,C29,2*%
%TO.N,Board_2-Net-(U1-Dy3)*%
X195234488Y-44723796D03*
%TO.P,C29,1*%
%TO.N,Board_2-Net-(U1-Dy4)*%
X195884326Y-46509212D03*
%TD*%
D41*
%TO.P,C23,1*%
%TO.N,Board_1-Net-(U1-Dy3)*%
X152842401Y-43998279D03*
%TO.P,C23,2*%
%TO.N,Board_1-Net-(U1-Dy2)*%
X152676805Y-42105509D03*
%TD*%
D34*
%TO.P,R51,1*%
%TO.N,Board_4-Net-(U1-Dy7)*%
X167385368Y-83780822D03*
%TO.P,R51,2*%
%TO.N,Board_4-Net-(U1-Dy6)*%
X166761182Y-82065882D03*
%TD*%
D36*
%TO.P,R82,1*%
%TO.N,Board_7-Net-(U1-Dy9)*%
X157470567Y-128797203D03*
%TO.P,R82,2*%
%TO.N,Board_7-Net-(U1-Dy8)*%
X156558067Y-127216707D03*
%TD*%
D29*
%TO.P,C56,2*%
%TO.N,Board_5-Net-(U1-Dy1)*%
X194597150Y-77783996D03*
%TO.P,C56,1*%
%TO.N,Board_5-Net-(U1-Dy2)*%
X195547150Y-79429444D03*
%TD*%
D33*
%TO.P,C15,1*%
%TO.N,Board_0-Net-(U1-Dy4)*%
X121974694Y-46367708D03*
%TO.P,C15,2*%
%TO.N,Board_0-Net-(U1-Dy3)*%
X121324856Y-44582292D03*
%TD*%
D40*
%TO.P,R56,2*%
%TO.N,Board_1--HV*%
X192660758Y-72551875D03*
%TO.P,R56,1*%
%TO.N,Board_5-Net-(U1-Dy1)*%
X195486092Y-71794829D03*
%TD*%
D36*
%TO.P,R35,1*%
%TO.N,Board_3-Net-(U1-Dy5)*%
X126029375Y-81215400D03*
%TO.P,R35,2*%
%TO.N,Board_3-Net-(U1-Dy4)*%
X125116875Y-79634904D03*
%TD*%
D34*
%TO.P,R47,1*%
%TO.N,Board_4-Net-(U1-Dy4)*%
X157135368Y-84030822D03*
%TO.P,R47,2*%
%TO.N,Board_4-Net-(U1-Dy3)*%
X156511182Y-82315882D03*
%TD*%
D39*
%TO.P,RT3,2*%
%TO.N,Board_2-Net-(J1-In)*%
X186822175Y-63624700D03*
%TO.P,RT3,1*%
%TO.N,Board_0-GND*%
X186822175Y-60699700D03*
%TD*%
D29*
%TO.P,C99,2*%
%TO.N,Board_8-Net-(U1-Dy8)*%
X195098425Y-126350778D03*
%TO.P,C99,1*%
%TO.N,Board_8-Net-(U1-Dy9)*%
X196048425Y-127996226D03*
%TD*%
D30*
%TO.P,C48,1*%
%TO.N,Board_4-Net-(U1-Dy8)*%
X161098275Y-84600628D03*
%TO.P,C48,2*%
%TO.N,Board_4-Net-(U1-Dy7)*%
X162048275Y-86246076D03*
%TD*%
D36*
%TO.P,R46,1*%
%TO.N,Board_4-Net-(U1-Dy2)*%
X160029525Y-78463600D03*
%TO.P,R46,2*%
%TO.N,Board_4-Net-(U1-Dy1)*%
X159117025Y-76883104D03*
%TD*%
%TO.P,R10,1*%
%TO.N,Board_0-Net-(U1-Dy9)*%
X120331025Y-54940248D03*
%TO.P,R10,2*%
%TO.N,Board_0-Net-(U1-Dy8)*%
X119418525Y-53359752D03*
%TD*%
D34*
%TO.P,R26,1*%
%TO.N,Board_1-Net-(U1-Dy7)*%
X167387168Y-46780672D03*
%TO.P,R26,2*%
%TO.N,Board_1-Net-(U1-Dy6)*%
X166762982Y-45065732D03*
%TD*%
D33*
%TO.P,C30,2*%
%TO.N,Board_2-Net-(U1-Dy6)*%
X202070308Y-45580578D03*
%TO.P,C30,1*%
%TO.N,Board_2-Net-(U1-Dy7)*%
X202720146Y-47365994D03*
%TD*%
%TO.P,C20,1*%
%TO.N,Board_1-Net-(U1-Dy6)*%
X153999138Y-51790249D03*
%TO.P,C20,2*%
%TO.N,Board_1-Net-(U1-Dy5)*%
X153349300Y-50004833D03*
%TD*%
%TO.P,C87,1*%
%TO.N,Board_7-Net-(U1-Dy7)*%
X165718196Y-121366294D03*
%TO.P,C87,2*%
%TO.N,Board_7-Net-(U1-Dy6)*%
X165068358Y-119580878D03*
%TD*%
%TO.P,C62,2*%
%TO.N,Board_5-Net-(U1-Dy3)*%
X195232688Y-81723946D03*
%TO.P,C62,1*%
%TO.N,Board_5-Net-(U1-Dy4)*%
X195882526Y-83509362D03*
%TD*%
D36*
%TO.P,R18,1*%
%TO.N,Board_1-Net-(U1-Dy9)*%
X157472367Y-54796903D03*
%TO.P,R18,2*%
%TO.N,Board_1-Net-(U1-Dy8)*%
X156559867Y-53216407D03*
%TD*%
D41*
%TO.P,C13,1*%
%TO.N,Board_0-Net-(U1-Dy3)*%
X115842251Y-44000079D03*
%TO.P,C13,2*%
%TO.N,Board_0-Net-(U1-Dy2)*%
X115676655Y-42107309D03*
%TD*%
D33*
%TO.P,C17,1*%
%TO.N,Board_1-Net-(U1-Dy7)*%
X165719996Y-47365994D03*
%TO.P,C17,2*%
%TO.N,Board_1-Net-(U1-Dy6)*%
X165070158Y-45580578D03*
%TD*%
D39*
%TO.P,RT7,1*%
%TO.N,Board_0-GND*%
X113014575Y-134634300D03*
%TO.P,RT7,2*%
%TO.N,Board_6-Net-(J1-In)*%
X113014575Y-137559300D03*
%TD*%
D28*
%TO.P,U3x2,*%
%TO.N,*%
X147060696Y-109494788D03*
X171850698Y-134384785D03*
D27*
%TO.P,U3x2,1,K*%
%TO.N,Board_2--HV*%
X155632807Y-112110892D03*
D26*
%TO.P,U3x2,2,Dy1*%
%TO.N,Board_7-Net-(U1-Dy1)*%
X159943651Y-111381783D03*
D25*
%TO.P,U3x2,3,Dy3*%
%TO.N,Board_7-Net-(U1-Dy3)*%
X164178354Y-112469085D03*
D24*
%TO.P,U3x2,4,Dy5*%
%TO.N,Board_7-Net-(U1-Dy5)*%
X167604707Y-115184791D03*
D23*
%TO.P,U3x2,5,Dy7*%
%TO.N,Board_7-Net-(U1-Dy7)*%
X169630236Y-119059335D03*
D22*
%TO.P,U3x2,6,Dy9*%
%TO.N,Board_7-Net-(U1-Dy9)*%
X169904753Y-123422772D03*
D21*
%TO.P,U3x2,7,A*%
%TO.N,Board_7-Net-(J1-In)*%
X168380758Y-127520618D03*
D20*
%TO.P,U3x2,8*%
%TO.N,N/C*%
X165321778Y-130644329D03*
D19*
%TO.P,U3x2,9*%
X161256731Y-132253782D03*
D18*
%TO.P,U3x2,10,Dy10*%
%TO.N,Board_7-Net-(U1-Dy10)*%
X156888506Y-132070681D03*
D17*
%TO.P,U3x2,11,Dy8*%
%TO.N,Board_7-Net-(U1-Dy8)*%
X152972398Y-130126695D03*
D16*
%TO.P,U3x2,12,Dy6*%
%TO.N,Board_7-Net-(U1-Dy6)*%
X150185560Y-126757958D03*
D15*
%TO.P,U3x2,13,Dy4*%
%TO.N,Board_7-Net-(U1-Dy4)*%
X149009839Y-122546943D03*
D14*
%TO.P,U3x2,14,Dy2*%
%TO.N,Board_7-Net-(U1-Dy2)*%
X149648542Y-118221791D03*
%TD*%
D36*
%TO.P,R42,1*%
%TO.N,Board_3-Net-(U1-Dy10)*%
X127029375Y-89715400D03*
%TO.P,R42,2*%
%TO.N,Board_3-Net-(U1-Dy9)*%
X126116875Y-88134904D03*
%TD*%
D34*
%TO.P,R88,1*%
%TO.N,Board_7-Net-(U1-Dy4)*%
X157135368Y-121030972D03*
%TO.P,R88,2*%
%TO.N,Board_7-Net-(U1-Dy3)*%
X156511182Y-119316032D03*
%TD*%
%TO.P,R41,1*%
%TO.N,Board_3-Net-(U1-Dy7)*%
X130385218Y-83782622D03*
%TO.P,R41,2*%
%TO.N,Board_3-Net-(U1-Dy6)*%
X129761032Y-82067682D03*
%TD*%
D36*
%TO.P,R28,2*%
%TO.N,Board_2-Net-(U1-Dy8)*%
X193560017Y-53216407D03*
%TO.P,R28,1*%
%TO.N,Board_2-Net-(U1-Dy9)*%
X194472517Y-54796903D03*
%TD*%
D43*
%TO.N,Board_0-GND*%
X192662375Y-99408000D03*
X191749793Y-62593991D03*
X155160335Y-62422715D03*
X118145375Y-136325400D03*
X155137175Y-136273200D03*
X192179775Y-136399800D03*
X118121765Y-62265605D03*
X155645175Y-99541500D03*
X118119975Y-99308200D03*
%TO.N,Board_0-Net-(U1-Dy3)*%
X117574925Y-45175002D03*
%TO.N,Board_0-Net-(U1-Dy5)*%
X115074925Y-50425002D03*
%TO.N,Board_0-Net-(U1-Dy6)*%
X125824925Y-46675002D03*
%TO.N,Board_1-Net-(U1-Dy3)*%
X154575075Y-45173202D03*
%TO.N,Board_1-Net-(U1-Dy5)*%
X152075075Y-50423202D03*
%TO.N,Board_1-Net-(U1-Dy6)*%
X162825075Y-46673202D03*
%TO.N,Board_2-Net-(U1-Dy3)*%
X191575225Y-45173202D03*
%TO.N,Board_2-Net-(U1-Dy5)*%
X189075225Y-50423202D03*
%TO.N,Board_2-Net-(U1-Dy6)*%
X199825225Y-46673202D03*
%TO.N,Board_3-Net-(U1-Dy3)*%
X117573125Y-82175152D03*
%TO.N,Board_3-Net-(U1-Dy5)*%
X115073125Y-87425152D03*
%TO.N,Board_3-Net-(U1-Dy6)*%
X125823125Y-83675152D03*
%TO.N,Board_4-Net-(U1-Dy3)*%
X154573275Y-82173352D03*
%TO.N,Board_4-Net-(U1-Dy5)*%
X152073275Y-87423352D03*
%TO.N,Board_4-Net-(U1-Dy6)*%
X162823275Y-83673352D03*
%TO.N,Board_5-Net-(U1-Dy3)*%
X191573425Y-82173352D03*
%TO.N,Board_5-Net-(U1-Dy5)*%
X189073425Y-87423352D03*
%TO.N,Board_5-Net-(U1-Dy6)*%
X199823425Y-83673352D03*
%TO.N,Board_6-Net-(U1-Dy3)*%
X117573125Y-119175302D03*
%TO.N,Board_6-Net-(U1-Dy5)*%
X115073125Y-124425302D03*
%TO.N,Board_6-Net-(U1-Dy6)*%
X125823125Y-120675302D03*
%TO.N,Board_7-Net-(U1-Dy3)*%
X154573275Y-119173502D03*
%TO.N,Board_7-Net-(U1-Dy5)*%
X152073275Y-124423502D03*
%TO.N,Board_7-Net-(U1-Dy6)*%
X162823275Y-120673502D03*
%TO.N,Board_8-Net-(U1-Dy3)*%
X191573425Y-119173502D03*
%TO.N,Board_8-Net-(U1-Dy5)*%
X189073425Y-124423502D03*
%TO.N,Board_8-Net-(U1-Dy6)*%
X199823425Y-120673502D03*
%TD*%
D44*
%TO.N,Board_2--HV*%
X192660762Y-109552021D02*
G75*
G03*
X190116600Y-108498200I-2544162J-2544179D01*
G01*
X189997975Y-108498200D02*
X190116600Y-108498200D01*
X152997975Y-108498200D02*
X153116450Y-108498200D01*
X155660637Y-109551996D02*
G75*
G03*
X153116450Y-108498200I-2544137J-2544204D01*
G01*
X118660462Y-109553821D02*
G75*
G03*
X116116300Y-108500000I-2544162J-2544179D01*
G01*
X115997975Y-108500000D02*
X116116300Y-108500000D01*
%TO.N,Board_1--HV*%
X192660783Y-72551850D02*
G75*
G03*
X190116962Y-71498200I-2543783J-2543850D01*
G01*
X189997975Y-71498200D02*
X190116962Y-71498200D01*
X155660608Y-72551875D02*
G75*
G03*
X153116812Y-71498200I-2543808J-2543825D01*
G01*
X152997975Y-71498200D02*
X153116812Y-71498200D01*
X118660483Y-72553650D02*
G75*
G03*
X116116662Y-71500000I-2543783J-2543850D01*
G01*
X115997975Y-71500000D02*
X116116662Y-71500000D01*
%TO.N,Board_0--HV*%
X192662555Y-35551728D02*
G75*
G03*
X190119124Y-34498200I-2543455J-2543472D01*
G01*
X189999775Y-34498200D02*
X190119124Y-34498200D01*
X155662430Y-35551703D02*
G75*
G03*
X153118974Y-34498200I-2543430J-2543497D01*
G01*
X152999775Y-34498200D02*
X153118974Y-34498200D01*
X118662255Y-35553528D02*
G75*
G03*
X116118824Y-34500000I-2543455J-2543472D01*
G01*
X115999775Y-34500000D02*
X116118824Y-34500000D01*
%TO.N,Board_8-Net-(J1-In)*%
X186820375Y-137457136D02*
X186820375Y-137557500D01*
X186413944Y-136476031D02*
G75*
G03*
X185533753Y-136111400I-880244J-880169D01*
G01*
X182594975Y-136111400D02*
X185533753Y-136111400D01*
X186820337Y-137457136D02*
G75*
G03*
X186413974Y-136476001I-1387537J36D01*
G01*
%TO.N,Board_7-Net-(J1-In)*%
X149803178Y-137582900D02*
G75*
G03*
X149451529Y-136733956I-1200578J0D01*
G01*
X149168175Y-136450600D02*
X149451530Y-136733955D01*
X149168188Y-136450587D02*
G75*
G03*
X148349274Y-136111400I-818888J-818913D01*
G01*
X145594975Y-136111400D02*
X148349274Y-136111400D01*
%TO.N,Board_6-Net-(J1-In)*%
X112455782Y-136426993D02*
G75*
G03*
X111698195Y-136113200I-757582J-757607D01*
G01*
X108594975Y-136113200D02*
X111698195Y-136113200D01*
X112455775Y-136427000D02*
X112609049Y-136580274D01*
X113014568Y-137559300D02*
G75*
G03*
X112609049Y-136580274I-1384568J0D01*
G01*
%TO.N,Board_5-Net-(J1-In)*%
X186871175Y-100230573D02*
X186871175Y-100514900D01*
X186871193Y-100230573D02*
G75*
G03*
X186540975Y-99433400I-1127393J-27D01*
G01*
X186540981Y-99433394D02*
G75*
G03*
X185763599Y-99111400I-777381J-777406D01*
G01*
X182594975Y-99111400D02*
X185763599Y-99111400D01*
%TO.N,Board_4-Net-(J1-In)*%
X149879365Y-100616500D02*
G75*
G03*
X149653454Y-100071079I-771365J0D01*
G01*
X149015775Y-99433400D02*
X149653454Y-100071079D01*
X149015781Y-99433394D02*
G75*
G03*
X148238399Y-99111400I-777381J-777406D01*
G01*
X145594975Y-99111400D02*
X148238399Y-99111400D01*
%TO.N,Board_3-Net-(J1-In)*%
X112023975Y-99384400D02*
X112636254Y-99996679D01*
X112023948Y-99384427D02*
G75*
G03*
X111369241Y-99113200I-654748J-654673D01*
G01*
X112862165Y-100542100D02*
G75*
G03*
X112636254Y-99996679I-771365J0D01*
G01*
X108594975Y-99113200D02*
X111369241Y-99113200D01*
%TO.N,Board_2-Net-(J1-In)*%
X186263347Y-62390828D02*
G75*
G03*
X185588844Y-62111400I-674547J-674472D01*
G01*
X182596775Y-62111400D02*
X185588844Y-62111400D01*
X186263375Y-62390800D02*
X186344807Y-62472232D01*
X186822163Y-63624700D02*
G75*
G03*
X186344807Y-62472232I-1629863J0D01*
G01*
%TO.N,Board_1-Net-(J1-In)*%
X149855786Y-63624700D02*
G75*
G03*
X149737616Y-63339443I-403386J0D01*
G01*
X148814375Y-62416200D02*
X149737617Y-63339442D01*
X148814374Y-62416201D02*
G75*
G03*
X148078523Y-62111400I-735874J-735899D01*
G01*
X145596775Y-62111400D02*
X148078523Y-62111400D01*
%TO.N,Board_0-Net-(J1-In)*%
X112534750Y-63434967D02*
G75*
G03*
X112813175Y-63550300I278450J278467D01*
G01*
X111441575Y-62341800D02*
X112534746Y-63434971D01*
X111441584Y-62341791D02*
G75*
G03*
X110889686Y-62113200I-551884J-551909D01*
G01*
X108596775Y-62113200D02*
X110889686Y-62113200D01*
%TO.N,Board_0-GND*%
X191163668Y-62593991D02*
X191749793Y-62593991D01*
X190404525Y-61834848D02*
X191163668Y-62593991D01*
X154019477Y-62365400D02*
X155103020Y-62365400D01*
X155103020Y-62365400D02*
X155160335Y-62422715D01*
X153565125Y-61911048D02*
X154019477Y-62365400D01*
X117567667Y-62265605D02*
X118121765Y-62265605D01*
X116868675Y-61566613D02*
X117567667Y-62265605D01*
D45*
X190404500Y-61834873D02*
G75*
G03*
X187664036Y-60699700I-2740500J-2740427D01*
G01*
X186822175Y-60699700D02*
X187664036Y-60699700D01*
X191283458Y-98741494D02*
G75*
G03*
X188503347Y-97589900I-2780158J-2780106D01*
G01*
X186871175Y-97589900D02*
X188503347Y-97589900D01*
X154190100Y-99173252D02*
G75*
G03*
X150612773Y-97691500I-3577300J-3577348D01*
G01*
X149879375Y-97691500D02*
X150612773Y-97691500D01*
X116866871Y-98566767D02*
G75*
G03*
X114574186Y-97617100I-2292671J-2292633D01*
G01*
X112862175Y-97617100D02*
X114574186Y-97617100D01*
X190867143Y-135565145D02*
G75*
G03*
X188615649Y-134632500I-2251543J-2251455D01*
G01*
X186820375Y-134632500D02*
X188615649Y-134632500D01*
%TO.N,Board_8-Net-(J1-In)*%
X207394375Y-130041213D02*
X207394375Y-129948200D01*
X207101551Y-129241262D02*
X205380908Y-127520618D01*
X205717966Y-134088391D02*
G75*
G03*
X207394375Y-130041213I-4047166J4047191D01*
G01*
X197342827Y-137557503D02*
G75*
G03*
X205717974Y-134088399I-27J11844303D01*
G01*
X207394370Y-129948200D02*
G75*
G03*
X207101551Y-129241262I-999770J0D01*
G01*
X186820375Y-137557500D02*
X197342827Y-137557500D01*
%TO.N,Board_0-GND*%
X153867012Y-135565126D02*
G75*
G03*
X151676820Y-134657900I-2190212J-2190174D01*
G01*
X149803175Y-134657900D02*
X151676820Y-134657900D01*
%TO.N,Board_7-Net-(J1-In)*%
X170300962Y-129999000D02*
G75*
G03*
X169906293Y-129046152I-1347562J0D01*
G01*
X169906293Y-129046152D02*
X168380758Y-127520618D01*
X170300975Y-130011455D02*
X170300975Y-129999000D01*
X159870980Y-137582884D02*
G75*
G03*
X168675375Y-133936000I20J12451284D01*
G01*
X149803175Y-137582900D02*
X159870980Y-137582900D01*
X168675404Y-133936029D02*
G75*
G03*
X170300975Y-130011455I-3924604J3924529D01*
G01*
%TO.N,Board_0-GND*%
X116866843Y-135566945D02*
G75*
G03*
X114615349Y-134634300I-2251543J-2251455D01*
G01*
X113014575Y-134634300D02*
X114615349Y-134634300D01*
%TO.N,Board_6-Net-(J1-In)*%
X132953566Y-130458000D02*
G75*
G03*
X131990061Y-128131870I-3289666J0D01*
G01*
X131588570Y-133753395D02*
G75*
G03*
X132953575Y-130458000I-3295370J3295395D01*
G01*
X130997775Y-134344200D02*
X131588575Y-133753400D01*
X113014575Y-137559300D02*
X123235837Y-137559300D01*
X123235837Y-137559337D02*
G75*
G03*
X130997775Y-134344200I-37J10977037D01*
G01*
X131990061Y-128131870D02*
X131380608Y-127522418D01*
%TO.N,Board_3-Net-(J1-In)*%
X132851984Y-92526400D02*
G75*
G03*
X132475253Y-91616914I-1286184J0D01*
G01*
X132851975Y-92765650D02*
X132851975Y-92526400D01*
X131099405Y-96996830D02*
G75*
G03*
X132851975Y-92765650I-4231205J4231130D01*
G01*
X122540264Y-100542077D02*
G75*
G03*
X131099375Y-96996800I36J12104377D01*
G01*
X112862175Y-100542100D02*
X122540264Y-100542100D01*
X132475253Y-91616914D02*
X131380608Y-90522268D01*
%TO.N,Board_4-Net-(J1-In)*%
X169365183Y-91504894D02*
X168380758Y-90520468D01*
X169945381Y-92905600D02*
G75*
G03*
X169365183Y-91504894I-1980881J0D01*
G01*
X169945375Y-93608213D02*
X169945375Y-92905600D01*
X161120248Y-100616470D02*
G75*
G03*
X168268974Y-97655399I52J10109770D01*
G01*
D44*
%TO.N,Board_0-GND*%
X154558314Y-99541500D02*
X155645175Y-99541500D01*
D45*
%TO.N,Board_4-Net-(J1-In)*%
X149879375Y-100616500D02*
X161120248Y-100616500D01*
D44*
%TO.N,Board_0-GND*%
X154190081Y-99173267D02*
X154558314Y-99541500D01*
D45*
%TO.N,Board_4-Net-(J1-In)*%
X168268966Y-97655391D02*
G75*
G03*
X169945375Y-93608213I-4047166J4047191D01*
G01*
%TO.N,Board_5-Net-(J1-In)*%
X206710289Y-91849849D02*
X205380908Y-90520468D01*
X206937175Y-92931129D02*
X206937175Y-92397600D01*
X206937163Y-92397600D02*
G75*
G03*
X206710288Y-91849850I-774663J0D01*
G01*
X205159162Y-97223587D02*
G75*
G03*
X206937175Y-92931129I-4292462J4292487D01*
G01*
X197213274Y-100514881D02*
G75*
G03*
X205159174Y-97223599I26J11237181D01*
G01*
X186871175Y-100514900D02*
X197213274Y-100514900D01*
%TO.N,Board_2-Net-(J1-In)*%
X206812007Y-56970873D02*
G75*
G03*
X205382708Y-53520318I-4879807J-27D01*
G01*
X206811975Y-57209200D02*
X206811975Y-56970873D01*
X205931899Y-59333854D02*
G75*
G03*
X206811975Y-57209200I-2124599J2124654D01*
G01*
X205719775Y-59546000D02*
X205931910Y-59333865D01*
X195872923Y-63624731D02*
G75*
G03*
X205719775Y-59546000I-23J13925531D01*
G01*
X186822175Y-63624700D02*
X195872923Y-63624700D01*
%TO.N,Board_0-GND*%
X153565140Y-61911033D02*
G75*
G03*
X150334068Y-60572700I-3231040J-3231067D01*
G01*
X149931975Y-60572700D02*
X150334068Y-60572700D01*
%TO.N,Board_1-Net-(J1-In)*%
X168861795Y-53999555D02*
X168382558Y-53520318D01*
X169591560Y-55761400D02*
G75*
G03*
X168861795Y-53999555I-2491660J0D01*
G01*
X167711957Y-60561982D02*
G75*
G03*
X169591575Y-56024245I-4537757J4537782D01*
G01*
X160624569Y-63497679D02*
G75*
G03*
X167711975Y-60562000I31J10023079D01*
G01*
X149931975Y-63497700D02*
X160624569Y-63497700D01*
X169591575Y-56024245D02*
X169591575Y-55761400D01*
%TO.N,Board_0-Net-(J1-In)*%
X131872818Y-54012527D02*
X131382408Y-53522118D01*
X132650562Y-55890200D02*
G75*
G03*
X131872818Y-54012527I-2655462J0D01*
G01*
X130999575Y-59547800D02*
X131231694Y-59315681D01*
X131231697Y-59315684D02*
G75*
G03*
X132650575Y-55890200I-3425497J3425484D01*
G01*
X121336686Y-63550286D02*
G75*
G03*
X130999575Y-59547800I14J13665386D01*
G01*
X112813175Y-63550300D02*
X121336686Y-63550300D01*
%TO.N,Board_0-GND*%
X115927362Y-60625300D02*
X116868675Y-61566613D01*
X112813175Y-60625300D02*
X115927362Y-60625300D01*
D44*
X190867175Y-135565113D02*
X191701862Y-136399800D01*
X191701862Y-136399800D02*
X192179775Y-136399800D01*
X154575112Y-136273200D02*
X155137175Y-136273200D01*
X153867025Y-135565113D02*
X154575112Y-136273200D01*
X117625362Y-136325400D02*
X118145375Y-136325400D01*
X116866875Y-135566913D02*
X117625362Y-136325400D01*
X191950012Y-99408000D02*
X192662375Y-99408000D01*
X191283482Y-98741470D02*
X191950012Y-99408000D01*
X117608312Y-99308200D02*
X118119975Y-99308200D01*
X116866875Y-98566763D02*
X117608312Y-99308200D01*
%TO.N,Board_4-Net-(U1-Dy10)*%
X154610837Y-97348200D02*
X154720967Y-97458330D01*
%TO.N,Board_2-Net-(U1-Dy10)*%
X193890456Y-58070381D02*
X191706485Y-60254352D01*
%TO.N,Board_0--HV*%
X191900484Y-33304960D02*
X191900484Y-33711916D01*
X118634457Y-38112392D02*
X118634457Y-35620642D01*
X155634607Y-38110592D02*
X155634607Y-35618842D01*
X117900184Y-33306760D02*
X117900184Y-33713716D01*
X192634757Y-38110592D02*
X192634757Y-35618842D01*
X154900334Y-33304960D02*
X154900334Y-33711916D01*
X155662392Y-35551709D02*
G75*
G03*
X155634607Y-35618842I67108J-67091D01*
G01*
X191900483Y-33711916D02*
G75*
G03*
X192662558Y-35551725I2601917J16D01*
G01*
X117900183Y-33713716D02*
G75*
G03*
X118662258Y-35553525I2601917J16D01*
G01*
X192662532Y-35551699D02*
G75*
G03*
X192634757Y-35618842I67168J-67101D01*
G01*
X118662232Y-35553499D02*
G75*
G03*
X118634457Y-35620642I67168J-67101D01*
G01*
X154900318Y-33711916D02*
G75*
G03*
X155662408Y-35551725I2601882J16D01*
G01*
%TO.N,Board_0-Net-(J1-In)*%
X131382408Y-53522118D02*
X131895842Y-54035552D01*
%TO.N,Board_0-Net-(U1-Dy1)*%
X121487592Y-34324754D02*
X121487592Y-34796479D01*
X121655576Y-40347853D02*
X122118675Y-39884754D01*
X121487592Y-34796479D02*
X122146910Y-35455797D01*
X122118675Y-39884754D02*
X122118675Y-39378934D01*
X120598650Y-40785673D02*
G75*
G03*
X121655576Y-40347853I-50J1494773D01*
G01*
X122945305Y-37383283D02*
G75*
G03*
X122146909Y-35455798I-2725905J-17D01*
G01*
X122945274Y-37383256D02*
G75*
G03*
X122118675Y-39378934I1995726J-1995644D01*
G01*
X121487637Y-34324754D02*
G75*
G03*
X120749666Y-32543244I-2519437J-46D01*
G01*
%TO.N,Board_0-Net-(U1-Dy10)*%
X118114137Y-59848199D02*
X119890156Y-58072181D01*
X128553112Y-52084843D02*
X128686516Y-51951439D01*
X120381103Y-57868824D02*
X122398148Y-55851779D01*
X124952830Y-54793595D02*
X127031175Y-52715250D01*
X117781175Y-59986087D02*
G75*
G03*
X118114136Y-59848198I25J470887D01*
G01*
X122824925Y-55675022D02*
G75*
G03*
X124952829Y-54793594I-25J3009322D01*
G01*
X127031175Y-52715230D02*
G75*
G03*
X128553112Y-52084843I25J2152330D01*
G01*
X122824925Y-55675033D02*
G75*
G03*
X122398148Y-55851779I-25J-603567D01*
G01*
X119890156Y-58072156D02*
G75*
G03*
X120381103Y-57868824I44J694256D01*
G01*
%TO.N,Board_0-Net-(U1-Dy2)*%
X114074925Y-42175002D02*
X113091113Y-43158814D01*
X122430679Y-42065745D02*
X123031175Y-41465250D01*
X115676655Y-42107309D02*
X117274893Y-42107309D01*
X119324925Y-42175002D02*
X117879322Y-42175002D01*
X115676655Y-42107309D02*
X114238350Y-42107309D01*
X121548650Y-42431094D02*
X119943185Y-42431094D01*
X114238350Y-42107266D02*
G75*
G03*
X114074925Y-42175002I50J-231134D01*
G01*
X117495374Y-42015995D02*
G75*
G03*
X117879322Y-42175002I383926J383995D01*
G01*
X117274893Y-42107312D02*
G75*
G03*
X117495395Y-42015974I7J311812D01*
G01*
X113091115Y-43158816D02*
G75*
G03*
X112650192Y-44223291I1064485J-1064484D01*
G01*
X121548650Y-42431053D02*
G75*
G03*
X122430679Y-42065745I50J1247353D01*
G01*
X119324924Y-42175003D02*
G75*
G03*
X119943185Y-42431094I618276J618303D01*
G01*
%TO.N,Board_0-Net-(U1-Dy3)*%
X115842251Y-44000079D02*
X117253578Y-44000079D01*
X117574925Y-44026032D02*
X117574925Y-45175002D01*
X119512832Y-45317532D02*
X119805129Y-45317532D01*
X117654455Y-43834030D02*
X118872880Y-45052455D01*
X117654430Y-43834005D02*
G75*
G03*
X117574925Y-44026032I192070J-191995D01*
G01*
X118872863Y-45052472D02*
G75*
G03*
X119512832Y-45317532I639937J639972D01*
G01*
X119805129Y-45317541D02*
G75*
G03*
X121234188Y-44725596I-29J2021041D01*
G01*
X117253578Y-44000076D02*
G75*
G03*
X117654454Y-43834029I22J566876D01*
G01*
%TO.N,Board_0-Net-(U1-Dy4)*%
X120137018Y-47032472D02*
X120625111Y-47032472D01*
X116229683Y-47032472D02*
X120137018Y-47032472D01*
X125646151Y-42107277D02*
X125118675Y-42634754D01*
X112011489Y-48548443D02*
X112569806Y-48548443D01*
X123574925Y-43925002D02*
X124685920Y-42814007D01*
X121884026Y-46511012D02*
X122941986Y-45453052D01*
X125118675Y-42634748D02*
G75*
G03*
X124685920Y-42814007I25J-612052D01*
G01*
X112569806Y-48548451D02*
G75*
G03*
X114074924Y-47925001I-6J2128551D01*
G01*
X120625111Y-47032480D02*
G75*
G03*
X121884026Y-46511012I-11J1780380D01*
G01*
X126794198Y-41631732D02*
G75*
G03*
X125646151Y-42107277I2J-1623568D01*
G01*
X122941992Y-45453058D02*
G75*
G03*
X123574925Y-43925002I-1528092J1528058D01*
G01*
X116229683Y-47032472D02*
G75*
G03*
X114074925Y-47925002I17J-3047328D01*
G01*
%TO.N,Board_0-Net-(U1-Dy5)*%
X116349150Y-50006633D02*
X116084957Y-50006633D01*
X116349150Y-50006633D02*
X116349196Y-50006633D01*
X127354118Y-43667269D02*
X127744198Y-43277189D01*
X129060823Y-42731825D02*
X130606357Y-41186291D01*
X127744198Y-43277187D02*
G75*
G03*
X129060823Y-42731825I2J1861987D01*
G01*
X116349196Y-50006630D02*
G75*
G03*
X118012831Y-49317531I4J2352730D01*
G01*
X126031175Y-44215224D02*
G75*
G03*
X127354118Y-43667269I25J1870924D01*
G01*
X116084957Y-50006593D02*
G75*
G03*
X115074925Y-50425002I43J-1428407D01*
G01*
%TO.N,Board_0-Net-(U1-Dy6)*%
X129312956Y-45067532D02*
X129762832Y-45067532D01*
X118498601Y-51170889D02*
X118637018Y-51032472D01*
X113187210Y-52759458D02*
X114663457Y-52759458D01*
X125824925Y-46675002D02*
X126102637Y-46397290D01*
X116998988Y-51792047D02*
G75*
G03*
X118498601Y-51170889I12J2120747D01*
G01*
X114663457Y-52759421D02*
G75*
G03*
X116998987Y-51792048I43J3302921D01*
G01*
X128070008Y-45582396D02*
G75*
G03*
X126102637Y-46397290I-8J-2782304D01*
G01*
X129312956Y-45067494D02*
G75*
G03*
X128070008Y-45582378I44J-1757806D01*
G01*
%TO.N,Board_0-Net-(U1-Dy7)*%
X128719846Y-47367794D02*
X128973926Y-47367794D01*
X124565541Y-49732109D02*
X125049925Y-49247726D01*
X131280229Y-46412492D02*
X132631886Y-45060835D01*
X128105628Y-47982013D02*
X128719846Y-47367794D01*
X130387018Y-46782490D02*
G75*
G03*
X131280229Y-46412492I-18J1263190D01*
G01*
X128973926Y-47367818D02*
G75*
G03*
X130387018Y-46782472I-26J1998418D01*
G01*
X125049925Y-49247741D02*
G75*
G03*
X128105628Y-47982013I-25J4321441D01*
G01*
X123477157Y-50182894D02*
G75*
G03*
X124565541Y-49732109I43J1539194D01*
G01*
%TO.N,Board_0-Net-(U1-Dy8)*%
X118074925Y-54175002D02*
X118658369Y-53591558D01*
X116226161Y-56023767D02*
X118074925Y-54175002D01*
X121074925Y-52291923D02*
X121074925Y-50925002D01*
X120710784Y-52741420D02*
X121099925Y-52352278D01*
X121663827Y-49503267D02*
X122564657Y-48602437D01*
X123478145Y-48224058D02*
X124099925Y-47602278D01*
X119559717Y-53218233D02*
G75*
G03*
X120710784Y-52741420I-17J1627833D01*
G01*
X121074915Y-52291923D02*
G75*
G03*
X121099925Y-52352278I85385J23D01*
G01*
X119559717Y-53218218D02*
G75*
G03*
X118658369Y-53591558I-17J-1274682D01*
G01*
X122564657Y-48602415D02*
G75*
G03*
X123478145Y-48224058I43J1291815D01*
G01*
X115974048Y-56128213D02*
G75*
G03*
X116226160Y-56023766I-48J356613D01*
G01*
X121663818Y-49503258D02*
G75*
G03*
X121074925Y-50925002I1421782J-1421742D01*
G01*
%TO.N,Board_0-Net-(U1-Dy9)*%
X124108317Y-53145112D02*
X126118675Y-51134754D01*
X121798180Y-54249471D02*
X122049925Y-53997726D01*
X126118675Y-51134754D02*
X126389475Y-50863954D01*
X129865173Y-49424272D02*
X132906403Y-49424272D01*
X122049925Y-53997737D02*
G75*
G03*
X124108317Y-53145112I-25J2911037D01*
G01*
X127736516Y-50306005D02*
G75*
G03*
X126389476Y-50863955I-16J-1904995D01*
G01*
X120472217Y-54798712D02*
G75*
G03*
X121798180Y-54249471I-17J1875212D01*
G01*
X129865173Y-49424269D02*
G75*
G03*
X127736516Y-50305991I27J-3010431D01*
G01*
%TO.N,Board_1--HV*%
X118632657Y-75112542D02*
X118632657Y-72620792D01*
X191898684Y-70305110D02*
X191898684Y-70712066D01*
X155632807Y-75110742D02*
X155632807Y-72618992D01*
X154898534Y-70305110D02*
X154898534Y-70712066D01*
X117898384Y-70306910D02*
X117898384Y-70713866D01*
X192632957Y-75110742D02*
X192632957Y-72618992D01*
X155660617Y-72551884D02*
G75*
G03*
X155632807Y-72618992I67083J-67116D01*
G01*
X117898418Y-70713866D02*
G75*
G03*
X118660458Y-72553675I2601882J-34D01*
G01*
X118660457Y-72553674D02*
G75*
G03*
X118632657Y-72620792I67143J-67126D01*
G01*
X154898554Y-70712066D02*
G75*
G03*
X155660609Y-72551874I2601846J-34D01*
G01*
X192660757Y-72551874D02*
G75*
G03*
X192632957Y-72618992I67143J-67126D01*
G01*
X191898718Y-70712066D02*
G75*
G03*
X192660758Y-72551875I2601882J-34D01*
G01*
%TO.N,Board_1-Net-(J1-In)*%
X169004072Y-54141833D02*
X168382558Y-53520318D01*
X168382558Y-53520318D02*
X168895992Y-54033752D01*
%TO.N,Board_1-Net-(U1-Dy1)*%
X158487742Y-34794679D02*
X159147060Y-35453997D01*
X158655726Y-40346053D02*
X159118825Y-39882954D01*
X158487742Y-34322954D02*
X158487742Y-34794679D01*
X159118825Y-39882954D02*
X159118825Y-39377134D01*
X159945434Y-37381466D02*
G75*
G03*
X159118825Y-39377134I1995666J-1995634D01*
G01*
X157598800Y-40783838D02*
G75*
G03*
X158655726Y-40346053I0J1494738D01*
G01*
X159945470Y-37381483D02*
G75*
G03*
X159147060Y-35453997I-2725870J-17D01*
G01*
X158487772Y-34322954D02*
G75*
G03*
X157749816Y-32541444I-2519472J-46D01*
G01*
%TO.N,Board_1-Net-(U1-Dy10)*%
X165553262Y-52083043D02*
X165686666Y-51949639D01*
X161952980Y-54791795D02*
X164031325Y-52713450D01*
X157381253Y-57867024D02*
X159398298Y-55849979D01*
X154756908Y-60203779D02*
X156890306Y-58070381D01*
X156890306Y-58070391D02*
G75*
G03*
X157381252Y-57867023I-6J694291D01*
G01*
X159825075Y-55673198D02*
G75*
G03*
X159398298Y-55849979I25J-603602D01*
G01*
X164031325Y-52713465D02*
G75*
G03*
X165553261Y-52083042I-25J2152365D01*
G01*
X159825075Y-55673187D02*
G75*
G03*
X161952980Y-54791795I25J3009287D01*
G01*
%TO.N,Board_1-Net-(U1-Dy2)*%
X158548800Y-42429294D02*
X156943335Y-42429294D01*
X152676805Y-42105509D02*
X151238500Y-42105509D01*
X151075075Y-42173202D02*
X150091263Y-43157014D01*
X159430829Y-42063945D02*
X160031325Y-41463450D01*
X152676805Y-42105509D02*
X154275043Y-42105509D01*
X156325075Y-42173202D02*
X154879472Y-42173202D01*
X150091276Y-43157027D02*
G75*
G03*
X149650342Y-44221491I1064424J-1064473D01*
G01*
X158548800Y-42429288D02*
G75*
G03*
X159430829Y-42063945I0J1247388D01*
G01*
X154275043Y-42105547D02*
G75*
G03*
X154495545Y-42014174I-43J311847D01*
G01*
X156325049Y-42173228D02*
G75*
G03*
X156943335Y-42429294I618251J618328D01*
G01*
X151238500Y-42105502D02*
G75*
G03*
X151075076Y-42173203I0J-231098D01*
G01*
X154495549Y-42014170D02*
G75*
G03*
X154879472Y-42173202I383951J383970D01*
G01*
%TO.N,Board_1-Net-(U1-Dy3)*%
X156512982Y-45315732D02*
X156805279Y-45315732D01*
X154654605Y-43832230D02*
X155873030Y-45050655D01*
X152842401Y-43998279D02*
X154253728Y-43998279D01*
X154575075Y-44024232D02*
X154575075Y-45173202D01*
X154253728Y-43998312D02*
G75*
G03*
X154654605Y-43832230I-28J566912D01*
G01*
X156805279Y-45315705D02*
G75*
G03*
X158234337Y-44723795I21J2021005D01*
G01*
X154654590Y-43832215D02*
G75*
G03*
X154575075Y-44024232I192010J-191985D01*
G01*
X155873038Y-45050647D02*
G75*
G03*
X156512982Y-45315732I639962J639947D01*
G01*
%TO.N,Board_1-Net-(U1-Dy4)*%
X158884176Y-46509212D02*
X159942136Y-45451252D01*
X153229833Y-47030672D02*
X157137168Y-47030672D01*
X162646301Y-42105477D02*
X162118825Y-42632954D01*
X160575075Y-43923202D02*
X161686070Y-42812207D01*
X157137168Y-47030672D02*
X157625261Y-47030672D01*
X149011639Y-48546643D02*
X149569956Y-48546643D01*
X157625261Y-47030644D02*
G75*
G03*
X158884175Y-46509211I39J1780344D01*
G01*
X149569956Y-48546616D02*
G75*
G03*
X151075075Y-47923202I44J2128516D01*
G01*
X153229833Y-47030708D02*
G75*
G03*
X151075076Y-47923203I-33J-3047292D01*
G01*
X162118825Y-42632983D02*
G75*
G03*
X161686070Y-42812207I-25J-612017D01*
G01*
X163794348Y-41629968D02*
G75*
G03*
X162646302Y-42105478I-48J-1623532D01*
G01*
X159942132Y-45451248D02*
G75*
G03*
X160575075Y-43923202I-1528032J1528048D01*
G01*
%TO.N,Board_1-Net-(U1-Dy5)*%
X153349300Y-50004833D02*
X153349346Y-50004833D01*
X153349300Y-50004833D02*
X153085107Y-50004833D01*
X164354268Y-43665469D02*
X164744348Y-43275389D01*
X166060973Y-42730025D02*
X167606507Y-41184491D01*
X153349346Y-50004866D02*
G75*
G03*
X155012982Y-49315732I-46J2352766D01*
G01*
X153085107Y-50004829D02*
G75*
G03*
X152075076Y-50423203I-7J-1428371D01*
G01*
X163031325Y-44213459D02*
G75*
G03*
X164354267Y-43665468I-25J1870959D01*
G01*
X164744348Y-43275422D02*
G75*
G03*
X166060972Y-42730024I-48J1862022D01*
G01*
%TO.N,Board_1-Net-(U1-Dy6)*%
X150187360Y-52757658D02*
X151663607Y-52757658D01*
X166313106Y-45065732D02*
X166762982Y-45065732D01*
X155498751Y-51169089D02*
X155637168Y-51030672D01*
X162825075Y-46673202D02*
X163102787Y-46395490D01*
X153999138Y-51790282D02*
G75*
G03*
X155498750Y-51169088I-38J2120782D01*
G01*
X151663607Y-52757657D02*
G75*
G03*
X153999138Y-51790249I-7J3302957D01*
G01*
X166313106Y-45065729D02*
G75*
G03*
X165070158Y-45580578I-6J-1757771D01*
G01*
X165070158Y-45580560D02*
G75*
G03*
X163102787Y-46395490I42J-2782340D01*
G01*
%TO.N,Board_1-Net-(U1-Dy7)*%
X168280379Y-46410692D02*
X169632036Y-45059035D01*
X161565691Y-49730309D02*
X162050075Y-49245926D01*
X165105778Y-47980213D02*
X165719996Y-47365994D01*
X165719996Y-47365994D02*
X165974076Y-47365994D01*
X167387168Y-46780655D02*
G75*
G03*
X168280379Y-46410692I32J1263155D01*
G01*
X165974076Y-47365982D02*
G75*
G03*
X167387167Y-46780671I24J1998382D01*
G01*
X162050075Y-49245906D02*
G75*
G03*
X165105778Y-47980213I25J4321406D01*
G01*
X160477307Y-50181130D02*
G75*
G03*
X161565691Y-49730309I-7J1539230D01*
G01*
%TO.N,Board_1-Net-(U1-Dy8)*%
X158663977Y-49501467D02*
X159564807Y-48600637D01*
X157710934Y-52739620D02*
X158100075Y-52350478D01*
X158075075Y-52290123D02*
X158075075Y-50923202D01*
X153226311Y-56021967D02*
X155075075Y-54173202D01*
X155075075Y-54173202D02*
X155658519Y-53589758D01*
X160478295Y-48222258D02*
X161100075Y-47600478D01*
X156559867Y-53216397D02*
G75*
G03*
X157710933Y-52739619I33J1627797D01*
G01*
X158663978Y-49501468D02*
G75*
G03*
X158075075Y-50923202I1421722J-1421732D01*
G01*
X159564807Y-48600650D02*
G75*
G03*
X160478294Y-48222257I-7J1291850D01*
G01*
X156559867Y-53216383D02*
G75*
G03*
X155658519Y-53589758I33J-1274717D01*
G01*
X158075051Y-52290123D02*
G75*
G03*
X158100076Y-52350477I85349J23D01*
G01*
X152974198Y-56126378D02*
G75*
G03*
X153226311Y-56021967I2J356578D01*
G01*
%TO.N,Board_1-Net-(U1-Dy9)*%
X158798330Y-54247671D02*
X159050075Y-53995926D01*
X161108467Y-53143312D02*
X163118825Y-51132954D01*
X163118825Y-51132954D02*
X163389625Y-50862154D01*
X166865323Y-49422472D02*
X169906553Y-49422472D01*
X166865323Y-49422504D02*
G75*
G03*
X164736666Y-50304191I-23J-3010396D01*
G01*
X159050075Y-53995902D02*
G75*
G03*
X161108467Y-53143312I25J2911002D01*
G01*
X164736666Y-50304169D02*
G75*
G03*
X163389625Y-50862154I34J-1905031D01*
G01*
X157472367Y-54796877D02*
G75*
G03*
X158798330Y-54247671I33J1875177D01*
G01*
%TO.N,Board_2--HV*%
X192632957Y-112110892D02*
X192632957Y-109619142D01*
X155632807Y-112110892D02*
X155632807Y-109619142D01*
X118632657Y-112112692D02*
X118632657Y-109620942D01*
X117898384Y-107307060D02*
X117898384Y-107714016D01*
X191898684Y-107305260D02*
X191898684Y-107712216D01*
X154898534Y-107305260D02*
X154898534Y-107712216D01*
X192660732Y-109551999D02*
G75*
G03*
X192632957Y-109619142I67168J-67101D01*
G01*
X155660592Y-109552009D02*
G75*
G03*
X155632807Y-109619142I67108J-67091D01*
G01*
X117898383Y-107714016D02*
G75*
G03*
X118660458Y-109553825I2601917J16D01*
G01*
X154898518Y-107712216D02*
G75*
G03*
X155660608Y-109552025I2601882J16D01*
G01*
X191898683Y-107712216D02*
G75*
G03*
X192660758Y-109552025I2601917J16D01*
G01*
X118660432Y-109553799D02*
G75*
G03*
X118632657Y-109620942I67168J-67101D01*
G01*
%TO.N,Board_2-Net-(J1-In)*%
X205382708Y-53520318D02*
X205896142Y-54033752D01*
%TO.N,Board_2-Net-(U1-Dy1)*%
X195655876Y-40346053D02*
X196118975Y-39882954D01*
X196118975Y-39882954D02*
X196118975Y-39377134D01*
X195487892Y-34794679D02*
X196147210Y-35453997D01*
X195487892Y-34322954D02*
X195487892Y-34794679D01*
X194598950Y-40783873D02*
G75*
G03*
X195655876Y-40346053I-50J1494773D01*
G01*
X196945574Y-37381456D02*
G75*
G03*
X196118975Y-39377134I1995726J-1995644D01*
G01*
X196945605Y-37381483D02*
G75*
G03*
X196147209Y-35453998I-2725905J-17D01*
G01*
X195487937Y-34322954D02*
G75*
G03*
X194749966Y-32541444I-2519437J-46D01*
G01*
%TO.N,Board_2-Net-(U1-Dy10)*%
X202553412Y-52083043D02*
X202686816Y-51949639D01*
X198953130Y-54791795D02*
X201031475Y-52713450D01*
X194381403Y-57867024D02*
X196398448Y-55849979D01*
X193890456Y-58070356D02*
G75*
G03*
X194381403Y-57867024I44J694256D01*
G01*
X196825225Y-55673233D02*
G75*
G03*
X196398448Y-55849979I-25J-603567D01*
G01*
X201031475Y-52713430D02*
G75*
G03*
X202553412Y-52083043I25J2152330D01*
G01*
X196825225Y-55673222D02*
G75*
G03*
X198953129Y-54791794I-25J3009322D01*
G01*
%TO.N,Board_2-Net-(U1-Dy2)*%
X189676955Y-42105509D02*
X188238650Y-42105509D01*
X193325225Y-42173202D02*
X191879622Y-42173202D01*
X189676955Y-42105509D02*
X191275193Y-42105509D01*
X188075225Y-42173202D02*
X187091413Y-43157014D01*
X196430979Y-42063945D02*
X197031475Y-41463450D01*
X195548950Y-42429294D02*
X193943485Y-42429294D01*
X191495674Y-42014195D02*
G75*
G03*
X191879622Y-42173202I383926J383995D01*
G01*
X188238650Y-42105466D02*
G75*
G03*
X188075225Y-42173202I50J-231134D01*
G01*
X187091415Y-43157016D02*
G75*
G03*
X186650492Y-44221491I1064485J-1064484D01*
G01*
X193325224Y-42173203D02*
G75*
G03*
X193943485Y-42429294I618276J618303D01*
G01*
X191275193Y-42105512D02*
G75*
G03*
X191495695Y-42014174I7J311812D01*
G01*
X195548950Y-42429253D02*
G75*
G03*
X196430979Y-42063945I50J1247353D01*
G01*
%TO.N,Board_2-Net-(U1-Dy3)*%
X191575225Y-44024232D02*
X191575225Y-45173202D01*
X193513132Y-45315732D02*
X193805429Y-45315732D01*
X189842551Y-43998279D02*
X191253878Y-43998279D01*
X191654755Y-43832230D02*
X192873180Y-45050655D01*
X192873163Y-45050672D02*
G75*
G03*
X193513132Y-45315732I639937J639972D01*
G01*
X193805429Y-45315741D02*
G75*
G03*
X195234488Y-44723796I-29J2021041D01*
G01*
X191654730Y-43832205D02*
G75*
G03*
X191575225Y-44024232I192070J-191995D01*
G01*
X191253878Y-43998276D02*
G75*
G03*
X191654754Y-43832229I22J566876D01*
G01*
%TO.N,Board_2-Net-(U1-Dy4)*%
X186011789Y-48546643D02*
X186570106Y-48546643D01*
X195884326Y-46509212D02*
X196942286Y-45451252D01*
X199646451Y-42105477D02*
X199118975Y-42632954D01*
X197575225Y-43923202D02*
X198686220Y-42812207D01*
X194137318Y-47030672D02*
X194625411Y-47030672D01*
X190229983Y-47030672D02*
X194137318Y-47030672D01*
X199118975Y-42632948D02*
G75*
G03*
X198686220Y-42812207I25J-612052D01*
G01*
X186570106Y-48546651D02*
G75*
G03*
X188075224Y-47923201I-6J2128551D01*
G01*
X194625411Y-47030680D02*
G75*
G03*
X195884326Y-46509212I-11J1780380D01*
G01*
X190229983Y-47030672D02*
G75*
G03*
X188075225Y-47923202I17J-3047328D01*
G01*
X200794498Y-41629932D02*
G75*
G03*
X199646451Y-42105477I2J-1623568D01*
G01*
X196942292Y-45451258D02*
G75*
G03*
X197575225Y-43923202I-1528092J1528058D01*
G01*
%TO.N,Board_2-Net-(U1-Dy5)*%
X190349450Y-50004833D02*
X190349496Y-50004833D01*
X190349450Y-50004833D02*
X190085257Y-50004833D01*
X203061123Y-42730025D02*
X204606657Y-41184491D01*
X201354418Y-43665469D02*
X201744498Y-43275389D01*
X200031475Y-44213424D02*
G75*
G03*
X201354418Y-43665469I25J1870924D01*
G01*
X201744498Y-43275387D02*
G75*
G03*
X203061123Y-42730025I2J1861987D01*
G01*
X190085257Y-50004793D02*
G75*
G03*
X189075225Y-50423202I43J-1428407D01*
G01*
X190349496Y-50004830D02*
G75*
G03*
X192013131Y-49315731I4J2352730D01*
G01*
%TO.N,Board_2-Net-(U1-Dy6)*%
X203313256Y-45065732D02*
X203763132Y-45065732D01*
X199825225Y-46673202D02*
X200102937Y-46395490D01*
X187187510Y-52757658D02*
X188663757Y-52757658D01*
X192498901Y-51169089D02*
X192637318Y-51030672D01*
X190999288Y-51790247D02*
G75*
G03*
X192498901Y-51169089I12J2120747D01*
G01*
X202070308Y-45580596D02*
G75*
G03*
X200102937Y-46395490I-8J-2782304D01*
G01*
X188663757Y-52757621D02*
G75*
G03*
X190999287Y-51790248I43J3302921D01*
G01*
X203313256Y-45065694D02*
G75*
G03*
X202070308Y-45580578I44J-1757806D01*
G01*
%TO.N,Board_2-Net-(U1-Dy7)*%
X202720146Y-47365994D02*
X202974226Y-47365994D01*
X202105928Y-47980213D02*
X202720146Y-47365994D01*
X198565841Y-49730309D02*
X199050225Y-49245926D01*
X205280529Y-46410692D02*
X206632186Y-45059035D01*
X197477457Y-50181094D02*
G75*
G03*
X198565841Y-49730309I43J1539194D01*
G01*
X202974226Y-47366018D02*
G75*
G03*
X204387318Y-46780672I-26J1998418D01*
G01*
X199050225Y-49245941D02*
G75*
G03*
X202105928Y-47980213I-25J4321441D01*
G01*
X204387318Y-46780690D02*
G75*
G03*
X205280529Y-46410692I-18J1263190D01*
G01*
%TO.N,Board_2-Net-(U1-Dy8)*%
X195075225Y-52290123D02*
X195075225Y-50923202D01*
X194711084Y-52739620D02*
X195100225Y-52350478D01*
X197478445Y-48222258D02*
X198100225Y-47600478D01*
X190226461Y-56021967D02*
X192075225Y-54173202D01*
X195664127Y-49501467D02*
X196564957Y-48600637D01*
X192075225Y-54173202D02*
X192658669Y-53589758D01*
X193560017Y-53216433D02*
G75*
G03*
X194711084Y-52739620I-17J1627833D01*
G01*
X196564957Y-48600615D02*
G75*
G03*
X197478445Y-48222258I43J1291815D01*
G01*
X195075215Y-52290123D02*
G75*
G03*
X195100225Y-52350478I85385J23D01*
G01*
X193560017Y-53216418D02*
G75*
G03*
X192658669Y-53589758I-17J-1274682D01*
G01*
X195664118Y-49501458D02*
G75*
G03*
X195075225Y-50923202I1421782J-1421742D01*
G01*
X189974348Y-56126413D02*
G75*
G03*
X190226460Y-56021966I-48J356613D01*
G01*
%TO.N,Board_2-Net-(U1-Dy9)*%
X198108617Y-53143312D02*
X200118975Y-51132954D01*
X195798480Y-54247671D02*
X196050225Y-53995926D01*
X200118975Y-51132954D02*
X200389775Y-50862154D01*
X203865473Y-49422472D02*
X206906703Y-49422472D01*
X203865473Y-49422469D02*
G75*
G03*
X201736816Y-50304191I27J-3010431D01*
G01*
X196050225Y-53995937D02*
G75*
G03*
X198108617Y-53143312I-25J2911037D01*
G01*
X194472517Y-54796912D02*
G75*
G03*
X195798480Y-54247671I-17J1875212D01*
G01*
X201736816Y-50304205D02*
G75*
G03*
X200389776Y-50862155I-16J-1904995D01*
G01*
%TO.N,Board_3-Net-(J1-In)*%
X131380608Y-90522268D02*
X131894042Y-91035702D01*
%TO.N,Board_3-Net-(U1-Dy1)*%
X121485792Y-71324904D02*
X121485792Y-71796629D01*
X122116875Y-76884904D02*
X122116875Y-76379084D01*
X121653776Y-77348003D02*
X122116875Y-76884904D01*
X121485792Y-71796629D02*
X122145110Y-72455947D01*
X121485801Y-71324904D02*
G75*
G03*
X120747866Y-69543394I-2519401J4D01*
G01*
X120596850Y-77785838D02*
G75*
G03*
X121653776Y-77348003I-50J1494738D01*
G01*
X122943470Y-74383433D02*
G75*
G03*
X122145110Y-72455947I-2725870J33D01*
G01*
X122943499Y-74383431D02*
G75*
G03*
X122116875Y-76379084I1995701J-1995669D01*
G01*
%TO.N,Board_3-Net-(U1-Dy10)*%
X118112337Y-96848349D02*
X119888356Y-95072331D01*
X128551312Y-89084993D02*
X128684716Y-88951589D01*
X124951030Y-91793745D02*
X127029375Y-89715400D01*
X120379303Y-94868974D02*
X122396348Y-92851929D01*
X122823125Y-92675169D02*
G75*
G03*
X122396349Y-92851930I-25J-603531D01*
G01*
X122823125Y-92675158D02*
G75*
G03*
X124951030Y-91793745I-25J3009358D01*
G01*
X127029375Y-89715395D02*
G75*
G03*
X128551312Y-89084993I25J2152295D01*
G01*
X119888356Y-95072291D02*
G75*
G03*
X120379302Y-94868973I44J694291D01*
G01*
X117779375Y-96986252D02*
G75*
G03*
X118112337Y-96848349I25J470852D01*
G01*
%TO.N,Board_3-Net-(U1-Dy2)*%
X115674855Y-79107459D02*
X117273093Y-79107459D01*
X115674855Y-79107459D02*
X114236550Y-79107459D01*
X121546850Y-79431244D02*
X119941385Y-79431244D01*
X119323125Y-79175152D02*
X117877522Y-79175152D01*
X114073125Y-79175152D02*
X113089313Y-80158964D01*
X122428879Y-79065895D02*
X123029375Y-78465400D01*
X117493584Y-79016135D02*
G75*
G03*
X117877522Y-79175152I383916J383935D01*
G01*
X114236550Y-79107431D02*
G75*
G03*
X114073125Y-79175152I50J-231169D01*
G01*
X121546850Y-79431217D02*
G75*
G03*
X122428878Y-79065894I50J1247317D01*
G01*
X117273093Y-79107447D02*
G75*
G03*
X117493595Y-79016124I7J311847D01*
G01*
X113089290Y-80158941D02*
G75*
G03*
X112648392Y-81223441I1064510J-1064459D01*
G01*
X119323134Y-79175143D02*
G75*
G03*
X119941385Y-79431244I618266J618243D01*
G01*
%TO.N,Board_3-Net-(U1-Dy3)*%
X119511032Y-82317682D02*
X119803329Y-82317682D01*
X115840451Y-81000229D02*
X117251778Y-81000229D01*
X117573125Y-81026182D02*
X117573125Y-82175152D01*
X117652655Y-80834180D02*
X118871080Y-82052605D01*
X117251778Y-81000212D02*
G75*
G03*
X117652655Y-80834180I22J566912D01*
G01*
X119803329Y-82317705D02*
G75*
G03*
X121232387Y-81725745I-29J2021005D01*
G01*
X118871074Y-82052611D02*
G75*
G03*
X119511032Y-82317682I639926J639911D01*
G01*
X117652655Y-80834180D02*
G75*
G03*
X117573125Y-81026182I192045J-192020D01*
G01*
%TO.N,Board_3-Net-(U1-Dy4)*%
X120135218Y-84032622D02*
X120623311Y-84032622D01*
X123573125Y-80925152D02*
X124684120Y-79814157D01*
X112009689Y-85548593D02*
X112568006Y-85548593D01*
X116227883Y-84032622D02*
X120135218Y-84032622D01*
X121882226Y-83511162D02*
X122940186Y-82453202D01*
X125644351Y-79107427D02*
X125116875Y-79634904D01*
X125116875Y-79634883D02*
G75*
G03*
X124684120Y-79814157I25J-612017D01*
G01*
X120623311Y-84032644D02*
G75*
G03*
X121882225Y-83511161I-11J1780344D01*
G01*
X116227883Y-84032608D02*
G75*
G03*
X114073126Y-84925153I17J-3047292D01*
G01*
X112568006Y-85548587D02*
G75*
G03*
X114073125Y-84925152I-6J2128587D01*
G01*
X126792398Y-78631897D02*
G75*
G03*
X125644351Y-79107427I2J-1623603D01*
G01*
X122940217Y-82453233D02*
G75*
G03*
X123573125Y-80925152I-1528117J1528033D01*
G01*
%TO.N,Board_3-Net-(U1-Dy5)*%
X116347350Y-87006783D02*
X116083157Y-87006783D01*
X127352318Y-80667419D02*
X127742398Y-80277339D01*
X116347350Y-87006783D02*
X116347396Y-87006783D01*
X129059023Y-79731975D02*
X130604557Y-78186441D01*
X116083157Y-87006758D02*
G75*
G03*
X115073125Y-87425152I43J-1428442D01*
G01*
X126029375Y-81215389D02*
G75*
G03*
X127352318Y-80667419I25J1870889D01*
G01*
X116347396Y-87006795D02*
G75*
G03*
X118011032Y-86317682I4J2352695D01*
G01*
X127742398Y-80277352D02*
G75*
G03*
X129059023Y-79731975I2J1861952D01*
G01*
%TO.N,Board_3-Net-(U1-Dy6)*%
X113185410Y-89759608D02*
X114661657Y-89759608D01*
X129311156Y-82067682D02*
X129761032Y-82067682D01*
X125823125Y-83675152D02*
X126100837Y-83397440D01*
X118496801Y-88171039D02*
X118635218Y-88032622D01*
X129311156Y-82067658D02*
G75*
G03*
X128068208Y-82582528I44J-1757842D01*
G01*
X114661657Y-89759586D02*
G75*
G03*
X116997188Y-88792199I43J3302886D01*
G01*
X128068208Y-82582531D02*
G75*
G03*
X126100837Y-83397440I-8J-2782269D01*
G01*
X116997188Y-88792182D02*
G75*
G03*
X118496800Y-88171038I12J2120782D01*
G01*
%TO.N,Board_3-Net-(U1-Dy7)*%
X128718046Y-84367944D02*
X128972126Y-84367944D01*
X131278429Y-83412642D02*
X132630086Y-82060985D01*
X128103828Y-84982163D02*
X128718046Y-84367944D01*
X124563741Y-86732259D02*
X125048125Y-86247876D01*
X128972126Y-84367953D02*
G75*
G03*
X130385218Y-83782622I-26J1998453D01*
G01*
X125048125Y-86247906D02*
G75*
G03*
X128103828Y-84982163I-25J4321406D01*
G01*
X130385218Y-83782625D02*
G75*
G03*
X131278428Y-83412641I-18J1263225D01*
G01*
X123475357Y-87183059D02*
G75*
G03*
X124563741Y-86732259I43J1539159D01*
G01*
%TO.N,Board_3-Net-(U1-Dy8)*%
X123476345Y-85224208D02*
X124098125Y-84602428D01*
X121662027Y-86503417D02*
X122562857Y-85602587D01*
X121073125Y-89292073D02*
X121073125Y-87925152D01*
X120708984Y-89741570D02*
X121098125Y-89352428D01*
X118073125Y-91175152D02*
X118656569Y-90591708D01*
X116224361Y-93023917D02*
X118073125Y-91175152D01*
X119557917Y-90218368D02*
G75*
G03*
X120708984Y-89741570I-17J1627868D01*
G01*
X115972248Y-93128378D02*
G75*
G03*
X116224361Y-93023917I-48J356578D01*
G01*
X121073151Y-89292073D02*
G75*
G03*
X121098126Y-89352427I85349J-27D01*
G01*
X122562857Y-85602550D02*
G75*
G03*
X123476344Y-85224207I43J1291850D01*
G01*
X121662043Y-86503433D02*
G75*
G03*
X121073125Y-87925152I1421757J-1421767D01*
G01*
X119557917Y-90218383D02*
G75*
G03*
X118656569Y-90591708I-17J-1274717D01*
G01*
%TO.N,Board_3-Net-(U1-Dy9)*%
X129863373Y-86424422D02*
X132904603Y-86424422D01*
X126116875Y-88134904D02*
X126387675Y-87864104D01*
X124106517Y-90145262D02*
X126116875Y-88134904D01*
X121796380Y-91249621D02*
X122048125Y-90997876D01*
X120470417Y-91798877D02*
G75*
G03*
X121796380Y-91249621I-17J1875177D01*
G01*
X129863373Y-86424404D02*
G75*
G03*
X127734716Y-87306141I27J-3010396D01*
G01*
X122048125Y-90997902D02*
G75*
G03*
X124106517Y-90145262I-25J2911002D01*
G01*
X127734716Y-87306140D02*
G75*
G03*
X126387675Y-87864104I-16J-1904960D01*
G01*
%TO.N,Board_4-Net-(J1-In)*%
X168400103Y-90520468D02*
X168380758Y-90520468D01*
X168380758Y-90520468D02*
X168894192Y-91033902D01*
%TO.N,Board_4-Net-(U1-Dy1)*%
X158653926Y-77346203D02*
X159117025Y-76883104D01*
X159117025Y-76883104D02*
X159117025Y-76377284D01*
X158485942Y-71794829D02*
X159145260Y-72454147D01*
X158485942Y-71323104D02*
X158485942Y-71794829D01*
X157597000Y-77784002D02*
G75*
G03*
X158653925Y-77346202I0J1494702D01*
G01*
X159943635Y-74381633D02*
G75*
G03*
X159145260Y-72454147I-2725835J33D01*
G01*
X158485937Y-71323104D02*
G75*
G03*
X157748016Y-69541594I-2519437J4D01*
G01*
X159943659Y-74381641D02*
G75*
G03*
X159117025Y-76377284I1995641J-1995659D01*
G01*
%TO.N,Board_4-Net-(U1-Dy10)*%
X157379453Y-94867174D02*
X159396498Y-92850129D01*
X161951180Y-91791945D02*
X164029525Y-89713600D01*
X165551462Y-89083193D02*
X165684866Y-88949789D01*
X159823275Y-92673333D02*
G75*
G03*
X159396498Y-92850129I25J-603567D01*
G01*
X164029525Y-89713630D02*
G75*
G03*
X165551462Y-89083193I-25J2152330D01*
G01*
X156888506Y-95070527D02*
G75*
G03*
X157379453Y-94867174I-6J694327D01*
G01*
X159823275Y-92673322D02*
G75*
G03*
X161951179Y-91791944I25J3009322D01*
G01*
%TO.N,Board_4-Net-(U1-Dy2)*%
X152675005Y-79105659D02*
X151236700Y-79105659D01*
X156323275Y-79173352D02*
X154877672Y-79173352D01*
X152675005Y-79105659D02*
X154273243Y-79105659D01*
X151073275Y-79173352D02*
X150089463Y-80157164D01*
X158547000Y-79429444D02*
X156941535Y-79429444D01*
X159429029Y-79064095D02*
X160029525Y-78463600D01*
X154493759Y-79014310D02*
G75*
G03*
X154877672Y-79173352I383941J383910D01*
G01*
X154273243Y-79105682D02*
G75*
G03*
X154493744Y-79014323I-43J311882D01*
G01*
X151236700Y-79105666D02*
G75*
G03*
X151073275Y-79173352I0J-231134D01*
G01*
X158547000Y-79429453D02*
G75*
G03*
X159429029Y-79064095I0J1247353D01*
G01*
X150089451Y-80157152D02*
G75*
G03*
X149648542Y-81221641I1064449J-1064448D01*
G01*
X156323259Y-79173368D02*
G75*
G03*
X156941535Y-79429444I618241J618268D01*
G01*
%TO.N,Board_4-Net-(U1-Dy3)*%
X152840601Y-80998429D02*
X154251928Y-80998429D01*
X154573275Y-81024382D02*
X154573275Y-82173352D01*
X154652805Y-80832380D02*
X155871230Y-82050805D01*
X156511182Y-82315882D02*
X156803479Y-82315882D01*
X156803479Y-82315870D02*
G75*
G03*
X158232538Y-81723946I21J2020970D01*
G01*
X154652815Y-80832390D02*
G75*
G03*
X154573275Y-81024382I191985J-192010D01*
G01*
X154251928Y-80998447D02*
G75*
G03*
X154652805Y-80832380I-28J566947D01*
G01*
X155871249Y-82050786D02*
G75*
G03*
X156511182Y-82315882I639951J639886D01*
G01*
%TO.N,Board_4-Net-(U1-Dy4)*%
X160573275Y-80923352D02*
X161684270Y-79812357D01*
X162644501Y-79105627D02*
X162117025Y-79633104D01*
X153228033Y-84030822D02*
X157135368Y-84030822D01*
X158882376Y-83509362D02*
X159940336Y-82451402D01*
X157135368Y-84030822D02*
X157623461Y-84030822D01*
X149009839Y-85546793D02*
X149568156Y-85546793D01*
X149568156Y-85546751D02*
G75*
G03*
X151073274Y-84923351I44J2128551D01*
G01*
X162117025Y-79633119D02*
G75*
G03*
X161684271Y-79812358I-25J-611981D01*
G01*
X157623461Y-84030809D02*
G75*
G03*
X158882376Y-83509362I39J1780309D01*
G01*
X153228033Y-84030843D02*
G75*
G03*
X151073275Y-84923352I-33J-3047257D01*
G01*
X163792548Y-78630132D02*
G75*
G03*
X162644501Y-79105627I-48J-1623568D01*
G01*
X159940357Y-82451423D02*
G75*
G03*
X160573275Y-80923352I-1528057J1528023D01*
G01*
%TO.N,Board_4-Net-(U1-Dy5)*%
X153347500Y-87004983D02*
X153083307Y-87004983D01*
X164352468Y-80665619D02*
X164742548Y-80275539D01*
X166059173Y-79730175D02*
X167604707Y-78184641D01*
X153347500Y-87004983D02*
X153347546Y-87004983D01*
X153083307Y-87004993D02*
G75*
G03*
X152073275Y-87423352I-7J-1428407D01*
G01*
X153347546Y-87005030D02*
G75*
G03*
X155011181Y-86315881I-46J2352730D01*
G01*
X163029525Y-81213624D02*
G75*
G03*
X164352468Y-80665619I-25J1870924D01*
G01*
X164742548Y-80275587D02*
G75*
G03*
X166059173Y-79730175I-48J1861987D01*
G01*
%TO.N,Board_4-Net-(U1-Dy6)*%
X155496951Y-88169239D02*
X155635368Y-88030822D01*
X162823275Y-83673352D02*
X163100987Y-83395640D01*
X150185560Y-89757808D02*
X151661807Y-89757808D01*
X166311306Y-82065882D02*
X166761182Y-82065882D01*
X166311306Y-82065894D02*
G75*
G03*
X165068358Y-82580728I-6J-1757806D01*
G01*
X165068358Y-82580696D02*
G75*
G03*
X163100987Y-83395640I42J-2782304D01*
G01*
X153997338Y-88790418D02*
G75*
G03*
X155496951Y-88169239I-38J2120818D01*
G01*
X151661807Y-89757821D02*
G75*
G03*
X153997337Y-88790398I-7J3302921D01*
G01*
%TO.N,Board_4-Net-(U1-Dy7)*%
X165103978Y-84980363D02*
X165718196Y-84366144D01*
X161563891Y-86730459D02*
X162048275Y-86246076D01*
X165718196Y-84366144D02*
X165972276Y-84366144D01*
X168278579Y-83410842D02*
X169630236Y-82059185D01*
X162048275Y-86246070D02*
G75*
G03*
X165103978Y-84980363I25J4321370D01*
G01*
X160475507Y-87181294D02*
G75*
G03*
X161563891Y-86730459I-7J1539194D01*
G01*
X165972276Y-84366118D02*
G75*
G03*
X167385368Y-83780822I24J1998418D01*
G01*
X167385368Y-83780790D02*
G75*
G03*
X168278579Y-83410842I32J1263190D01*
G01*
%TO.N,Board_4-Net-(U1-Dy8)*%
X158662177Y-86501617D02*
X159563007Y-85600787D01*
X155073275Y-91173352D02*
X155656719Y-90589908D01*
X158073275Y-89290273D02*
X158073275Y-87923352D01*
X160476495Y-85222408D02*
X161098275Y-84600628D01*
X153224511Y-93022117D02*
X155073275Y-91173352D01*
X157709134Y-89739770D02*
X158098275Y-89350628D01*
X158073286Y-89290273D02*
G75*
G03*
X158098275Y-89350628I85314J-27D01*
G01*
X159563007Y-85600786D02*
G75*
G03*
X160476495Y-85222408I-7J1291886D01*
G01*
X152972398Y-93126543D02*
G75*
G03*
X153224511Y-93022117I2J356543D01*
G01*
X158662203Y-86501643D02*
G75*
G03*
X158073275Y-87923352I1421697J-1421757D01*
G01*
X156558067Y-90216533D02*
G75*
G03*
X157709134Y-89739770I33J1627833D01*
G01*
X156558067Y-90216547D02*
G75*
G03*
X155656719Y-90589908I33J-1274753D01*
G01*
%TO.N,Board_4-Net-(U1-Dy9)*%
X166863523Y-86422622D02*
X169904753Y-86422622D01*
X158796530Y-91247821D02*
X159048275Y-90996076D01*
X163117025Y-88133104D02*
X163387825Y-87862304D01*
X161106667Y-90143462D02*
X163117025Y-88133104D01*
X164734866Y-87304305D02*
G75*
G03*
X163387826Y-87862305I34J-1904995D01*
G01*
X159048275Y-90996066D02*
G75*
G03*
X161106666Y-90143461I25J2910966D01*
G01*
X166863523Y-86422640D02*
G75*
G03*
X164734867Y-87304342I-23J-3010360D01*
G01*
X157470567Y-91797041D02*
G75*
G03*
X158796529Y-91247820I33J1875141D01*
G01*
%TO.N,Board_5-Net-(J1-In)*%
X205380908Y-90520468D02*
X205894342Y-91033902D01*
%TO.N,Board_5-Net-(U1-Dy1)*%
X195486092Y-71323104D02*
X195486092Y-71794829D01*
X195486092Y-71794829D02*
X196145410Y-72454147D01*
X196117175Y-76883104D02*
X196117175Y-76377284D01*
X195654076Y-77346203D02*
X196117175Y-76883104D01*
X194597150Y-77784038D02*
G75*
G03*
X195654076Y-77346203I-50J1494738D01*
G01*
X196943799Y-74381631D02*
G75*
G03*
X196117175Y-76377284I1995701J-1995669D01*
G01*
X196943770Y-74381633D02*
G75*
G03*
X196145410Y-72454147I-2725870J33D01*
G01*
X195486101Y-71323104D02*
G75*
G03*
X194748166Y-69541594I-2519401J4D01*
G01*
%TO.N,Board_5-Net-(U1-Dy10)*%
X194379603Y-94867174D02*
X196396648Y-92850129D01*
X198951330Y-91791945D02*
X201029675Y-89713600D01*
X191960987Y-96998200D02*
X193888656Y-95070531D01*
X202551612Y-89083193D02*
X202685016Y-88949789D01*
X196823425Y-92673358D02*
G75*
G03*
X198951330Y-91791945I-25J3009358D01*
G01*
X201029675Y-89713595D02*
G75*
G03*
X202551612Y-89083193I25J2152295D01*
G01*
X196823425Y-92673369D02*
G75*
G03*
X196396649Y-92850130I-25J-603531D01*
G01*
X193888656Y-95070491D02*
G75*
G03*
X194379602Y-94867173I44J694291D01*
G01*
%TO.N,Board_5-Net-(U1-Dy2)*%
X196429179Y-79064095D02*
X197029675Y-78463600D01*
X188073425Y-79173352D02*
X187089613Y-80157164D01*
X195547150Y-79429444D02*
X193941685Y-79429444D01*
X189675155Y-79105659D02*
X188236850Y-79105659D01*
X189675155Y-79105659D02*
X191273393Y-79105659D01*
X193323425Y-79173352D02*
X191877822Y-79173352D01*
X195547150Y-79429417D02*
G75*
G03*
X196429178Y-79064094I50J1247317D01*
G01*
X188236850Y-79105631D02*
G75*
G03*
X188073425Y-79173352I50J-231169D01*
G01*
X191493884Y-79014335D02*
G75*
G03*
X191877822Y-79173352I383916J383935D01*
G01*
X187089590Y-80157141D02*
G75*
G03*
X186648692Y-81221641I1064510J-1064459D01*
G01*
X191273393Y-79105647D02*
G75*
G03*
X191493895Y-79014324I7J311847D01*
G01*
X193323434Y-79173343D02*
G75*
G03*
X193941685Y-79429444I618266J618243D01*
G01*
%TO.N,Board_5-Net-(U1-Dy3)*%
X189840751Y-80998429D02*
X191252078Y-80998429D01*
X193511332Y-82315882D02*
X193803629Y-82315882D01*
X191573425Y-81024382D02*
X191573425Y-82173352D01*
X191652955Y-80832380D02*
X192871380Y-82050805D01*
X191252078Y-80998412D02*
G75*
G03*
X191652955Y-80832380I22J566912D01*
G01*
X191652955Y-80832380D02*
G75*
G03*
X191573425Y-81024382I192045J-192020D01*
G01*
X192871374Y-82050811D02*
G75*
G03*
X193511332Y-82315882I639926J639911D01*
G01*
X193803629Y-82315905D02*
G75*
G03*
X195232687Y-81723945I-29J2021005D01*
G01*
%TO.N,Board_5-Net-(U1-Dy4)*%
X190228183Y-84030822D02*
X194135518Y-84030822D01*
X199644651Y-79105627D02*
X199117175Y-79633104D01*
X194135518Y-84030822D02*
X194623611Y-84030822D01*
X195882526Y-83509362D02*
X196940486Y-82451402D01*
X186009989Y-85546793D02*
X186568306Y-85546793D01*
X197573425Y-80923352D02*
X198684420Y-79812357D01*
X190228183Y-84030808D02*
G75*
G03*
X188073426Y-84923353I17J-3047292D01*
G01*
X200792698Y-78630097D02*
G75*
G03*
X199644651Y-79105627I2J-1623603D01*
G01*
X199117175Y-79633083D02*
G75*
G03*
X198684420Y-79812357I25J-612017D01*
G01*
X194623611Y-84030844D02*
G75*
G03*
X195882525Y-83509361I-11J1780344D01*
G01*
X186568306Y-85546787D02*
G75*
G03*
X188073425Y-84923352I-6J2128587D01*
G01*
X196940517Y-82451433D02*
G75*
G03*
X197573425Y-80923352I-1528117J1528033D01*
G01*
%TO.N,Board_5-Net-(U1-Dy5)*%
X190347650Y-87004983D02*
X190083457Y-87004983D01*
X190347650Y-87004983D02*
X190347696Y-87004983D01*
X203059323Y-79730175D02*
X204604857Y-78184641D01*
X201352618Y-80665619D02*
X201742698Y-80275539D01*
X190347696Y-87004995D02*
G75*
G03*
X192011332Y-86315882I4J2352695D01*
G01*
X200029675Y-81213589D02*
G75*
G03*
X201352618Y-80665619I25J1870889D01*
G01*
X201742698Y-80275552D02*
G75*
G03*
X203059323Y-79730175I2J1861952D01*
G01*
X190083457Y-87004958D02*
G75*
G03*
X189073425Y-87423352I43J-1428442D01*
G01*
%TO.N,Board_5-Net-(U1-Dy6)*%
X187185710Y-89757808D02*
X188661957Y-89757808D01*
X199823425Y-83673352D02*
X200101137Y-83395640D01*
X203311456Y-82065882D02*
X203761332Y-82065882D01*
X192497101Y-88169239D02*
X192635518Y-88030822D01*
X190997488Y-88790382D02*
G75*
G03*
X192497100Y-88169238I12J2120782D01*
G01*
X202068508Y-82580731D02*
G75*
G03*
X200101137Y-83395640I-8J-2782269D01*
G01*
X188661957Y-89757786D02*
G75*
G03*
X190997488Y-88790399I43J3302886D01*
G01*
X203311456Y-82065858D02*
G75*
G03*
X202068508Y-82580728I44J-1757842D01*
G01*
%TO.N,Board_5-Net-(U1-Dy7)*%
X202718346Y-84366144D02*
X202972426Y-84366144D01*
X202104128Y-84980363D02*
X202718346Y-84366144D01*
X205278729Y-83410842D02*
X206630386Y-82059185D01*
X198564041Y-86730459D02*
X199048425Y-86246076D01*
X199048425Y-86246106D02*
G75*
G03*
X202104128Y-84980363I-25J4321406D01*
G01*
X204385518Y-83780825D02*
G75*
G03*
X205278728Y-83410841I-18J1263225D01*
G01*
X202972426Y-84366153D02*
G75*
G03*
X204385518Y-83780822I-26J1998453D01*
G01*
X197475657Y-87181259D02*
G75*
G03*
X198564041Y-86730459I43J1539159D01*
G01*
%TO.N,Board_5-Net-(U1-Dy8)*%
X192073425Y-91173352D02*
X192656869Y-90589908D01*
X195073425Y-89290273D02*
X195073425Y-87923352D01*
X194709284Y-89739770D02*
X195098425Y-89350628D01*
X190224661Y-93022117D02*
X192073425Y-91173352D01*
X195662327Y-86501617D02*
X196563157Y-85600787D01*
X197476645Y-85222408D02*
X198098425Y-84600628D01*
X195662343Y-86501633D02*
G75*
G03*
X195073425Y-87923352I1421757J-1421767D01*
G01*
X193558217Y-90216583D02*
G75*
G03*
X192656869Y-90589908I-17J-1274717D01*
G01*
X189972548Y-93126578D02*
G75*
G03*
X190224661Y-93022117I-48J356578D01*
G01*
X193558217Y-90216568D02*
G75*
G03*
X194709284Y-89739770I-17J1627868D01*
G01*
X196563157Y-85600750D02*
G75*
G03*
X197476644Y-85222407I43J1291850D01*
G01*
X195073451Y-89290273D02*
G75*
G03*
X195098426Y-89350627I85349J-27D01*
G01*
%TO.N,Board_5-Net-(U1-Dy9)*%
X200117175Y-88133104D02*
X200387975Y-87862304D01*
X195796680Y-91247821D02*
X196048425Y-90996076D01*
X203863673Y-86422622D02*
X206904903Y-86422622D01*
X198106817Y-90143462D02*
X200117175Y-88133104D01*
X203863673Y-86422604D02*
G75*
G03*
X201735016Y-87304341I27J-3010396D01*
G01*
X194470717Y-91797077D02*
G75*
G03*
X195796680Y-91247821I-17J1875177D01*
G01*
X201735016Y-87304340D02*
G75*
G03*
X200387975Y-87862304I-16J-1904960D01*
G01*
X196048425Y-90996102D02*
G75*
G03*
X198106817Y-90143462I-25J2911002D01*
G01*
%TO.N,Board_6-Net-(U1-Dy1)*%
X121485792Y-108325054D02*
X121485792Y-108796779D01*
X121485792Y-108796779D02*
X122145110Y-109456097D01*
X121653776Y-114348153D02*
X122116875Y-113885054D01*
X122116875Y-113885054D02*
X122116875Y-113379234D01*
X122943505Y-111383583D02*
G75*
G03*
X122145109Y-109456098I-2725905J-17D01*
G01*
X121485837Y-108325054D02*
G75*
G03*
X120747866Y-106543544I-2519437J-46D01*
G01*
X120596850Y-114785973D02*
G75*
G03*
X121653776Y-114348153I-50J1494773D01*
G01*
X122943474Y-111383556D02*
G75*
G03*
X122116875Y-113379234I1995726J-1995644D01*
G01*
%TO.N,Board_6-Net-(U1-Dy10)*%
X118112337Y-133848499D02*
X119888356Y-132072481D01*
X124951030Y-128793895D02*
X127029375Y-126715550D01*
X128551312Y-126085143D02*
X128684716Y-125951739D01*
X120379303Y-131869124D02*
X122396348Y-129852079D01*
X117779375Y-133986387D02*
G75*
G03*
X118112336Y-133848498I25J470887D01*
G01*
X127029375Y-126715530D02*
G75*
G03*
X128551312Y-126085143I25J2152330D01*
G01*
X122823125Y-129675322D02*
G75*
G03*
X124951029Y-128793894I-25J3009322D01*
G01*
X122823125Y-129675333D02*
G75*
G03*
X122396348Y-129852079I-25J-603567D01*
G01*
X119888356Y-132072456D02*
G75*
G03*
X120379303Y-131869124I44J694256D01*
G01*
%TO.N,Board_6-Net-(U1-Dy2)*%
X122428879Y-116066045D02*
X123029375Y-115465550D01*
X114073125Y-116175302D02*
X113089313Y-117159114D01*
X115674855Y-116107609D02*
X117273093Y-116107609D01*
X115674855Y-116107609D02*
X114236550Y-116107609D01*
X121546850Y-116431394D02*
X119941385Y-116431394D01*
X119323125Y-116175302D02*
X117877522Y-116175302D01*
X121546850Y-116431353D02*
G75*
G03*
X122428879Y-116066045I50J1247353D01*
G01*
X119323124Y-116175303D02*
G75*
G03*
X119941385Y-116431394I618276J618303D01*
G01*
X113089315Y-117159116D02*
G75*
G03*
X112648392Y-118223591I1064485J-1064484D01*
G01*
X117493574Y-116016295D02*
G75*
G03*
X117877522Y-116175302I383926J383995D01*
G01*
X114236550Y-116107566D02*
G75*
G03*
X114073125Y-116175302I50J-231134D01*
G01*
X117273093Y-116107612D02*
G75*
G03*
X117493595Y-116016274I7J311812D01*
G01*
%TO.N,Board_6-Net-(U1-Dy3)*%
X117573125Y-118026332D02*
X117573125Y-119175302D01*
X115840451Y-118000379D02*
X117251778Y-118000379D01*
X117652655Y-117834330D02*
X118871080Y-119052755D01*
X119511032Y-119317832D02*
X119803329Y-119317832D01*
X117251778Y-118000376D02*
G75*
G03*
X117652654Y-117834329I22J566876D01*
G01*
X119803329Y-119317841D02*
G75*
G03*
X121232388Y-118725896I-29J2021041D01*
G01*
X117652630Y-117834305D02*
G75*
G03*
X117573125Y-118026332I192070J-191995D01*
G01*
X118871063Y-119052772D02*
G75*
G03*
X119511032Y-119317832I639937J639972D01*
G01*
%TO.N,Board_6-Net-(U1-Dy4)*%
X121882226Y-120511312D02*
X122940186Y-119453352D01*
X125644351Y-116107577D02*
X125116875Y-116635054D01*
X120135218Y-121032772D02*
X120623311Y-121032772D01*
X123573125Y-117925302D02*
X124684120Y-116814307D01*
X116227883Y-121032772D02*
X120135218Y-121032772D01*
X112009689Y-122548743D02*
X112568006Y-122548743D01*
X126792398Y-115632032D02*
G75*
G03*
X125644351Y-116107577I2J-1623568D01*
G01*
X116227883Y-121032772D02*
G75*
G03*
X114073125Y-121925302I17J-3047328D01*
G01*
X125116875Y-116635048D02*
G75*
G03*
X124684120Y-116814307I25J-612052D01*
G01*
X112568006Y-122548751D02*
G75*
G03*
X114073124Y-121925301I-6J2128551D01*
G01*
X122940192Y-119453358D02*
G75*
G03*
X123573125Y-117925302I-1528092J1528058D01*
G01*
X120623311Y-121032780D02*
G75*
G03*
X121882226Y-120511312I-11J1780380D01*
G01*
%TO.N,Board_6-Net-(U1-Dy5)*%
X116347350Y-124006933D02*
X116083157Y-124006933D01*
X116347350Y-124006933D02*
X116347396Y-124006933D01*
X129059023Y-116732125D02*
X130604557Y-115186591D01*
X127352318Y-117667569D02*
X127742398Y-117277489D01*
X116083157Y-124006893D02*
G75*
G03*
X115073125Y-124425302I43J-1428407D01*
G01*
X116347396Y-124006930D02*
G75*
G03*
X118011031Y-123317831I4J2352730D01*
G01*
X126029375Y-118215524D02*
G75*
G03*
X127352318Y-117667569I25J1870924D01*
G01*
X127742398Y-117277487D02*
G75*
G03*
X129059023Y-116732125I2J1861987D01*
G01*
%TO.N,Board_6-Net-(U1-Dy6)*%
X118496801Y-125171189D02*
X118635218Y-125032772D01*
X125823125Y-120675302D02*
X126100837Y-120397590D01*
X129311156Y-119067832D02*
X129761032Y-119067832D01*
X113185410Y-126759758D02*
X114661657Y-126759758D01*
X129311156Y-119067794D02*
G75*
G03*
X128068208Y-119582678I44J-1757806D01*
G01*
X114661657Y-126759721D02*
G75*
G03*
X116997187Y-125792348I43J3302921D01*
G01*
X128068208Y-119582696D02*
G75*
G03*
X126100837Y-120397590I-8J-2782304D01*
G01*
X116997188Y-125792347D02*
G75*
G03*
X118496801Y-125171189I12J2120747D01*
G01*
%TO.N,Board_6-Net-(U1-Dy7)*%
X124563741Y-123732409D02*
X125048125Y-123248026D01*
X128718046Y-121368094D02*
X128972126Y-121368094D01*
X128103828Y-121982313D02*
X128718046Y-121368094D01*
X131278429Y-120412792D02*
X132630086Y-119061135D01*
X128972126Y-121368118D02*
G75*
G03*
X130385218Y-120782772I-26J1998418D01*
G01*
X130385218Y-120782790D02*
G75*
G03*
X131278429Y-120412792I-18J1263190D01*
G01*
X123475357Y-124183194D02*
G75*
G03*
X124563741Y-123732409I43J1539194D01*
G01*
X125048125Y-123248041D02*
G75*
G03*
X128103828Y-121982313I-25J4321441D01*
G01*
%TO.N,Board_6-Net-(U1-Dy8)*%
X123476345Y-122224358D02*
X124098125Y-121602578D01*
X120708984Y-126741720D02*
X121098125Y-126352578D01*
X118073125Y-128175302D02*
X118656569Y-127591858D01*
X121662027Y-123503567D02*
X122562857Y-122602737D01*
X116224361Y-130024067D02*
X118073125Y-128175302D01*
X121073125Y-126292223D02*
X121073125Y-124925302D01*
X121662018Y-123503558D02*
G75*
G03*
X121073125Y-124925302I1421782J-1421742D01*
G01*
X121073115Y-126292223D02*
G75*
G03*
X121098125Y-126352578I85385J23D01*
G01*
X119557917Y-127218533D02*
G75*
G03*
X120708984Y-126741720I-17J1627833D01*
G01*
X115972248Y-130128513D02*
G75*
G03*
X116224360Y-130024066I-48J356613D01*
G01*
X122562857Y-122602715D02*
G75*
G03*
X123476345Y-122224358I43J1291815D01*
G01*
X119557917Y-127218518D02*
G75*
G03*
X118656569Y-127591858I-17J-1274682D01*
G01*
%TO.N,Board_6-Net-(U1-Dy9)*%
X124106517Y-127145412D02*
X126116875Y-125135054D01*
X126116875Y-125135054D02*
X126387675Y-124864254D01*
X121796380Y-128249771D02*
X122048125Y-127998026D01*
X129863373Y-123424572D02*
X132904603Y-123424572D01*
X122048125Y-127998037D02*
G75*
G03*
X124106517Y-127145412I-25J2911037D01*
G01*
X127734716Y-124306305D02*
G75*
G03*
X126387676Y-124864255I-16J-1904995D01*
G01*
X120470417Y-128799012D02*
G75*
G03*
X121796380Y-128249771I-17J1875212D01*
G01*
X129863373Y-123424569D02*
G75*
G03*
X127734716Y-124306291I27J-3010431D01*
G01*
%TO.N,Board_7-Net-(U1-Dy1)*%
X159117025Y-113883254D02*
X159117025Y-113377434D01*
X158485942Y-108323254D02*
X158485942Y-108794979D01*
X158653926Y-114346353D02*
X159117025Y-113883254D01*
X158485942Y-108794979D02*
X159145260Y-109454297D01*
X158485972Y-108323254D02*
G75*
G03*
X157748016Y-106541744I-2519472J-46D01*
G01*
X159943670Y-111381783D02*
G75*
G03*
X159145260Y-109454297I-2725870J-17D01*
G01*
X157597000Y-114784138D02*
G75*
G03*
X158653926Y-114346353I0J1494738D01*
G01*
X159943634Y-111381766D02*
G75*
G03*
X159117025Y-113377434I1995666J-1995634D01*
G01*
%TO.N,Board_7-Net-(U1-Dy10)*%
X161951180Y-128792095D02*
X164029525Y-126713750D01*
X155112487Y-133846699D02*
X156888506Y-132070681D01*
X157379453Y-131867324D02*
X159396498Y-129850279D01*
X165551462Y-126083343D02*
X165684866Y-125949939D01*
X159823275Y-129673498D02*
G75*
G03*
X159396498Y-129850279I25J-603602D01*
G01*
X164029525Y-126713765D02*
G75*
G03*
X165551461Y-126083342I-25J2152365D01*
G01*
X156888506Y-132070691D02*
G75*
G03*
X157379452Y-131867323I-6J694291D01*
G01*
X159823275Y-129673487D02*
G75*
G03*
X161951180Y-128792095I25J3009287D01*
G01*
X154779525Y-133984623D02*
G75*
G03*
X155112487Y-133846699I-25J470923D01*
G01*
%TO.N,Board_7-Net-(U1-Dy2)*%
X158547000Y-116429594D02*
X156941535Y-116429594D01*
X152675005Y-116105809D02*
X154273243Y-116105809D01*
X152675005Y-116105809D02*
X151236700Y-116105809D01*
X156323275Y-116173502D02*
X154877672Y-116173502D01*
X159429029Y-116064245D02*
X160029525Y-115463750D01*
X151073275Y-116173502D02*
X150089463Y-117157314D01*
X158547000Y-116429588D02*
G75*
G03*
X159429029Y-116064245I0J1247388D01*
G01*
X154493749Y-116014470D02*
G75*
G03*
X154877672Y-116173502I383951J383970D01*
G01*
X151236700Y-116105802D02*
G75*
G03*
X151073276Y-116173503I0J-231098D01*
G01*
X156323249Y-116173528D02*
G75*
G03*
X156941535Y-116429594I618251J618328D01*
G01*
X154273243Y-116105847D02*
G75*
G03*
X154493745Y-116014474I-43J311847D01*
G01*
X150089476Y-117157327D02*
G75*
G03*
X149648542Y-118221791I1064424J-1064473D01*
G01*
%TO.N,Board_7-Net-(U1-Dy3)*%
X154652805Y-117832530D02*
X155871230Y-119050955D01*
X156511182Y-119316032D02*
X156803479Y-119316032D01*
X152840601Y-117998579D02*
X154251928Y-117998579D01*
X154573275Y-118024532D02*
X154573275Y-119173502D01*
X154251928Y-117998612D02*
G75*
G03*
X154652805Y-117832530I-28J566912D01*
G01*
X156803479Y-119316005D02*
G75*
G03*
X158232537Y-118724095I21J2021005D01*
G01*
X155871238Y-119050947D02*
G75*
G03*
X156511182Y-119316032I639962J639947D01*
G01*
X154652790Y-117832515D02*
G75*
G03*
X154573275Y-118024532I192010J-191985D01*
G01*
%TO.N,Board_7-Net-(U1-Dy4)*%
X162644501Y-116105777D02*
X162117025Y-116633254D01*
X160573275Y-117923502D02*
X161684270Y-116812507D01*
X149009839Y-122546943D02*
X149568156Y-122546943D01*
X153228033Y-121030972D02*
X157135368Y-121030972D01*
X157135368Y-121030972D02*
X157623461Y-121030972D01*
X158882376Y-120509512D02*
X159940336Y-119451552D01*
X149568156Y-122546916D02*
G75*
G03*
X151073275Y-121923502I44J2128516D01*
G01*
X153228033Y-121031008D02*
G75*
G03*
X151073276Y-121923503I-33J-3047292D01*
G01*
X163792548Y-115630268D02*
G75*
G03*
X162644502Y-116105778I-48J-1623532D01*
G01*
X157623461Y-121030944D02*
G75*
G03*
X158882375Y-120509511I39J1780344D01*
G01*
X159940332Y-119451548D02*
G75*
G03*
X160573275Y-117923502I-1528032J1528048D01*
G01*
X162117025Y-116633283D02*
G75*
G03*
X161684270Y-116812507I-25J-612017D01*
G01*
%TO.N,Board_7-Net-(U1-Dy5)*%
X166059173Y-116730325D02*
X167604707Y-115184791D01*
X153347500Y-124005133D02*
X153347546Y-124005133D01*
X164352468Y-117665769D02*
X164742548Y-117275689D01*
X153347500Y-124005133D02*
X153083307Y-124005133D01*
X153347546Y-124005166D02*
G75*
G03*
X155011182Y-123316032I-46J2352766D01*
G01*
X153083307Y-124005129D02*
G75*
G03*
X152073276Y-124423503I-7J-1428371D01*
G01*
X164742548Y-117275722D02*
G75*
G03*
X166059172Y-116730324I-48J1862022D01*
G01*
X163029525Y-118213759D02*
G75*
G03*
X164352467Y-117665768I-25J1870959D01*
G01*
%TO.N,Board_7-Net-(U1-Dy6)*%
X150185560Y-126757958D02*
X151661807Y-126757958D01*
X162823275Y-120673502D02*
X163100987Y-120395790D01*
X166311306Y-119066032D02*
X166761182Y-119066032D01*
X155496951Y-125169389D02*
X155635368Y-125030972D01*
X153997338Y-125790582D02*
G75*
G03*
X155496950Y-125169388I-38J2120782D01*
G01*
X165068358Y-119580860D02*
G75*
G03*
X163100987Y-120395790I42J-2782340D01*
G01*
X151661807Y-126757957D02*
G75*
G03*
X153997338Y-125790549I-7J3302957D01*
G01*
X166311306Y-119066029D02*
G75*
G03*
X165068358Y-119580878I-6J-1757771D01*
G01*
%TO.N,Board_7-Net-(U1-Dy7)*%
X165718196Y-121366294D02*
X165972276Y-121366294D01*
X168278579Y-120410992D02*
X169630236Y-119059335D01*
X161563891Y-123730609D02*
X162048275Y-123246226D01*
X165103978Y-121980513D02*
X165718196Y-121366294D01*
X165972276Y-121366282D02*
G75*
G03*
X167385367Y-120780971I24J1998382D01*
G01*
X167385368Y-120780955D02*
G75*
G03*
X168278579Y-120410992I32J1263155D01*
G01*
X162048275Y-123246206D02*
G75*
G03*
X165103978Y-121980513I25J4321406D01*
G01*
X160475507Y-124181430D02*
G75*
G03*
X161563891Y-123730609I-7J1539230D01*
G01*
%TO.N,Board_7-Net-(U1-Dy8)*%
X158662177Y-123501767D02*
X159563007Y-122600937D01*
X155073275Y-128173502D02*
X155656719Y-127590058D01*
X160476495Y-122222558D02*
X161098275Y-121600778D01*
X157709134Y-126739920D02*
X158098275Y-126350778D01*
X158073275Y-126290423D02*
X158073275Y-124923502D01*
X153224511Y-130022267D02*
X155073275Y-128173502D01*
X152972398Y-130126678D02*
G75*
G03*
X153224511Y-130022267I2J356578D01*
G01*
X158662178Y-123501768D02*
G75*
G03*
X158073275Y-124923502I1421722J-1421732D01*
G01*
X156558067Y-127216697D02*
G75*
G03*
X157709133Y-126739919I33J1627797D01*
G01*
X156558067Y-127216683D02*
G75*
G03*
X155656719Y-127590058I33J-1274717D01*
G01*
X158073251Y-126290423D02*
G75*
G03*
X158098276Y-126350777I85349J23D01*
G01*
X159563007Y-122600950D02*
G75*
G03*
X160476494Y-122222557I-7J1291850D01*
G01*
%TO.N,Board_7-Net-(U1-Dy9)*%
X163117025Y-125133254D02*
X163387825Y-124862454D01*
X161106667Y-127143612D02*
X163117025Y-125133254D01*
X158796530Y-128247971D02*
X159048275Y-127996226D01*
X166863523Y-123422772D02*
X169904753Y-123422772D01*
X157470567Y-128797177D02*
G75*
G03*
X158796530Y-128247971I33J1875177D01*
G01*
X166863523Y-123422804D02*
G75*
G03*
X164734866Y-124304491I-23J-3010396D01*
G01*
X159048275Y-127996202D02*
G75*
G03*
X161106667Y-127143612I25J2911002D01*
G01*
X164734866Y-124304469D02*
G75*
G03*
X163387825Y-124862454I34J-1905031D01*
G01*
%TO.N,Board_8-Net-(U1-Dy1)*%
X195486092Y-108323254D02*
X195486092Y-108794979D01*
X195486092Y-108794979D02*
X196145410Y-109454297D01*
X195654076Y-114346353D02*
X196117175Y-113883254D01*
X196117175Y-113883254D02*
X196117175Y-113377434D01*
X196943805Y-111381783D02*
G75*
G03*
X196145409Y-109454298I-2725905J-17D01*
G01*
X194597150Y-114784173D02*
G75*
G03*
X195654076Y-114346353I-50J1494773D01*
G01*
X195486137Y-108323254D02*
G75*
G03*
X194748166Y-106541744I-2519437J-46D01*
G01*
X196943774Y-111381756D02*
G75*
G03*
X196117175Y-113377434I1995726J-1995644D01*
G01*
%TO.N,Board_8-Net-(U1-Dy10)*%
X202551612Y-126083343D02*
X202685016Y-125949939D01*
X192112637Y-133846699D02*
X193888656Y-132070681D01*
X194379603Y-131867324D02*
X196396648Y-129850279D01*
X198951330Y-128792095D02*
X201029675Y-126713750D01*
X193888656Y-132070656D02*
G75*
G03*
X194379603Y-131867324I44J694256D01*
G01*
X196823425Y-129673533D02*
G75*
G03*
X196396648Y-129850279I-25J-603567D01*
G01*
X191779675Y-133984587D02*
G75*
G03*
X192112636Y-133846698I25J470887D01*
G01*
X196823425Y-129673522D02*
G75*
G03*
X198951329Y-128792094I-25J3009322D01*
G01*
X201029675Y-126713730D02*
G75*
G03*
X202551612Y-126083343I25J2152330D01*
G01*
%TO.N,Board_8-Net-(U1-Dy2)*%
X193323425Y-116173502D02*
X191877822Y-116173502D01*
X196429179Y-116064245D02*
X197029675Y-115463750D01*
X188073425Y-116173502D02*
X187089613Y-117157314D01*
X189675155Y-116105809D02*
X191273393Y-116105809D01*
X195547150Y-116429594D02*
X193941685Y-116429594D01*
X189675155Y-116105809D02*
X188236850Y-116105809D01*
X195547150Y-116429553D02*
G75*
G03*
X196429179Y-116064245I50J1247353D01*
G01*
X191493874Y-116014495D02*
G75*
G03*
X191877822Y-116173502I383926J383995D01*
G01*
X187089615Y-117157316D02*
G75*
G03*
X186648692Y-118221791I1064485J-1064484D01*
G01*
X188236850Y-116105766D02*
G75*
G03*
X188073425Y-116173502I50J-231134D01*
G01*
X191273393Y-116105812D02*
G75*
G03*
X191493895Y-116014474I7J311812D01*
G01*
X193323424Y-116173503D02*
G75*
G03*
X193941685Y-116429594I618276J618303D01*
G01*
%TO.N,Board_8-Net-(U1-Dy3)*%
X189840751Y-117998579D02*
X191252078Y-117998579D01*
X191573425Y-118024532D02*
X191573425Y-119173502D01*
X193511332Y-119316032D02*
X193803629Y-119316032D01*
X191652955Y-117832530D02*
X192871380Y-119050955D01*
X191252078Y-117998576D02*
G75*
G03*
X191652954Y-117832529I22J566876D01*
G01*
X193803629Y-119316041D02*
G75*
G03*
X195232688Y-118724096I-29J2021041D01*
G01*
X191652930Y-117832505D02*
G75*
G03*
X191573425Y-118024532I192070J-191995D01*
G01*
X192871363Y-119050972D02*
G75*
G03*
X193511332Y-119316032I639937J639972D01*
G01*
%TO.N,Board_8-Net-(U1-Dy4)*%
X195882526Y-120509512D02*
X196940486Y-119451552D01*
X190228183Y-121030972D02*
X194135518Y-121030972D01*
X197573425Y-117923502D02*
X198684420Y-116812507D01*
X199644651Y-116105777D02*
X199117175Y-116633254D01*
X194135518Y-121030972D02*
X194623611Y-121030972D01*
X186009989Y-122546943D02*
X186568306Y-122546943D01*
X186568306Y-122546951D02*
G75*
G03*
X188073424Y-121923501I-6J2128551D01*
G01*
X200792698Y-115630232D02*
G75*
G03*
X199644651Y-116105777I2J-1623568D01*
G01*
X196940492Y-119451558D02*
G75*
G03*
X197573425Y-117923502I-1528092J1528058D01*
G01*
X194623611Y-121030980D02*
G75*
G03*
X195882526Y-120509512I-11J1780380D01*
G01*
X199117175Y-116633248D02*
G75*
G03*
X198684420Y-116812507I25J-612052D01*
G01*
X190228183Y-121030972D02*
G75*
G03*
X188073425Y-121923502I17J-3047328D01*
G01*
%TO.N,Board_8-Net-(U1-Dy5)*%
X190347650Y-124005133D02*
X190347696Y-124005133D01*
X203059323Y-116730325D02*
X204604857Y-115184791D01*
X190347650Y-124005133D02*
X190083457Y-124005133D01*
X201352618Y-117665769D02*
X201742698Y-117275689D01*
X201742698Y-117275687D02*
G75*
G03*
X203059323Y-116730325I2J1861987D01*
G01*
X190083457Y-124005093D02*
G75*
G03*
X189073425Y-124423502I43J-1428407D01*
G01*
X200029675Y-118213724D02*
G75*
G03*
X201352618Y-117665769I25J1870924D01*
G01*
X190347696Y-124005130D02*
G75*
G03*
X192011331Y-123316031I4J2352730D01*
G01*
%TO.N,Board_8-Net-(U1-Dy6)*%
X187185710Y-126757958D02*
X188661957Y-126757958D01*
X199823425Y-120673502D02*
X200101137Y-120395790D01*
X203311456Y-119066032D02*
X203761332Y-119066032D01*
X192497101Y-125169389D02*
X192635518Y-125030972D01*
X188661957Y-126757921D02*
G75*
G03*
X190997487Y-125790548I43J3302921D01*
G01*
X203311456Y-119065994D02*
G75*
G03*
X202068508Y-119580878I44J-1757806D01*
G01*
X202068508Y-119580896D02*
G75*
G03*
X200101137Y-120395790I-8J-2782304D01*
G01*
X190997488Y-125790547D02*
G75*
G03*
X192497101Y-125169389I12J2120747D01*
G01*
%TO.N,Board_8-Net-(U1-Dy7)*%
X202718346Y-121366294D02*
X202972426Y-121366294D01*
X202104128Y-121980513D02*
X202718346Y-121366294D01*
X198564041Y-123730609D02*
X199048425Y-123246226D01*
X205278729Y-120410992D02*
X206630386Y-119059335D01*
X199048425Y-123246241D02*
G75*
G03*
X202104128Y-121980513I-25J4321441D01*
G01*
X197475657Y-124181394D02*
G75*
G03*
X198564041Y-123730609I43J1539194D01*
G01*
X202972426Y-121366318D02*
G75*
G03*
X204385518Y-120780972I-26J1998418D01*
G01*
X204385518Y-120780990D02*
G75*
G03*
X205278729Y-120410992I-18J1263190D01*
G01*
%TO.N,Board_8-Net-(U1-Dy8)*%
X195073425Y-126290423D02*
X195073425Y-124923502D01*
X192073425Y-128173502D02*
X192656869Y-127590058D01*
X197476645Y-122222558D02*
X198098425Y-121600778D01*
X195662327Y-123501767D02*
X196563157Y-122600937D01*
X190224661Y-130022267D02*
X192073425Y-128173502D01*
X194709284Y-126739920D02*
X195098425Y-126350778D01*
X195662318Y-123501758D02*
G75*
G03*
X195073425Y-124923502I1421782J-1421742D01*
G01*
X195073415Y-126290423D02*
G75*
G03*
X195098425Y-126350778I85385J23D01*
G01*
X196563157Y-122600915D02*
G75*
G03*
X197476645Y-122222558I43J1291815D01*
G01*
X193558217Y-127216718D02*
G75*
G03*
X192656869Y-127590058I-17J-1274682D01*
G01*
X193558217Y-127216733D02*
G75*
G03*
X194709284Y-126739920I-17J1627833D01*
G01*
X189972548Y-130126713D02*
G75*
G03*
X190224660Y-130022266I-48J356613D01*
G01*
%TO.N,Board_8-Net-(U1-Dy9)*%
X198106817Y-127143612D02*
X200117175Y-125133254D01*
X200117175Y-125133254D02*
X200387975Y-124862454D01*
X195796680Y-128247971D02*
X196048425Y-127996226D01*
X203863673Y-123422772D02*
X206904903Y-123422772D01*
X203863673Y-123422769D02*
G75*
G03*
X201735016Y-124304491I27J-3010431D01*
G01*
X194470717Y-128797212D02*
G75*
G03*
X195796680Y-128247971I-17J1875212D01*
G01*
X201735016Y-124304505D02*
G75*
G03*
X200387976Y-124862455I-16J-1904995D01*
G01*
X196048425Y-127996237D02*
G75*
G03*
X198106817Y-127143612I-25J2911037D01*
G01*
%TD*%
M02*
