M48
; DRILL file {KiCad 7.0.9} date Wed Oct 30 14:50:43 2024
; FORMAT={-:-/ absolute / inch / decimal}
; #@! TF.CreationDate,2024-10-30T14:50:43+01:00
; #@! TF.GenerationSoftware,Kicad,Pcbnew,7.0.9
; #@! TF.FileFunction,Plated,1,2,PTH
FMAT,2
INCH
; #@! TA.AperFunction,Plated,PTH,ViaDrill
T1C0.0157
; #@! TA.AperFunction,Plated,PTH,ComponentDrill
T2C0.0260
; #@! TA.AperFunction,Plated,PTH,ComponentDrill
T3C0.0331
; #@! TA.AperFunction,Plated,PTH,ComponentDrill
T4C0.0433
; #@! TA.AperFunction,Plated,PTH,ComponentDrill
T5C0.1339
%
G90
G05
T1
X4.5304Y-3.4419
X4.5304Y-4.8986
X4.5305Y-1.9852
X4.6289Y-3.2352
X4.6289Y-4.6919
X4.6289Y-1.7785
X4.6504Y-3.9098
X4.6505Y-2.4514
X4.6514Y-5.3671
X4.9537Y-3.2943
X4.9537Y-4.751
X4.9537Y-1.8376
X5.9871Y-3.4419
X5.9871Y-4.8986
X5.9872Y-1.9852
X6.0856Y-3.2352
X6.0856Y-4.6919
X6.0856Y-1.7785
X6.1078Y-5.3651
X6.1087Y-2.4576
X6.1278Y-3.919
X6.4104Y-3.2942
X6.4104Y-4.7509
X6.4104Y-1.8375
X7.4438Y-3.4419
X7.4438Y-4.8986
X7.4439Y-1.9852
X7.5423Y-3.2352
X7.5423Y-4.6919
X7.5423Y-1.7785
X7.5492Y-2.4643
X7.5661Y-5.3701
X7.5851Y-3.9137
X7.8671Y-3.2942
X7.8671Y-4.7509
X7.8671Y-1.8375
T3
X4.2254Y-3.8521
X4.2254Y-3.9521
X4.2254Y-5.3088
X4.2254Y-5.4088
X4.2255Y-2.3954
X4.2255Y-2.4954
X4.2754Y-3.9021
X4.2754Y-5.3588
X4.2755Y-2.4454
X4.3254Y-3.8521
X4.3254Y-3.9521
X4.3254Y-5.3088
X4.3254Y-5.4088
X4.3255Y-2.3954
X4.3255Y-2.4954
X5.6821Y-3.852
X5.6821Y-3.952
X5.6821Y-5.3087
X5.6821Y-5.4087
X5.6822Y-2.3953
X5.6822Y-2.4953
X5.7321Y-3.902
X5.7321Y-5.3587
X5.7322Y-2.4453
X5.7821Y-3.852
X5.7821Y-3.952
X5.7821Y-5.3087
X5.7821Y-5.4087
X5.7822Y-2.3953
X5.7822Y-2.4953
X7.1388Y-3.852
X7.1388Y-3.952
X7.1388Y-5.3087
X7.1388Y-5.4087
X7.1388Y-2.3953
X7.1388Y-2.4953
X7.1888Y-3.902
X7.1888Y-5.3587
X7.1888Y-2.4453
X7.2388Y-3.852
X7.2388Y-3.952
X7.2388Y-5.3087
X7.2388Y-5.4087
X7.2388Y-2.3953
X7.2388Y-2.4953
T4
X4.9999Y-2.7559
X4.9999Y-4.2126
X5.0Y-1.2992
X6.4566Y-2.7558
X6.4566Y-4.2125
X6.4567Y-1.2991
X7.9133Y-2.7558
X7.9133Y-4.2125
X7.9134Y-1.2991
T5
X4.3331Y-2.8542
X4.3331Y-4.3109
X4.3332Y-1.3975
X5.3091Y-3.8341
X5.3091Y-5.2908
X5.3091Y-2.3774
X5.7898Y-2.8541
X5.7898Y-4.3108
X5.7899Y-1.3974
X6.7658Y-3.834
X6.7658Y-5.2907
X6.7658Y-2.3773
X7.2465Y-2.8541
X7.2465Y-4.3108
X7.2466Y-1.3974
X8.2225Y-3.834
X8.2225Y-5.2907
X8.2225Y-2.3773
T2
G00X4.413Y-3.414
M15
G01X4.4066Y-3.3221
M16
G05
G00X4.413Y-4.8707
M15
G01X4.4066Y-4.7788
M16
G05
G00X4.4131Y-1.9573
M15
G01X4.4067Y-1.8654
M16
G05
G00X4.4192Y-3.2411
M15
G01X4.4507Y-3.1545
M16
G05
G00X4.4192Y-4.6978
M15
G01X4.4507Y-4.6112
M16
G05
G00X4.4193Y-1.7844
M15
G01X4.4508Y-1.6978
M16
G05
G00X4.4777Y-3.5745
M15
G01X4.4345Y-3.4932
M16
G05
G00X4.4777Y-5.0312
M15
G01X4.4345Y-4.9499
M16
G05
G00X4.4778Y-2.1178
M15
G01X4.4346Y-2.0365
M16
G05
G00X4.6021Y-3.6948
M15
G01X4.5295Y-3.6381
M16
G05
G00X4.6021Y-5.1515
M15
G01X4.5295Y-5.0948
M16
G05
G00X4.6022Y-2.2381
M15
G01X4.5296Y-2.1814
M16
G05
G00X4.6279Y-2.9744
M15
G01X4.7133Y-2.9399
M16
G05
G00X4.6279Y-4.4311
M15
G01X4.7133Y-4.3966
M16
G05
G00X4.6279Y-1.5177
M15
G01X4.7134Y-1.4832
M16
G05
G00X4.7647Y-3.7541
M15
G01X4.6753Y-3.7319
M16
G05
G00X4.7647Y-5.2108
M15
G01X4.6753Y-5.1886
M16
G05
G00X4.7648Y-2.2974
M15
G01X4.6754Y-2.2752
M16
G05
G00X4.7943Y-2.9269
M15
G01X4.8863Y-2.9301
M16
G05
G00X4.7943Y-4.3836
M15
G01X4.8863Y-4.3868
M16
G05
G00X4.7943Y-1.4702
M15
G01X4.8864Y-1.4734
M16
G05
G00X4.9374Y-3.7422
M15
G01X4.8466Y-3.7582
M16
G05
G00X4.9374Y-5.1989
M15
G01X4.8466Y-5.2149
M16
G05
G00X4.9374Y-2.2855
M15
G01X4.8467Y-2.3015
M16
G05
G00X4.9656Y-2.9511
M15
G01X5.0484Y-2.9915
M16
G05
G00X4.9656Y-4.4078
M15
G01X5.0484Y-4.4482
M16
G05
G00X4.9657Y-1.4944
M15
G01X5.0485Y-1.5348
M16
G05
G00X5.0902Y-3.6611
M15
G01X5.0138Y-3.7126
M16
G05
G00X5.0902Y-5.1178
M15
G01X5.0138Y-5.1693
M16
G05
G00X5.0903Y-2.2044
M15
G01X5.0139Y-2.2559
M16
G05
G00X5.1123Y-3.0429
M15
G01X5.1715Y-3.1135
M16
G05
G00X5.1123Y-4.4996
M15
G01X5.1715Y-4.5702
M16
G05
G00X5.1124Y-1.5862
M15
G01X5.1716Y-1.6568
M16
G05
G00X5.1969Y-3.5248
M15
G01X5.1481Y-3.6029
M16
G05
G00X5.1969Y-4.9815
M15
G01X5.1481Y-5.0596
M16
G05
G00X5.1969Y-2.0681
M15
G01X5.1481Y-2.1462
M16
G05
G00X5.209Y-3.1865
M15
G01X5.2344Y-3.275
M16
G05
G00X5.209Y-4.6432
M15
G01X5.2344Y-4.7317
M16
G05
G00X5.209Y-1.7298
M15
G01X5.2344Y-1.8183
M16
G05
G00X5.2389Y-3.3569
M15
G01X5.2261Y-3.4482
M16
G05
G00X5.2389Y-4.8136
M15
G01X5.2261Y-4.9048
M16
G05
G00X5.2389Y-1.9002
M15
G01X5.2261Y-1.9915
M16
G05
G00X5.8697Y-3.4139
M15
G01X5.8633Y-3.322
M16
G05
G00X5.8697Y-4.8706
M15
G01X5.8633Y-4.7787
M16
G05
G00X5.8698Y-1.9572
M15
G01X5.8634Y-1.8653
M16
G05
G00X5.8759Y-3.241
M15
G01X5.9074Y-3.1544
M16
G05
G00X5.8759Y-4.6977
M15
G01X5.9074Y-4.6111
M16
G05
G00X5.876Y-1.7843
M15
G01X5.9075Y-1.6977
M16
G05
G00X5.9344Y-3.5744
M15
G01X5.8912Y-3.4931
M16
G05
G00X5.9344Y-5.0311
M15
G01X5.8912Y-4.9498
M16
G05
G00X5.9345Y-2.1177
M15
G01X5.8913Y-2.0364
M16
G05
G00X6.0588Y-3.6948
M15
G01X5.9862Y-3.638
M16
G05
G00X6.0588Y-5.1515
M15
G01X5.9862Y-5.0947
M16
G05
G00X6.0589Y-2.2381
M15
G01X5.9863Y-2.1813
M16
G05
G00X6.0846Y-2.9744
M15
G01X6.17Y-2.9399
M16
G05
G00X6.0846Y-4.4311
M15
G01X6.17Y-4.3966
M16
G05
G00X6.0846Y-1.5177
M15
G01X6.1701Y-1.4832
M16
G05
G00X6.2214Y-3.7541
M15
G01X6.132Y-3.7318
M16
G05
G00X6.2214Y-5.2108
M15
G01X6.132Y-5.1885
M16
G05
G00X6.2215Y-2.2974
M15
G01X6.1321Y-2.2751
M16
G05
G00X6.251Y-2.9268
M15
G01X6.343Y-2.93
M16
G05
G00X6.251Y-4.3835
M15
G01X6.343Y-4.3867
M16
G05
G00X6.251Y-1.4701
M15
G01X6.3431Y-1.4733
M16
G05
G00X6.3941Y-3.7421
M15
G01X6.3033Y-3.7581
M16
G05
G00X6.3941Y-5.1988
M15
G01X6.3033Y-5.2148
M16
G05
G00X6.3941Y-2.2854
M15
G01X6.3034Y-2.3014
M16
G05
G00X6.4223Y-2.951
M15
G01X6.5051Y-2.9914
M16
G05
G00X6.4223Y-4.4077
M15
G01X6.5051Y-4.4481
M16
G05
G00X6.4224Y-1.4943
M15
G01X6.5052Y-1.5347
M16
G05
G00X6.5469Y-3.661
M15
G01X6.4705Y-3.7125
M16
G05
G00X6.5469Y-5.1177
M15
G01X6.4705Y-5.1692
M16
G05
G00X6.547Y-2.2043
M15
G01X6.4706Y-2.2558
M16
G05
G00X6.569Y-3.0428
M15
G01X6.6282Y-3.1134
M16
G05
G00X6.569Y-4.4995
M15
G01X6.6282Y-4.5701
M16
G05
G00X6.5691Y-1.5862
M15
G01X6.6283Y-1.6567
M16
G05
G00X6.6536Y-3.5247
M15
G01X6.6048Y-3.6029
M16
G05
G00X6.6536Y-4.9814
M15
G01X6.6048Y-5.0596
M16
G05
G00X6.6536Y-2.068
M15
G01X6.6048Y-2.1462
M16
G05
G00X6.6657Y-3.1864
M15
G01X6.6911Y-3.275
M16
G05
G00X6.6657Y-4.6431
M15
G01X6.6911Y-4.7317
M16
G05
G00X6.6657Y-1.7297
M15
G01X6.6911Y-1.8183
M16
G05
G00X6.6956Y-3.3569
M15
G01X6.6828Y-3.4481
M16
G05
G00X6.6956Y-4.8135
M15
G01X6.6828Y-4.9048
M16
G05
G00X6.6956Y-1.9002
M15
G01X6.6828Y-1.9914
M16
G05
G00X7.3264Y-3.4139
M15
G01X7.32Y-3.322
M16
G05
G00X7.3264Y-4.8706
M15
G01X7.32Y-4.7787
M16
G05
G00X7.3265Y-1.9572
M15
G01X7.3201Y-1.8653
M16
G05
G00X7.3326Y-3.241
M15
G01X7.3641Y-3.1544
M16
G05
G00X7.3326Y-4.6977
M15
G01X7.3641Y-4.6111
M16
G05
G00X7.3327Y-1.7843
M15
G01X7.3642Y-1.6977
M16
G05
G00X7.3911Y-3.5744
M15
G01X7.3479Y-3.4931
M16
G05
G00X7.3911Y-5.0311
M15
G01X7.3479Y-4.9498
M16
G05
G00X7.3912Y-2.1177
M15
G01X7.348Y-2.0364
M16
G05
G00X7.5155Y-3.6948
M15
G01X7.4429Y-3.638
M16
G05
G00X7.5155Y-5.1515
M15
G01X7.4429Y-5.0947
M16
G05
G00X7.5156Y-2.2381
M15
G01X7.443Y-2.1813
M16
G05
G00X7.5413Y-2.9744
M15
G01X7.6267Y-2.9399
M16
G05
G00X7.5413Y-4.4311
M15
G01X7.6267Y-4.3966
M16
G05
G00X7.5413Y-1.5177
M15
G01X7.6268Y-1.4832
M16
G05
G00X7.6781Y-3.7541
M15
G01X7.5887Y-3.7318
M16
G05
G00X7.6781Y-5.2108
M15
G01X7.5887Y-5.1885
M16
G05
G00X7.6782Y-2.2974
M15
G01X7.5888Y-2.2751
M16
G05
G00X7.7077Y-2.9268
M15
G01X7.7997Y-2.93
M16
G05
G00X7.7077Y-4.3835
M15
G01X7.7997Y-4.3867
M16
G05
G00X7.7077Y-1.4701
M15
G01X7.7998Y-1.4733
M16
G05
G00X7.8508Y-3.7421
M15
G01X7.76Y-3.7581
M16
G05
G00X7.8508Y-5.1988
M15
G01X7.76Y-5.2148
M16
G05
G00X7.8508Y-2.2854
M15
G01X7.7601Y-2.3014
M16
G05
G00X7.879Y-2.951
M15
G01X7.9618Y-2.9914
M16
G05
G00X7.879Y-4.4077
M15
G01X7.9618Y-4.4481
M16
G05
G00X7.8791Y-1.4943
M15
G01X7.9619Y-1.5347
M16
G05
G00X8.0036Y-3.661
M15
G01X7.9272Y-3.7125
M16
G05
G00X8.0036Y-5.1177
M15
G01X7.9272Y-5.1692
M16
G05
G00X8.0037Y-2.2043
M15
G01X7.9273Y-2.2558
M16
G05
G00X8.0257Y-3.0428
M15
G01X8.0849Y-3.1134
M16
G05
G00X8.0257Y-4.4995
M15
G01X8.0849Y-4.5701
M16
G05
G00X8.0258Y-1.5862
M15
G01X8.085Y-1.6567
M16
G05
G00X8.1103Y-3.5247
M15
G01X8.0615Y-3.6029
M16
G05
G00X8.1103Y-4.9814
M15
G01X8.0615Y-5.0596
M16
G05
G00X8.1103Y-2.068
M15
G01X8.0615Y-2.1462
M16
G05
G00X8.1224Y-3.1864
M15
G01X8.1478Y-3.275
M16
G05
G00X8.1224Y-4.6431
M15
G01X8.1478Y-4.7317
M16
G05
G00X8.1224Y-1.7297
M15
G01X8.1478Y-1.8183
M16
G05
G00X8.1523Y-3.3569
M15
G01X8.1395Y-3.4481
M16
G05
G00X8.1523Y-4.8135
M15
G01X8.1395Y-4.9048
M16
G05
G00X8.1523Y-1.9002
M15
G01X8.1395Y-1.9914
M16
G05
T0
M30
