%TF.GenerationSoftware,KiCad,Pcbnew,7.0.9*%
%TF.CreationDate,2024-10-30T14:50:37+01:00*%
%TF.ProjectId,panel,70616e65-6c2e-46b6-9963-61645f706362,rev?*%
%TF.SameCoordinates,Original*%
%TF.FileFunction,Soldermask,Bot*%
%TF.FilePolarity,Negative*%
%FSLAX46Y46*%
G04 Gerber Fmt 4.6, Leading zero omitted, Abs format (unit mm)*
G04 Created by KiCad (PCBNEW 7.0.9) date 2024-10-30 14:50:37*
%MOMM*%
%LPD*%
G01*
G04 APERTURE LIST*
G04 Aperture macros list*
%AMHorizOval*
0 Thick line with rounded ends*
0 $1 width*
0 $2 $3 position (X,Y) of the first rounded end (center of the circle)*
0 $4 $5 position (X,Y) of the second rounded end (center of the circle)*
0 Add line between two ends*
20,1,$1,$2,$3,$4,$5,0*
0 Add two circle primitives to create the rounded ends*
1,1,$1,$2,$3*
1,1,$1,$4,$5*%
G04 Aperture macros list end*
%ADD10C,0.500000*%
%ADD11C,2.200000*%
%ADD12C,1.240000*%
%ADD13HorizOval,2.000000X0.273616X0.751754X-0.273616X-0.751754X0*%
%ADD14HorizOval,2.000000X-0.055805X0.798051X0.055805X-0.798051X0*%
%ADD15HorizOval,2.000000X-0.375577X0.706358X0.375577X-0.706358X0*%
%ADD16HorizOval,2.000000X-0.630409X0.492529X0.630409X-0.492529X0*%
%ADD17HorizOval,2.000000X-0.776237X0.193538X0.776237X-0.193538X0*%
%ADD18HorizOval,2.000000X-0.787846X-0.138919X0.787846X0.138919X0*%
%ADD19HorizOval,2.000000X-0.663230X-0.447354X0.663230X0.447354X0*%
%ADD20HorizOval,2.000000X-0.423935X-0.678438X0.423935X0.678438X0*%
%ADD21HorizOval,2.000000X-0.111338X-0.792214X0.111338X0.792214X0*%
%ADD22HorizOval,2.000000X0.220510X-0.769009X-0.220510X0.769009X0*%
%ADD23HorizOval,2.000000X0.514230X-0.612836X-0.514230X0.612836X0*%
%ADD24HorizOval,2.000000X0.719035X-0.350697X-0.719035X0.350697X0*%
%ADD25HorizOval,2.000000X0.799513X-0.027920X-0.799513X0.027920X0*%
%ADD26HorizOval,2.000000X0.741747X0.299685X-0.741747X-0.299685X0*%
%ADD27C,3.700000*%
G04 APERTURE END LIST*
D10*
%TO.C,mouse-bite-2mm-slot*%
X103249775Y-122750000D03*
X104749775Y-122750000D03*
X103249775Y-122000000D03*
X104749775Y-122000000D03*
X103249775Y-121250000D03*
X104749775Y-121250000D03*
%TD*%
%TO.C,mouse-bite-2mm-slot*%
X103249775Y-85750000D03*
X104749775Y-85750000D03*
X103249775Y-85000000D03*
X104749775Y-85000000D03*
X103249775Y-84250000D03*
X104749775Y-84250000D03*
%TD*%
%TO.C,mouse-bite-2mm-slot*%
X103249775Y-48250000D03*
X104749775Y-48250000D03*
X103249775Y-47500000D03*
X104749775Y-47500000D03*
X103249775Y-46750000D03*
X104749775Y-46750000D03*
%TD*%
%TO.C,mouse-bite-2mm-slot*%
X214249775Y-48250000D03*
X215749775Y-48250000D03*
X214249775Y-47500000D03*
X215749775Y-47500000D03*
X214249775Y-46750000D03*
X215749775Y-46750000D03*
%TD*%
%TO.C,mouse-bite-2mm-slot*%
X214249775Y-85750000D03*
X215749775Y-85750000D03*
X214249775Y-85000000D03*
X215749775Y-85000000D03*
X214249775Y-84250000D03*
X215749775Y-84250000D03*
%TD*%
%TO.C,mouse-bite-2mm-slot*%
X194749775Y-139750000D03*
X194749775Y-141250000D03*
X195499775Y-139750000D03*
X195499775Y-141250000D03*
X196249775Y-139750000D03*
X196249775Y-141250000D03*
%TD*%
%TO.C,mouse-bite-2mm-slot*%
X214249775Y-122750000D03*
X215749775Y-122750000D03*
X214249775Y-122000000D03*
X215749775Y-122000000D03*
X214249775Y-121250000D03*
X215749775Y-121250000D03*
%TD*%
%TO.C,mouse-bite-2mm-slot*%
X158249775Y-139750000D03*
X158249775Y-141250000D03*
X158999775Y-139750000D03*
X158999775Y-141250000D03*
X159749775Y-139750000D03*
X159749775Y-141250000D03*
%TD*%
%TO.C,mouse-bite-2mm-slot*%
X195749775Y-28750000D03*
X195749775Y-30250000D03*
X196499775Y-28750000D03*
X196499775Y-30250000D03*
X197249775Y-28750000D03*
X197249775Y-30250000D03*
%TD*%
%TO.C,mouse-bite-2mm-slot*%
X159249775Y-28750000D03*
X159249775Y-30250000D03*
X159999775Y-28750000D03*
X159999775Y-30250000D03*
X160749775Y-28750000D03*
X160749775Y-30250000D03*
%TD*%
%TO.C,mouse-bite-2mm-slot*%
X121749775Y-28750000D03*
X121749775Y-30250000D03*
X122499775Y-28750000D03*
X122499775Y-30250000D03*
X123249775Y-28750000D03*
X123249775Y-30250000D03*
%TD*%
%TO.C,mouse-bite-2mm-slot*%
X178749775Y-46750000D03*
X177249775Y-46750000D03*
X178749775Y-47500000D03*
X177249775Y-47500000D03*
X178749775Y-48250000D03*
X177249775Y-48250000D03*
%TD*%
%TO.C,mouse-bite-2mm-slot*%
X178749775Y-84250000D03*
X177249775Y-84250000D03*
X178749775Y-85000000D03*
X177249775Y-85000000D03*
X178749775Y-85750000D03*
X177249775Y-85750000D03*
%TD*%
%TO.C,mouse-bite-2mm-slot*%
X178749775Y-121250000D03*
X177249775Y-121250000D03*
X178749775Y-122000000D03*
X177249775Y-122000000D03*
X178749775Y-122750000D03*
X177249775Y-122750000D03*
%TD*%
%TO.C,mouse-bite-2mm-slot*%
X140249775Y-122750000D03*
X141749775Y-122750000D03*
X140249775Y-122000000D03*
X141749775Y-122000000D03*
X140249775Y-121250000D03*
X141749775Y-121250000D03*
%TD*%
%TO.C,mouse-bite-2mm-slot*%
X140249775Y-85750000D03*
X141749775Y-85750000D03*
X140249775Y-85000000D03*
X141749775Y-85000000D03*
X140249775Y-84250000D03*
X141749775Y-84250000D03*
%TD*%
%TO.C,mouse-bite-2mm-slot*%
X140249775Y-48250000D03*
X141749775Y-48250000D03*
X140249775Y-47500000D03*
X141749775Y-47500000D03*
X140249775Y-46750000D03*
X141749775Y-46750000D03*
%TD*%
%TO.C,mouse-bite-2mm-slot*%
X121749775Y-139750000D03*
X121749775Y-141250000D03*
X122499775Y-139750000D03*
X122499775Y-141250000D03*
X123249775Y-139750000D03*
X123249775Y-141250000D03*
%TD*%
%TO.C,mouse-bite-2mm-slot*%
X159749775Y-104250000D03*
X158249775Y-104250000D03*
X158249775Y-102750000D03*
X159749775Y-102750000D03*
X158999775Y-104250000D03*
X158999775Y-102750000D03*
%TD*%
%TO.C,mouse-bite-2mm-slot*%
X195441975Y-102750000D03*
X195441975Y-104250000D03*
X196191975Y-102750000D03*
X194691975Y-102750000D03*
X194691975Y-104250000D03*
X196191975Y-104250000D03*
%TD*%
%TO.C,mouse-bite-2mm-slot*%
X196499775Y-65750000D03*
X196499775Y-67250000D03*
X197249775Y-65750000D03*
X195749775Y-65750000D03*
X195749775Y-67250000D03*
X197249775Y-67250000D03*
%TD*%
%TO.C,mouse-bite-2mm-slot*%
X160749775Y-67250000D03*
X159249775Y-67250000D03*
X159249775Y-65750000D03*
X160749775Y-65750000D03*
X159999775Y-67250000D03*
X159999775Y-65750000D03*
%TD*%
%TO.C,mouse-bite-2mm-slot*%
X121749775Y-102750000D03*
X121749775Y-104250000D03*
X122499775Y-102750000D03*
X122499775Y-104250000D03*
X123249775Y-102750000D03*
X123249775Y-104250000D03*
%TD*%
%TO.C,mouse-bite-2mm-slot*%
X123249775Y-67250000D03*
X121749775Y-67250000D03*
X121749775Y-65750000D03*
X123249775Y-65750000D03*
X122499775Y-67250000D03*
X122499775Y-65750000D03*
%TD*%
D11*
%TO.C,HV_GND*%
X200997975Y-106998200D03*
%TD*%
%TO.C,HV_GND*%
X163997975Y-106998200D03*
%TD*%
%TO.C,HV_GND*%
X126997975Y-107000000D03*
%TD*%
%TO.C,HV_GND*%
X200997975Y-69998200D03*
%TD*%
%TO.C,HV_GND*%
X163997975Y-69998200D03*
%TD*%
%TO.C,HV_GND*%
X126997975Y-70000000D03*
%TD*%
%TO.C,HV_GND*%
X200999775Y-32998200D03*
%TD*%
%TO.C,HV_GND*%
X163999775Y-32998200D03*
%TD*%
%TO.C,HV_GND*%
X126999775Y-33000000D03*
%TD*%
D12*
%TO.C,OUT*%
X144324975Y-134841400D03*
X144324975Y-137381400D03*
X146864975Y-134841400D03*
X146864975Y-137381400D03*
X145594975Y-136111400D03*
%TD*%
%TO.C,OUT*%
X107324975Y-134843200D03*
X107324975Y-137383200D03*
X109864975Y-134843200D03*
X109864975Y-137383200D03*
X108594975Y-136113200D03*
%TD*%
%TO.C,OUT*%
X182594975Y-136111400D03*
X183864975Y-137381400D03*
X183864975Y-134841400D03*
X181324975Y-137381400D03*
X181324975Y-134841400D03*
%TD*%
%TO.C,OUT*%
X144324975Y-97841400D03*
X144324975Y-100381400D03*
X146864975Y-97841400D03*
X146864975Y-100381400D03*
X145594975Y-99111400D03*
%TD*%
%TO.C,OUT*%
X107324975Y-97843200D03*
X107324975Y-100383200D03*
X109864975Y-97843200D03*
X109864975Y-100383200D03*
X108594975Y-99113200D03*
%TD*%
%TO.C,OUT*%
X182594975Y-99111400D03*
X183864975Y-100381400D03*
X183864975Y-97841400D03*
X181324975Y-100381400D03*
X181324975Y-97841400D03*
%TD*%
%TO.C,OUT*%
X182596775Y-62111400D03*
X183866775Y-63381400D03*
X183866775Y-60841400D03*
X181326775Y-63381400D03*
X181326775Y-60841400D03*
%TD*%
%TO.C,OUT*%
X144326775Y-60841400D03*
X144326775Y-63381400D03*
X146866775Y-60841400D03*
X146866775Y-63381400D03*
X145596775Y-62111400D03*
%TD*%
%TO.C,OUT*%
X107326775Y-60843200D03*
X107326775Y-63383200D03*
X109866775Y-60843200D03*
X109866775Y-63383200D03*
X108596775Y-62113200D03*
%TD*%
D13*
%TO.C,U1x3*%
X186650492Y-44221491D03*
D14*
X186011789Y-48546643D03*
D15*
X187187510Y-52757658D03*
D16*
X189974348Y-56126395D03*
D17*
X193890456Y-58070381D03*
D18*
X198258681Y-58253482D03*
D19*
X202323728Y-56644029D03*
D20*
X205382708Y-53520318D03*
D21*
X206906703Y-49422472D03*
D22*
X206632186Y-45059035D03*
D23*
X204606657Y-41184491D03*
D24*
X201180304Y-38468785D03*
D25*
X196945601Y-37381483D03*
D26*
X192634757Y-38110592D03*
D27*
X208852648Y-60384485D03*
X184062646Y-35494488D03*
%TD*%
D13*
%TO.C,U2x3*%
X186648692Y-81221641D03*
D14*
X186009989Y-85546793D03*
D15*
X187185710Y-89757808D03*
D16*
X189972548Y-93126545D03*
D17*
X193888656Y-95070531D03*
D18*
X198256881Y-95253632D03*
D19*
X202321928Y-93644179D03*
D20*
X205380908Y-90520468D03*
D21*
X206904903Y-86422622D03*
D22*
X206630386Y-82059185D03*
D23*
X204604857Y-78184641D03*
D24*
X201178504Y-75468935D03*
D25*
X196943801Y-74381633D03*
D26*
X192632957Y-75110742D03*
D27*
X208850848Y-97384635D03*
X184060846Y-72494638D03*
%TD*%
D13*
%TO.C,U3x3*%
X186648692Y-118221791D03*
D14*
X186009989Y-122546943D03*
D15*
X187185710Y-126757958D03*
D16*
X189972548Y-130126695D03*
D17*
X193888656Y-132070681D03*
D18*
X198256881Y-132253782D03*
D19*
X202321928Y-130644329D03*
D20*
X205380908Y-127520618D03*
D21*
X206904903Y-123422772D03*
D22*
X206630386Y-119059335D03*
D23*
X204604857Y-115184791D03*
D24*
X201178504Y-112469085D03*
D25*
X196943801Y-111381783D03*
D26*
X192632957Y-112110892D03*
D27*
X208850848Y-134384785D03*
X184060846Y-109494788D03*
%TD*%
%TO.C,U2x2*%
X147060696Y-72494638D03*
X171850698Y-97384635D03*
D26*
X155632807Y-75110742D03*
D25*
X159943651Y-74381633D03*
D24*
X164178354Y-75468935D03*
D23*
X167604707Y-78184641D03*
D22*
X169630236Y-82059185D03*
D21*
X169904753Y-86422622D03*
D20*
X168380758Y-90520468D03*
D19*
X165321778Y-93644179D03*
D18*
X161256731Y-95253632D03*
D17*
X156888506Y-95070531D03*
D16*
X152972398Y-93126545D03*
D15*
X150185560Y-89757808D03*
D14*
X149009839Y-85546793D03*
D13*
X149648542Y-81221641D03*
%TD*%
D27*
%TO.C,U2x1*%
X110060546Y-72496438D03*
X134850548Y-97386435D03*
D26*
X118632657Y-75112542D03*
D25*
X122943501Y-74383433D03*
D24*
X127178204Y-75470735D03*
D23*
X130604557Y-78186441D03*
D22*
X132630086Y-82060985D03*
D21*
X132904603Y-86424422D03*
D20*
X131380608Y-90522268D03*
D19*
X128321628Y-93645979D03*
D18*
X124256581Y-95255432D03*
D17*
X119888356Y-95072331D03*
D16*
X115972248Y-93128345D03*
D15*
X113185410Y-89759608D03*
D14*
X112009689Y-85548593D03*
D13*
X112648392Y-81223441D03*
%TD*%
D27*
%TO.C,U3x1*%
X110060546Y-109496588D03*
X134850548Y-134386585D03*
D26*
X118632657Y-112112692D03*
D25*
X122943501Y-111383583D03*
D24*
X127178204Y-112470885D03*
D23*
X130604557Y-115186591D03*
D22*
X132630086Y-119061135D03*
D21*
X132904603Y-123424572D03*
D20*
X131380608Y-127522418D03*
D19*
X128321628Y-130646129D03*
D18*
X124256581Y-132255582D03*
D17*
X119888356Y-132072481D03*
D16*
X115972248Y-130128495D03*
D15*
X113185410Y-126759758D03*
D14*
X112009689Y-122548743D03*
D13*
X112648392Y-118223591D03*
%TD*%
D27*
%TO.C,U1x1*%
X110062346Y-35496288D03*
X134852348Y-60386285D03*
D26*
X118634457Y-38112392D03*
D25*
X122945301Y-37383283D03*
D24*
X127180004Y-38470585D03*
D23*
X130606357Y-41186291D03*
D22*
X132631886Y-45060835D03*
D21*
X132906403Y-49424272D03*
D20*
X131382408Y-53522118D03*
D19*
X128323428Y-56645829D03*
D18*
X124258381Y-58255282D03*
D17*
X119890156Y-58072181D03*
D16*
X115974048Y-56128195D03*
D15*
X113187210Y-52759458D03*
D14*
X112011489Y-48548443D03*
D13*
X112650192Y-44223291D03*
%TD*%
D27*
%TO.C,U1x2*%
X147062496Y-35494488D03*
X171852498Y-60384485D03*
D26*
X155634607Y-38110592D03*
D25*
X159945451Y-37381483D03*
D24*
X164180154Y-38468785D03*
D23*
X167606507Y-41184491D03*
D22*
X169632036Y-45059035D03*
D21*
X169906553Y-49422472D03*
D20*
X168382558Y-53520318D03*
D19*
X165323578Y-56644029D03*
D18*
X161258531Y-58253482D03*
D17*
X156890306Y-58070381D03*
D16*
X152974198Y-56126395D03*
D15*
X150187360Y-52757658D03*
D14*
X149011639Y-48546643D03*
D13*
X149650342Y-44221491D03*
%TD*%
D27*
%TO.C,U3x2*%
X147060696Y-109494788D03*
X171850698Y-134384785D03*
D26*
X155632807Y-112110892D03*
D25*
X159943651Y-111381783D03*
D24*
X164178354Y-112469085D03*
D23*
X167604707Y-115184791D03*
D22*
X169630236Y-119059335D03*
D21*
X169904753Y-123422772D03*
D20*
X168380758Y-127520618D03*
D19*
X165321778Y-130644329D03*
D18*
X161256731Y-132253782D03*
D17*
X156888506Y-132070681D03*
D16*
X152972398Y-130126695D03*
D15*
X150185560Y-126757958D03*
D14*
X149009839Y-122546943D03*
D13*
X149648542Y-118221791D03*
%TD*%
M02*
