%TF.GenerationSoftware,KiCad,Pcbnew,7.0.9*%
%TF.CreationDate,2024-10-30T14:50:37+01:00*%
%TF.ProjectId,panel,70616e65-6c2e-46b6-9963-61645f706362,rev?*%
%TF.SameCoordinates,Original*%
%TF.FileFunction,Profile,NP*%
%FSLAX46Y46*%
G04 Gerber Fmt 4.6, Leading zero omitted, Abs format (unit mm)*
G04 Created by KiCad (PCBNEW 7.0.9) date 2024-10-30 14:50:37*
%MOMM*%
%LPD*%
G01*
G04 APERTURE LIST*
%TA.AperFunction,Profile*%
%ADD10C,0.100000*%
%TD*%
%TA.AperFunction,Profile*%
%ADD11C,0.150000*%
%TD*%
G04 APERTURE END LIST*
D10*
X99499775Y-25000000D02*
X219499775Y-25000000D01*
X219499775Y-145000000D01*
X99499775Y-145000000D01*
X99499775Y-25000000D01*
D11*
X102999775Y-141500000D02*
X102999775Y-124000000D01*
X120499775Y-141500000D02*
X102999775Y-141500000D01*
X156999775Y-141500000D02*
X124499775Y-141500000D01*
X193499775Y-141500000D02*
X160999775Y-141500000D01*
X215999775Y-141500000D02*
X197499775Y-141500000D01*
X215999775Y-124000000D02*
X215999775Y-141500000D01*
X215999775Y-87000000D02*
X215999775Y-120000000D01*
X215999775Y-49500000D02*
X215999775Y-83000000D01*
X215999775Y-28500000D02*
X215999775Y-45500000D01*
X198499775Y-28500000D02*
X215999775Y-28500000D01*
X161999775Y-28500000D02*
X194499775Y-28500000D01*
X124499775Y-28500000D02*
X157999775Y-28500000D01*
X102999775Y-28500000D02*
X120499775Y-28500000D01*
X102999775Y-45500000D02*
X102999775Y-28500000D01*
X102999775Y-83000000D02*
X102999775Y-49500000D01*
X102999775Y-120000000D02*
X102999775Y-87000000D01*
X104999775Y-124000000D02*
G75*
G03*
X102999775Y-124000000I-1000000J0D01*
G01*
X102999775Y-120000000D02*
G75*
G03*
X104999775Y-120000000I1000000J0D01*
G01*
X104999775Y-124000000D02*
X104999775Y-139500000D01*
X104999775Y-104500000D02*
X104999775Y-120000000D01*
X104999775Y-87000000D02*
G75*
G03*
X102999775Y-87000000I-1000000J0D01*
G01*
X102999775Y-83000000D02*
G75*
G03*
X104999775Y-83000000I1000000J0D01*
G01*
X104999775Y-87000000D02*
X104999775Y-102500000D01*
X104999775Y-67500000D02*
X104999775Y-83000000D01*
X104999775Y-49500000D02*
X104999775Y-65500000D01*
X104999775Y-49500000D02*
G75*
G03*
X102999775Y-49500000I-1000000J0D01*
G01*
X102999775Y-45500000D02*
G75*
G03*
X104999775Y-45500000I1000000J0D01*
G01*
X104999775Y-30500000D02*
X104999775Y-45500000D01*
X156999775Y-139500000D02*
X150999775Y-139500000D01*
X156999775Y-141500000D02*
G75*
G03*
X156999775Y-139500000I0J1000000D01*
G01*
X160999775Y-139500000D02*
G75*
G03*
X160999775Y-141500000I0J-1000000D01*
G01*
X176999775Y-139500000D02*
X160999775Y-139500000D01*
X176999775Y-124000000D02*
X176999775Y-139500000D01*
X178999775Y-104500000D02*
X193499775Y-104500000D01*
X178999775Y-120000000D02*
X178999775Y-104500000D01*
X176999775Y-117000000D02*
X176999775Y-120000000D01*
X176999775Y-120000000D02*
G75*
G03*
X178999775Y-120000000I1000000J0D01*
G01*
X178999775Y-124000000D02*
G75*
G03*
X176999775Y-124000000I-1000000J0D01*
G01*
X178999775Y-139500000D02*
X178999775Y-124000000D01*
X193499775Y-139500000D02*
X178999775Y-139500000D01*
X193499775Y-141500000D02*
G75*
G03*
X193499775Y-139500000I0J1000000D01*
G01*
X197499775Y-139500000D02*
G75*
G03*
X197499775Y-141500000I0J-1000000D01*
G01*
X198499775Y-139500000D02*
X197499775Y-139500000D01*
X213999775Y-139500000D02*
X198499775Y-139500000D01*
X213999775Y-124000000D02*
X213999775Y-139500000D01*
X215999775Y-124000000D02*
G75*
G03*
X213999775Y-124000000I-1000000J0D01*
G01*
X213999775Y-120000000D02*
G75*
G03*
X215999775Y-120000000I1000000J0D01*
G01*
X213999775Y-104500000D02*
X213999775Y-120000000D01*
X197499775Y-104500000D02*
X213999775Y-104500000D01*
X193499775Y-104500000D02*
G75*
G03*
X193499775Y-102500000I0J1000000D01*
G01*
X197499775Y-102500000D02*
G75*
G03*
X197499775Y-104500000I0J-1000000D01*
G01*
X191999775Y-102500000D02*
X193499775Y-102500000D01*
X198499775Y-102500000D02*
X197499775Y-102500000D01*
X213999775Y-87000000D02*
X213999775Y-88000000D01*
X213999775Y-81500000D02*
X213999775Y-83000000D01*
X215999775Y-87000000D02*
G75*
G03*
X213999775Y-87000000I-1000000J0D01*
G01*
X213999775Y-83000000D02*
G75*
G03*
X215999775Y-83000000I1000000J0D01*
G01*
X213999775Y-49500000D02*
X213999775Y-51000000D01*
X215999775Y-49500000D02*
G75*
G03*
X213999775Y-49500000I-1000000J0D01*
G01*
X213999775Y-45500000D02*
G75*
G03*
X215999775Y-45500000I1000000J0D01*
G01*
X213999775Y-44000000D02*
X213999775Y-45500000D01*
X213999775Y-67500000D02*
X198499775Y-67500000D01*
X213999775Y-81500000D02*
X213999775Y-67500000D01*
X213999775Y-102500000D02*
X213999775Y-88000000D01*
X198499775Y-102500000D02*
X213999775Y-102500000D01*
X178999775Y-102500000D02*
X191999775Y-102500000D01*
X178999775Y-87000000D02*
X178999775Y-102500000D01*
X178999775Y-67500000D02*
X178999775Y-83000000D01*
X194499775Y-67500000D02*
X178999775Y-67500000D01*
X198499775Y-65500000D02*
G75*
G03*
X198499775Y-67500000I0J-1000000D01*
G01*
X194499775Y-67500000D02*
G75*
G03*
X194499775Y-65500000I0J1000000D01*
G01*
X198499775Y-28500000D02*
G75*
G03*
X198499775Y-30500000I0J-1000000D01*
G01*
X194499775Y-30500000D02*
G75*
G03*
X194499775Y-28500000I0J1000000D01*
G01*
X198499775Y-30500000D02*
X213499775Y-30500000D01*
X178999775Y-30500000D02*
X194499775Y-30500000D01*
X213999775Y-65500000D02*
X213999775Y-51000000D01*
X198499775Y-65500000D02*
X213999775Y-65500000D01*
X191999775Y-65500000D02*
X194499775Y-65500000D01*
X178999775Y-65500000D02*
X191999775Y-65500000D01*
X178999775Y-49500000D02*
X178999775Y-65500000D01*
X213999775Y-30500000D02*
X213999775Y-44000000D01*
X213499775Y-30500000D02*
X213999775Y-30500000D01*
X178999775Y-45500000D02*
X178999775Y-30500000D01*
X178999775Y-87000000D02*
G75*
G03*
X176999775Y-87000000I-1000000J0D01*
G01*
X176999775Y-83000000D02*
G75*
G03*
X178999775Y-83000000I1000000J0D01*
G01*
X160999775Y-102500000D02*
G75*
G03*
X160999775Y-104500000I0J-1000000D01*
G01*
X156999775Y-104500000D02*
G75*
G03*
X156999775Y-102500000I0J1000000D01*
G01*
X176999775Y-104500000D02*
X176999775Y-117000000D01*
X160999775Y-104500000D02*
X176999775Y-104500000D01*
X141999775Y-104500000D02*
X156999775Y-104500000D01*
X176999775Y-102500000D02*
X176999775Y-87000000D01*
X160999775Y-102500000D02*
X176999775Y-102500000D01*
X155499775Y-102500000D02*
X156999775Y-102500000D01*
X141999775Y-102500000D02*
X155499775Y-102500000D01*
X141999775Y-87000000D02*
X141999775Y-102500000D01*
X176999775Y-69000000D02*
X176999775Y-83000000D01*
X176999775Y-67500000D02*
X176999775Y-69000000D01*
X161999775Y-67500000D02*
X176999775Y-67500000D01*
X162999775Y-65500000D02*
X161999775Y-65500000D01*
X161999775Y-65500000D02*
G75*
G03*
X161999775Y-67500000I0J-1000000D01*
G01*
X157999775Y-67500000D02*
G75*
G03*
X157999775Y-65500000I0J1000000D01*
G01*
X154999775Y-67500000D02*
X157999775Y-67500000D01*
X154999775Y-65500000D02*
X157999775Y-65500000D01*
X141999775Y-67500000D02*
X154999775Y-67500000D01*
X141999775Y-83000000D02*
X141999775Y-67500000D01*
X141999775Y-87000000D02*
G75*
G03*
X139999775Y-87000000I-1000000J0D01*
G01*
X139999775Y-83000000D02*
G75*
G03*
X141999775Y-83000000I1000000J0D01*
G01*
X139999775Y-83000000D02*
X139999775Y-67500000D01*
X139999775Y-102500000D02*
X139999775Y-87000000D01*
X141999775Y-120000000D02*
X141999775Y-104500000D01*
X139999775Y-120000000D02*
G75*
G03*
X141999775Y-120000000I1000000J0D01*
G01*
X141999775Y-139500000D02*
X150999775Y-139500000D01*
X141999775Y-124000000D02*
X141999775Y-139500000D01*
X141999775Y-124000000D02*
G75*
G03*
X139999775Y-124000000I-1000000J0D01*
G01*
X139999775Y-124000000D02*
X139999775Y-139500000D01*
X139999775Y-120000000D02*
X139999775Y-104500000D01*
X124499775Y-139500000D02*
G75*
G03*
X124499775Y-141500000I0J-1000000D01*
G01*
X120499775Y-141500000D02*
G75*
G03*
X120499775Y-139500000I0J1000000D01*
G01*
X120499775Y-30500000D02*
G75*
G03*
X120499775Y-28500000I0J1000000D01*
G01*
X124499775Y-28500000D02*
G75*
G03*
X124499775Y-30500000I0J-1000000D01*
G01*
X157999775Y-30500000D02*
G75*
G03*
X157999775Y-28500000I0J1000000D01*
G01*
X161999775Y-28500000D02*
G75*
G03*
X161999775Y-30500000I0J-1000000D01*
G01*
X178999775Y-49500000D02*
G75*
G03*
X176999775Y-49500000I-1000000J0D01*
G01*
X176999775Y-45500000D02*
G75*
G03*
X178999775Y-45500000I1000000J0D01*
G01*
X176999775Y-50500000D02*
X176999775Y-49500000D01*
X176999775Y-45500000D02*
X176999775Y-44000000D01*
X161999775Y-30500000D02*
X162999775Y-30500000D01*
X155499775Y-30500000D02*
X157999775Y-30500000D01*
X176999775Y-30500000D02*
X162999775Y-30500000D01*
X176999775Y-44000000D02*
X176999775Y-30500000D01*
X176999775Y-65500000D02*
X176999775Y-50500000D01*
X162999775Y-65500000D02*
X176999775Y-65500000D01*
X141999775Y-65500000D02*
X154999775Y-65500000D01*
X141999775Y-49500000D02*
X141999775Y-65500000D01*
X141999775Y-30500000D02*
X155499775Y-30500000D01*
X141999775Y-45500000D02*
X141999775Y-30500000D01*
X141999775Y-49500000D02*
G75*
G03*
X139999775Y-49500000I-1000000J0D01*
G01*
X139999775Y-45500000D02*
G75*
G03*
X141999775Y-45500000I1000000J0D01*
G01*
X139999775Y-49500000D02*
X139999775Y-65500000D01*
X139999775Y-30500000D02*
X139999775Y-45500000D01*
X124499775Y-30500000D02*
X139999775Y-30500000D01*
X120499775Y-30500000D02*
X104999775Y-30500000D01*
X120499775Y-139500000D02*
X118499775Y-139500000D01*
X124499775Y-139500000D02*
X125999775Y-139500000D01*
X139999775Y-104500000D02*
X124499775Y-104500000D01*
X125999775Y-139500000D02*
X139999775Y-139500000D01*
X104999775Y-139500000D02*
X118499775Y-139500000D01*
X120499775Y-104500000D02*
X104999775Y-104500000D01*
X120499775Y-104500000D02*
G75*
G03*
X120499775Y-102500000I0J1000000D01*
G01*
X124499775Y-102500000D02*
G75*
G03*
X124499775Y-104500000I0J-1000000D01*
G01*
X120499775Y-102500000D02*
X118499775Y-102500000D01*
X124499775Y-102500000D02*
X125999775Y-102500000D01*
X139999775Y-67500000D02*
X124499775Y-67500000D01*
X125999775Y-102500000D02*
X139999775Y-102500000D01*
X104999775Y-102500000D02*
X118499775Y-102500000D01*
X120499775Y-67500000D02*
X104999775Y-67500000D01*
X124499775Y-65500000D02*
G75*
G03*
X124499775Y-67500000I0J-1000000D01*
G01*
X120499775Y-67500000D02*
G75*
G03*
X120499775Y-65500000I0J1000000D01*
G01*
X104999775Y-65500000D02*
X120499775Y-65500000D01*
X124499775Y-65500000D02*
X139999775Y-65500000D01*
M02*
